<svg xmlns="http://www.w3.org/2000/svg" xmlns:xlink="http://www.w3.org/1999/xlink" width="351" height="167" viewBox="0 0 351 167">
  <defs>
    <clipPath id="clip-path">
      <rect id="長方形_45" data-name="長方形 45" width="351" height="150" transform="translate(13 1964)" fill="#f2784a"/>
    </clipPath>
    <clipPath id="clip-path-2">
      <rect width="232.269" height="166.943" fill="none"/>
    </clipPath>
  </defs>
  <g id="グループ_685" data-name="グループ 685" transform="translate(-13 -1947)">
    <rect id="長方形_185" data-name="長方形 185" width="351" height="150" transform="translate(13 1964)" fill="#f7ddc9"/>
    <g id="マスクグループ_4" data-name="マスクグループ 4" clip-path="url(#clip-path)">
      <g id="グループ_684" data-name="グループ 684">
        <g id="グループ_683" data-name="グループ 683">
          <g id="グループ_663" data-name="グループ 663" transform="translate(30.98 2049.152)">
            <path id="パス_433" data-name="パス 433" d="M416.514,437.316V391.457H414.68v6.972H403.944v-6.972H402.11v13.9a35.908,35.908,0,0,1-5.3,9.807c-.7.924-1.492,1.867-2.376,2.825q-.579.629-1.216,1.265c-1.082,1.08-2.289,2.176-3.641,3.282q-1.672,1.366-3.648,2.748a88.859,88.859,0,0,1-15.159,8.3,88.9,88.9,0,0,1-15.16-8.3q-1.982-1.382-3.648-2.749c-1.353-1.106-2.56-2.2-3.641-3.282q-.638-.637-1.216-1.265c-.885-.958-1.672-1.9-2.378-2.826a35.928,35.928,0,0,1-5.3-9.807v-13.9h-1.833v6.972H326.856v-6.972h-1.833v45.859h-6.515v2.235H421.4v-2.235Zm-12.57-19.172q1.529-1.131,2.884-2.231h.063v21.4h-2.947Zm0-1.132v-1.1h1.415C404.9,416.276,404.429,416.643,403.944,417.012Zm10.736-2.238h-2.65V411.12a26.962,26.962,0,0,0,2.65-3.28Zm-3.816,0h-2.676c.972-.835,1.868-1.655,2.676-2.454Zm-2.806,1.139h2.806v21.4h-2.806Zm3.972,0h2.65v21.4h-2.65Zm2.65-16.346v6.126c-1.23,2.6-3.9,5.7-7.926,9.081h-2.81V399.567Zm-15.446,13.986a35.266,35.266,0,0,0,2.876-5.226v10.037c-.166.12-.325.238-.494.357q-1.146.813-2.382,1.637Zm2.876,5.908v17.855h-2.876v-15.9C400.237,420.756,401.191,420.106,402.11,419.461Zm-6.558-1.231q.664-.724,1.257-1.437c.448-.536.866-1.066,1.259-1.59v5.922q-.619.4-1.259.806-.618.39-1.257.782Zm1.257,4.724q.639-.4,1.259-.79v15.152h-2.516V423.724Q396.19,423.338,396.809,422.954Zm-4.762-1.292q.606-.535,1.17-1.067.607-.572,1.17-1.14v3.967q-.579.346-1.17.694t-1.17.679Zm1.17,3.443q.591-.342,1.17-.683v12.894h-2.34V425.774Q392.64,425.439,393.217,425.1Zm-4.947-.4q.672-.5,1.306-.992.674-.529,1.305-1.054v2.8q-.645.363-1.305.725t-1.306.711Zm1.306,2.437q.66-.358,1.305-.717v10.888H388.27v-9.471Q388.93,427.494,389.576,427.145Zm-4.824-.009q.6-.389,1.176-.775.6-.4,1.175-.81v1.963q-.582.307-1.175.615c-.389.2-.78.4-1.176.6Zm1.176,1.929q.592-.3,1.175-.606v8.857h-2.351v-7.654Q385.345,429.363,385.928,429.065Zm-27.977.254v-1.446a97.6,97.6,0,0,0,12.485,6.448l.333-.295.332.295a97.514,97.514,0,0,0,12.484-6.448v1.446q-4.449,2.22-9.47,4.411l.665.591q4.641-2.019,8.8-4.079v7.074H357.951v-7.074q4.163,2.053,8.805,4.079l.665-.591Q362.405,431.547,357.951,429.319Zm-3.518-3.768q.574.4,1.176.81.574.387,1.176.775v1.6q-.594-.3-1.176-.6t-1.176-.615Zm1.176,3.515q.582.3,1.176.6v7.654h-2.352v-8.857Q355.017,428.762,355.609,429.066Zm-4.954-6.4q.631.525,1.306,1.054.633.495,1.306.992v2.186q-.66-.355-1.306-.711t-1.306-.725Zm1.306,4.483q.646.35,1.306.7v9.471h-2.612V426.428Q351.3,426.786,351.961,427.145Zm-4.811-7.69q.563.567,1.17,1.14.564.531,1.17,1.067v3.133q-.592-.34-1.17-.679t-1.17-.694Zm1.17,5.65q.577.335,1.17.669v11.542h-2.34V424.422Q347.728,424.762,348.32,425.1Zm-4.852-9.9q.59.784,1.258,1.59.6.713,1.258,1.437v4.483q-.639-.391-1.258-.783-.639-.4-1.258-.8Zm1.258,7.751q.619.384,1.258.77v13.592h-2.516V422.164C343.882,422.427,344.3,422.69,344.726,422.954Zm-11.247-7.041v21.4h-2.807v-21.4Zm-2.807-1.139V412.32c.809.8,1.7,1.619,2.676,2.454Zm3.972,1.139h.063q1.353,1.1,2.886,2.23v19.173h-2.949Zm1.533,0h1.416v1.1C337.107,416.643,336.633,416.276,336.177,415.913Zm3.249,3.548c.92.645,1.874,1.295,2.876,1.95v15.9h-2.876Zm2.876-5.908v6.8q-1.234-.824-2.382-1.637c-.169-.119-.328-.237-.494-.357V408.327A35.359,35.359,0,0,0,342.3,413.553Zm-4.709-13.986v15.207h-2.811c-4.024-3.384-6.7-6.486-7.926-9.081v-6.126Zm-10.737,8.273a27.04,27.04,0,0,0,2.65,3.28v3.654h-2.65Zm0,8.073h2.65v21.4h-2.65Z" transform="translate(-318.508 -375.16)" fill="#e5cab5"/>
            <g id="グループ_662" data-name="グループ 662" transform="translate(34.62)">
              <path id="パス_434" data-name="パス 434" d="M386.566,448.28l-1.44-.384.05-1.374-3.728-.6c-.075-.083-.155-.175-.243-.279A10.147,10.147,0,0,1,379.7,443s.427.249.3-.7-.475-2.022-.525-2.583a4.672,4.672,0,0,1,.125-1.275s.7-.218.526-.731a14.173,14.173,0,0,1-.352-1.758s.4.078.276-.654-1.077-8.354-1.077-8.354a4.919,4.919,0,0,1,1.052.28,2.845,2.845,0,0,0,2.6-.653,3.836,3.836,0,0,0,1.052-1.9c.05-.42.676-1.058.626-1.478s.15-1.307-.25-1.618-.351-.715-.476-1.027-.075-.373-.251-.529-.451-.42-.451-.42l1.127-1.68-1.077-1.151-1.076-.14-1.027,1.354s-.376-.14-.577-.234a20.5,20.5,0,0,1-1.853-2.1,6.357,6.357,0,0,0-1.278-1.182,2.557,2.557,0,0,0-1-.513c-.426-.125.124-.234-.626-.451a3.075,3.075,0,0,1-1.654-.95c-.127-.2-.177-.27-.2-.294h-.005s-.012-.022.005,0c.031.006.375.066.471-.157s-.351-.684-.351-.684.276-.576.151-.871a1.03,1.03,0,0,0-.5-.452l-.151-.466s.151.186.376-.031.176-.374-.025-.825a2,2,0,0,0-.209-.343l4.006-.629-4.5.079a5.262,5.262,0,0,0-.524-.436l2.942-1.457-3.66,1.024c-.125-.061-.254-.117-.388-.167a6.6,6.6,0,0,0-.656-.2l.647-2.223-1.605,2.033a8.779,8.779,0,0,0-1.143-.093l-2.746-2.524,1.772,2.582a3.3,3.3,0,0,0-1.088.338l-2.368-.725-2.052-.627,2.052.9,1.889.825a1.666,1.666,0,0,0-.4.564l-1.493.131-1.821.16c0-.02-.007-.04-.01-.061a10.685,10.685,0,0,0-1.627-3.143,6.159,6.159,0,0,1-1.027-1.851c-.4-.841-.351-1.074-.627-1.618a3.75,3.75,0,0,0-.976-1.307,1.713,1.713,0,0,0-.5-.326l.1-.623s.35-.109.376-.218-.2-.249-.2-.249,1.5-.187,1.5-.342.476-.264.276-.513-.477-.4-.326-.592a1.932,1.932,0,0,1,.451-.357l-.451-.031.125-.218-.652.062-.1-.233-.96.1a.921.921,0,0,0-.068-.276c-.04-.127-.069-.234.037-.261.182-.047.258-.179.471-.453s1.305-.82,1.35-1.064.167-.443.045-.565-.424.273-.835.442-.621-.038-1,.1.03-.528-.364-.641-.79.2-1.154.462-.622.075-1.092.461-.06.942.3,1.245a.682.682,0,0,1,.237.386l-.453-.111-.375.3-.7-.062-.125.2-.5-.032.125.218-.425-.016s.551.171.579.409c-.09.1-.151.434-.288.509s-.182.189,0,.292a1.9,1.9,0,0,0,.729.377c.133.027.292.061.44.1-.224.106.045.289.478.429a1.633,1.633,0,0,1,.189.277v.274s-.364-.038-.424.169.258.387.258.387a.221.221,0,0,0-.213.226c0,.217.334.348.334.348s-.41.1-.182.359a.938.938,0,0,0,.5.311s.214.631.076.829a.557.557,0,0,0-.106.377s-.258.085-.121.254.334.17.349.491.121.339.121.339.349.48.622.48.561-.207.561-.31.137.678.274,1.177a12.665,12.665,0,0,0,1.153,3.063,12.447,12.447,0,0,1,1,1.819c.213.443.379.838.183,1.093a4.678,4.678,0,0,0-.926,2.1c-.031.8-.228,1.338.425,1.309s.743.18.924.113-.014.5.411.773.531.1.728.924a3.274,3.274,0,0,0,.5,1.5c.394.613.515.773.515.773a6.631,6.631,0,0,0-1.866,2.431c-.53,1.386-.44,2.629-.121,2.95s.592.566.592.566a5.973,5.973,0,0,0-.38,2.158,8.013,8.013,0,0,0,.348,2.081,5.178,5.178,0,0,0,.351.762,2.748,2.748,0,0,0,.2.731,2.607,2.607,0,0,1,.2.685,15.787,15.787,0,0,0,.226,2.862c.225.731.275,1.1.426,1.6a13,13,0,0,0,.8,1.774c.326.653.776,1.4.776,1.4a6.193,6.193,0,0,1-.05,1.291c-.1.918-.45,3.625-1.152,4.279a13.318,13.318,0,0,1-2.83,1.539,1.448,1.448,0,0,0-.206.128l-3.892.222v1.471l-1.389.606.771.8v7.152h30.667l-.051-6.705ZM362.9,408.491a.621.621,0,0,1-.6-.447l1.8.045,1.452.036a.781.781,0,0,0,.349.459l0,.048-1.8.359-.522.1C363.3,408.814,363.128,408.506,362.9,408.491Zm3.657,2.536a5.163,5.163,0,0,0-.351.513,9.338,9.338,0,0,1-1.277-.466c-.326-.187-.351-.172-.5-.436s-.05-.42-.276-.654a.61.61,0,0,1-.048-.055c-.172-.224-.153-.5-.451-.768l.451-.018,1.851-.076a5.11,5.11,0,0,0,.126.746c.1.327.175.5.4.514a.806.806,0,0,0,.425-.109l.05.249S366.728,410.809,366.553,411.027Z" transform="translate(-353.128 -393.719)" fill="#e5cab5" fill-rule="evenodd"/>
              <path id="パス_435" data-name="パス 435" d="M386.566,448.28l-1.44-.384.05-1.374-3.728-.6c-.075-.083-.155-.175-.243-.279A10.147,10.147,0,0,1,379.7,443s.427.249.3-.7-.475-2.022-.525-2.583a4.672,4.672,0,0,1,.125-1.275s.7-.218.526-.731a14.173,14.173,0,0,1-.352-1.758s.4.078.276-.654-1.077-8.354-1.077-8.354a4.919,4.919,0,0,1,1.052.28,2.845,2.845,0,0,0,2.6-.653,3.836,3.836,0,0,0,1.052-1.9c.05-.42.676-1.058.626-1.478s.15-1.307-.25-1.618-.351-.715-.476-1.027-.075-.373-.251-.529-.451-.42-.451-.42l1.127-1.68-1.077-1.151-1.076-.14-1.027,1.354s-.376-.14-.577-.234a20.5,20.5,0,0,1-1.853-2.1,6.357,6.357,0,0,0-1.278-1.182,2.557,2.557,0,0,0-1-.513c-.426-.125.124-.234-.626-.451a3.075,3.075,0,0,1-1.654-.95c-.127-.2-.177-.27-.2-.294h-.005s-.012-.022.005,0c.031.006.375.066.471-.157s-.351-.684-.351-.684.276-.576.151-.871a1.03,1.03,0,0,0-.5-.452l-.151-.466s.151.186.376-.031.176-.374-.025-.825a2,2,0,0,0-.209-.343l4.006-.629-4.5.079a5.262,5.262,0,0,0-.524-.436l2.942-1.457-3.66,1.024c-.125-.061-.254-.117-.388-.167a6.6,6.6,0,0,0-.656-.2l.647-2.223-1.605,2.033a8.779,8.779,0,0,0-1.143-.093l-2.746-2.524,1.772,2.582a3.3,3.3,0,0,0-1.088.338l-2.368-.725-2.052-.627,2.052.9,1.889.825a1.666,1.666,0,0,0-.4.564l-1.493.131-1.821.16c0-.02-.007-.04-.01-.061a10.685,10.685,0,0,0-1.627-3.143,6.159,6.159,0,0,1-1.027-1.851c-.4-.841-.351-1.074-.627-1.618a3.75,3.75,0,0,0-.976-1.307,1.713,1.713,0,0,0-.5-.326l.1-.623s.35-.109.376-.218-.2-.249-.2-.249,1.5-.187,1.5-.342.476-.264.276-.513-.477-.4-.326-.592a1.932,1.932,0,0,1,.451-.357l-.451-.031.125-.218-.652.062-.1-.233-.96.1a.921.921,0,0,0-.068-.276c-.04-.127-.069-.234.037-.261.182-.047.258-.179.471-.453s1.305-.82,1.35-1.064.167-.443.045-.565-.424.273-.835.442-.621-.038-1,.1.03-.528-.364-.641-.79.2-1.154.462-.622.075-1.092.461-.06.942.3,1.245a.682.682,0,0,1,.237.386l-.453-.111-.375.3-.7-.062-.125.2-.5-.032.125.218-.425-.016s.551.171.579.409c-.09.1-.151.434-.288.509s-.182.189,0,.292a1.9,1.9,0,0,0,.729.377c.133.027.292.061.44.1-.224.106.045.289.478.429a1.633,1.633,0,0,1,.189.277v.274s-.364-.038-.424.169.258.387.258.387a.221.221,0,0,0-.213.226c0,.217.334.348.334.348s-.41.1-.182.359a.938.938,0,0,0,.5.311s.214.631.076.829a.557.557,0,0,0-.106.377s-.258.085-.121.254.334.17.349.491.121.339.121.339.349.48.622.48.561-.207.561-.31.137.678.274,1.177a12.665,12.665,0,0,0,1.153,3.063,12.447,12.447,0,0,1,1,1.819c.213.443.379.838.183,1.093a4.678,4.678,0,0,0-.926,2.1c-.031.8-.228,1.338.425,1.309s.743.18.924.113-.014.5.411.773.531.1.728.924c.063.264.1.446.125.6a46.291,46.291,0,0,1,12.247,14.29c5.492,10.019,5.662,19.6,1.246,24.875h10.87l-.051-6.705ZM362.9,408.491a.621.621,0,0,1-.6-.447l1.8.045,1.452.036a.781.781,0,0,0,.349.459l0,.048-1.8.359-.522.1C363.3,408.814,363.128,408.506,362.9,408.491Zm3.657,2.536a5.163,5.163,0,0,0-.351.513,9.338,9.338,0,0,1-1.277-.466c-.326-.187-.351-.172-.5-.436s-.05-.42-.276-.654a.61.61,0,0,1-.048-.055c-.172-.224-.153-.5-.451-.768l.451-.018,1.851-.076a5.11,5.11,0,0,0,.126.746c.1.327.175.5.4.514a.806.806,0,0,0,.425-.109l.05.249S366.728,410.809,366.553,411.027Z" transform="translate(-353.128 -393.719)" fill="#e5cab5" fill-rule="evenodd" opacity="0.29" style="mix-blend-mode: multiply;isolation: isolate"/>
              <path id="パス_436" data-name="パス 436" d="M363.967,421.963c.237,1.442-.131,2.647-.823,2.691s-1.445-1.09-1.682-2.532.13-2.648.822-2.692S363.729,420.52,363.967,421.963Z" transform="translate(-353.128 -388.236)" fill="#e5cab5" fill-rule="evenodd" opacity="0.19"/>
            </g>
          </g>
          <g id="グループ_680" data-name="グループ 680" transform="translate(339.855 2033)">
            <path id="パス_437" data-name="パス 437" d="M566.815,439.123v-1.33H562.3V433.51h2.378V419.923H562.3v-8.862l-6.989-6.431c1.169-.358,1.975-1.1,1.975-1.968v-2.7a1.632,1.632,0,0,0-.514-1.137.363.363,0,0,0-.107-.205l-3.34-3.316-3.779-3.753a.458.458,0,0,0-.563,0l-3.779,3.753-3.339,3.316a.381.381,0,0,0-.05.068,1.707,1.707,0,0,0-.658,1.274v2.7c0,.912.9,1.693,2.169,2.025l-7.184,6.374v8.862h-2.378V433.51h2.378v4.283h-4.756v1.33h4.756v31.8H531.8V472h34.57v-1.074H562.3v-31.8Z" transform="translate(-531.383 -391.457)" fill="#ddbea6"/>
            <g id="グループ_679" data-name="グループ 679" transform="translate(6.659 22.484)">
              <g id="グループ_665" data-name="グループ 665" transform="translate(2.497 7.163)">
                <path id="パス_438" data-name="パス 438" d="M558.611,436.741c0,3.1-4.045,5.612-9.036,5.612s-9.036-2.513-9.036-5.612,4.045-5.613,9.036-5.613S558.611,433.641,558.611,436.741Z" transform="translate(-540.539 -431.128)" fill="#ddbea6"/>
                <g id="グループ_664" data-name="グループ 664" transform="translate(6.898 1.743)">
                  <path id="パス_439" data-name="パス 439" d="M551.126,438.008l-.826-.82-.935-.928a.113.113,0,0,0-.139,0l-.935.928-.826.82c-.077.077.012.177.158.177h1.191v2.425h1.118v-2.425h1.036C551.114,438.185,551.2,438.085,551.126,438.008Z" transform="translate(-547.437 -436.236)" fill="#ddbea6"/>
                  <path id="パス_440" data-name="パス 440" d="M552.148,437.112l1.051-.323,1.189-.366c.041-.013.041-.042,0-.055L553.2,436l-1.051-.323c-.1-.031-.227,0-.227.062v.466h-3.107v.438h3.107v.406C551.921,437.108,552.049,437.143,552.148,437.112Z" transform="translate(-547.437 -432.181)" fill="#ddbea6"/>
                </g>
                <path id="パス_441" data-name="パス 441" d="M554.325,431.128a3.983,3.983,0,0,1,.957,2.5c0,3.1-4.046,5.612-9.036,5.612a13.294,13.294,0,0,1-4.75-.844c1.482,1.841,4.539,3.109,8.079,3.109,4.991,0,9.036-2.513,9.036-5.612C558.611,433.881,556.894,432.118,554.325,431.128Z" transform="translate(-540.539 -430.284)" fill="#ddbea6" opacity="0.47" style="mix-blend-mode: multiply;isolation: isolate"/>
              </g>
              <g id="グループ_670" data-name="グループ 670" transform="translate(2.616 26.216)">
                <g id="グループ_669" data-name="グループ 669" transform="translate(0 0)">
                  <g id="グループ_667" data-name="グループ 667" transform="translate(0 0)">
                    <g id="グループ_666" data-name="グループ 666" transform="translate(0 2.511)">
                      <rect id="長方形_157" data-name="長方形 157" width="2.226" height="24.517" transform="translate(0 0)" fill="#ddbea6"/>
                      <rect id="長方形_158" data-name="長方形 158" width="2.226" height="24.517" transform="translate(3.784 0)" fill="#ddbea6"/>
                      <rect id="長方形_159" data-name="長方形 159" width="2.226" height="24.517" transform="translate(7.567 0)" fill="#ddbea6"/>
                      <rect id="長方形_160" data-name="長方形 160" width="2.226" height="24.517" transform="translate(11.35 0)" fill="#ddbea6"/>
                      <rect id="長方形_161" data-name="長方形 161" width="2.226" height="24.517" transform="translate(15.134 0)" fill="#ddbea6"/>
                    </g>
                    <rect id="長方形_162" data-name="長方形 162" width="17.518" height="1.329" transform="translate(0 0)" fill="#ddbea6"/>
                    <rect id="長方形_163" data-name="長方形 163" width="17.518" height="1.329" transform="translate(0 28.111)" fill="#ddbea6"/>
                  </g>
                  <g id="グループ_668" data-name="グループ 668" transform="translate(0 0)" opacity="0.3">
                    <path id="パス_442" data-name="パス 442" d="M558.136,412.445H540.658V423.3C540.658,417.3,548.483,412.445,558.136,412.445Z" transform="translate(-540.658 -412.445)" fill="#ddbea6"/>
                    <path id="パス_443" data-name="パス 443" d="M540.658,404.691h17.478V393.835C558.136,399.83,550.31,404.691,540.658,404.691Z" transform="translate(-540.658 -375.226)" fill="#ddbea6"/>
                  </g>
                </g>
              </g>
              <g id="グループ_674" data-name="グループ 674" transform="translate(0 0)">
                <g id="グループ_673" data-name="グループ 673" transform="translate(0 0)">
                  <g id="グループ_671" data-name="グループ 671" transform="translate(0 0)">
                    <rect id="長方形_164" data-name="長方形 164" width="1.427" height="4.283" transform="translate(0 0)" fill="#ddbea6"/>
                    <rect id="長方形_165" data-name="長方形 165" width="1.427" height="4.283" transform="translate(3.091 0)" fill="#ddbea6"/>
                    <rect id="長方形_166" data-name="長方形 166" width="1.427" height="4.283" transform="translate(6.183 0)" fill="#ddbea6"/>
                    <rect id="長方形_167" data-name="長方形 167" width="1.427" height="4.283" transform="translate(9.274 0)" fill="#ddbea6"/>
                    <rect id="長方形_168" data-name="長方形 168" width="1.427" height="4.283" transform="translate(12.365 0)" fill="#ddbea6"/>
                    <rect id="長方形_169" data-name="長方形 169" width="1.427" height="4.283" transform="translate(15.457 0)" fill="#ddbea6"/>
                    <rect id="長方形_170" data-name="長方形 170" width="1.427" height="4.283" transform="translate(18.548 0)" fill="#ddbea6"/>
                    <rect id="長方形_171" data-name="長方形 171" width="1.427" height="4.283" transform="translate(21.639 0)" fill="#ddbea6"/>
                  </g>
                  <g id="グループ_672" data-name="グループ 672" transform="translate(0 0)" opacity="0.37">
                    <path id="パス_444" data-name="パス 444" d="M544.938,445.233h-6.9v4.283C538.042,447.151,541.129,445.233,544.938,445.233Z" transform="translate(-538.042 -445.233)" fill="#ddbea6"/>
                    <path id="パス_445" data-name="パス 445" d="M554.212,449.516h6.9v-4.283C561.108,447.6,558.021,449.516,554.212,449.516Z" transform="translate(-538.042 -445.233)" fill="#ddbea6"/>
                  </g>
                </g>
              </g>
              <g id="グループ_678" data-name="グループ 678" transform="translate(0 20.677)">
                <g id="グループ_677" data-name="グループ 677" transform="translate(0 0)">
                  <g id="グループ_675" data-name="グループ 675" transform="translate(0 0)">
                    <rect id="長方形_172" data-name="長方形 172" width="1.427" height="2.585" transform="translate(0 0)" fill="#ddbea6"/>
                    <rect id="長方形_173" data-name="長方形 173" width="1.427" height="2.585" transform="translate(3.091 0)" fill="#ddbea6"/>
                    <rect id="長方形_174" data-name="長方形 174" width="1.427" height="2.585" transform="translate(6.183 0)" fill="#ddbea6"/>
                    <rect id="長方形_175" data-name="長方形 175" width="1.427" height="2.585" transform="translate(9.274 0)" fill="#ddbea6"/>
                    <rect id="長方形_176" data-name="長方形 176" width="1.427" height="2.585" transform="translate(12.365 0)" fill="#ddbea6"/>
                    <rect id="長方形_177" data-name="長方形 177" width="1.427" height="2.585" transform="translate(15.457 0)" fill="#ddbea6"/>
                    <rect id="長方形_178" data-name="長方形 178" width="1.427" height="2.585" transform="translate(18.548 0)" fill="#ddbea6"/>
                    <rect id="長方形_179" data-name="長方形 179" width="1.427" height="2.585" transform="translate(21.639 0)" fill="#ddbea6"/>
                  </g>
                  <g id="グループ_676" data-name="グループ 676" transform="translate(0 0)" opacity="0.32">
                    <path id="パス_446" data-name="パス 446" d="M542.2,426.254h-4.161v2.585C538.042,427.411,539.905,426.254,542.2,426.254Z" transform="translate(-538.042 -426.254)" fill="#ddbea6"/>
                    <path id="パス_447" data-name="パス 447" d="M556.947,428.839h4.161v-2.585C561.108,427.682,559.245,428.839,556.947,428.839Z" transform="translate(-538.042 -426.254)" fill="#ddbea6"/>
                  </g>
                </g>
              </g>
            </g>
          </g>
          <g id="グループ_682" data-name="グループ 682" transform="translate(96 2073.787)">
            <g id="グループ_681" data-name="グループ 681" transform="translate(0 0)">
              <path id="パス_448" data-name="パス 448" d="M187.637,423.192h-7.58l4.211-31.735h4.773Z" transform="translate(-161.528 -383.436)" fill="#b49178"/>
              <path id="パス_449" data-name="パス 449" d="M223.011,423.192h7.58l-4.211-31.735h-4.773Z" transform="translate(-161.528 -383.436)" fill="#b49178"/>
              <rect id="長方形_180" data-name="長方形 180" width="69.062" height="2.615" transform="translate(10.107 12.38)" fill="#b49178"/>
              <rect id="長方形_181" data-name="長方形 181" width="3.65" height="5.405" transform="translate(42.392 6.975)" fill="#b49178"/>
              <rect id="長方形_182" data-name="長方形 182" width="73.273" height="2.964" transform="translate(8.142 5.057)" fill="#b49178"/>
              <path id="パス_450" data-name="パス 450" d="M161.528,426.156l8.142,5.057h73.273l7.019-5.057S205.885,435.4,161.528,426.156Z" transform="translate(-161.528 -426.156)" fill="#b49178"/>
              <rect id="長方形_183" data-name="長方形 183" width="1.544" height="5.667" transform="translate(13.476 10.855)" fill="#b49178"/>
              <rect id="長方形_184" data-name="長方形 184" width="1.544" height="5.667" transform="translate(73.835 10.855)" fill="#b49178"/>
            </g>
          </g>
          <g id="グループ_661" data-name="グループ 661" transform="translate(288.803 2073.787)">
            <path id="パス_379" data-name="パス 379" d="M316.367,408.378a10.8,10.8,0,0,0-1.09-.572c-.618-.3-1.543-.71-2.884-1.25-.939-.376-2.082-.816-3.466-1.319l-.465-.168a21.205,21.205,0,0,0-3.584-.881c-1.457-.245-3.038-.41-4.626-.521-1.788-.123-3.583-.176-5.213-.188-2.555-.021-4.706.055-5.793.1-.487.022-.761.039-.761.039l-.666,1.447-4.946.074-2.046.03-1.664-1.965h-5l-4.33-5.409-5.077-6.342s-.227.029-.72.113c-.857.146-2.523.464-5.208,1.1-.9.214-1.92.462-3.061.753-.52.132-1.043.287-1.566.457a36.178,36.178,0,0,0-4.048,1.625c-1.245.584-2.422,1.2-3.467,1.792-1.144.645-2.132,1.251-2.88,1.729-.957.612-1.522,1.013-1.522,1.013l-1.07,30.179c25.2,1.308,50.612,1.3,76.2.126Z" transform="translate(-241.217 -391.457)" fill="#ddbea6" fill-rule="evenodd"/>
            <g id="グループ_660" data-name="グループ 660" transform="translate(9.117 16.921)" opacity="0.51" style="mix-blend-mode: multiply;isolation: isolate">
              <path id="パス_380" data-name="パス 380" d="M267.367,391.534l-1.031-.016Z" transform="translate(-247.661 -368.766)" fill="#b49178" fill-rule="evenodd"/>
              <path id="パス_382" data-name="パス 382" d="M257.845,391.686c.27.008.54.017.81.023C258.385,391.7,258.115,391.694,257.845,391.686Z" transform="translate(-248.565 -369.128)" fill="#b49178" fill-rule="evenodd"/>
              <path id="パス_383" data-name="パス 383" d="M274.9,391.46l1.184,0Z" transform="translate(-246.751 -368.631)" fill="#b49178" fill-rule="evenodd"/>
              <path id="パス_384" data-name="パス 384" d="M249.457,391.965c.16.007.321.014.482.02C249.778,391.979,249.617,391.972,249.457,391.965Z" transform="translate(-249.457 -369.712)" fill="#b49178" fill-rule="evenodd"/>
            </g>
            <path id="パス_385" data-name="パス 385" d="M244.258,402.274v2.377l-.637.086-.636.086v-4.77a.657.657,0,0,1,.636-.6c.319-.038.637.1.637.439Z" transform="translate(-241.029 -373.913)" fill="#b49178" fill-rule="evenodd"/>
            <path id="パス_386" data-name="パス 386" d="M247.18,402.715v2.326l-.928.125-.927.127v-4.676a.953.953,0,0,1,.927-.86c.465-.056.928.136.928.632Z" transform="translate(-240.78 -374.71)" fill="#b49178" fill-rule="evenodd"/>
            <path id="パス_387" data-name="パス 387" d="M250.636,403.226V405.5l-1.221.144-1.223.145v-4.576a1.228,1.228,0,0,1,1.223-1.1c.611-.065,1.221.194,1.221.84Z" transform="translate(-240.475 -375.599)" fill="#b49178" fill-rule="evenodd"/>
            <path id="パス_388" data-name="パス 388" d="M254.61,403.772V406l-1.509.153-1.51.153v-4.481a1.487,1.487,0,0,1,1.51-1.33c.755-.068,1.509.262,1.509,1.054Z" transform="translate(-240.113 -376.533)" fill="#b49178" fill-rule="evenodd"/>
            <path id="パス_389" data-name="パス 389" d="M259.111,404.326V406.5l-1.8.15-1.8.15v-4.385a1.735,1.735,0,0,1,1.8-1.547c.9-.066,1.8.336,1.8,1.273Z" transform="translate(-239.696 -377.461)" fill="#b49178" fill-rule="evenodd"/>
            <path id="パス_390" data-name="パス 390" d="M264.137,404.788v2.088q-1.042.06-2.091.126l-2.091.135v-4.2c0-1.06,1.046-1.65,2.091-1.71s2.091.412,2.091,1.468Z" transform="translate(-239.223 -378.189)" fill="#b49178" fill-rule="evenodd"/>
            <path id="パス_391" data-name="パス 391" d="M269.7,405.151v1.973q-1.195.035-2.383.083t-2.382.1v-3.955c0-1.154,1.19-1.775,2.382-1.818s2.383.49,2.383,1.643Z" transform="translate(-238.694 -378.703)" fill="#b49178" fill-rule="evenodd"/>
            <path id="パス_392" data-name="パス 392" d="M275.775,405.452v1.865q-1.336.015-2.673.033t-2.673.045v-3.734c0-1.24,1.337-1.879,2.673-1.9s2.673.582,2.673,1.822Z" transform="translate(-238.109 -379.043)" fill="#b49178" fill-rule="evenodd"/>
            <path id="パス_393" data-name="パス 393" d="M281.8,405.533V407.4q-1.336-.033-2.673-.049t-2.673-.023v-3.738c0-1.24,1.337-1.847,2.673-1.831s2.673.653,2.673,1.9Z" transform="translate(-237.468 -379.051)" fill="#b49178" fill-rule="evenodd"/>
            <path id="パス_394" data-name="パス 394" d="M287.238,405.351v1.985q-1.19-.051-2.382-.1t-2.382-.083V403.2c0-1.155,1.19-1.7,2.382-1.654s2.382.661,2.382,1.82Z" transform="translate(-236.828 -378.737)" fill="#b49178" fill-rule="evenodd"/>
            <path id="パス_395" data-name="パス 395" d="M292.16,405.066v2.109l-2.1-.129-2.094-.129v-4.2c0-1.062,1.047-1.536,2.094-1.477s2.1.649,2.1,1.716Z" transform="translate(-236.243 -378.238)" fill="#b49178" fill-rule="evenodd"/>
            <path id="パス_396" data-name="パス 396" d="M296.548,404.642v2.205l-1.8-.147-1.8-.145v-4.388c0-.945.9-1.351,1.8-1.285a1.735,1.735,0,0,1,1.8,1.555Z" transform="translate(-235.713 -377.511)" fill="#b49178" fill-rule="evenodd"/>
            <path id="パス_397" data-name="パス 397" d="M300.411,404.087v2.251l-1.51-.149-1.509-.149v-4.481c0-.8.755-1.127,1.509-1.059a1.488,1.488,0,0,1,1.51,1.337Z" transform="translate(-235.24 -376.577)" fill="#b49178" fill-rule="evenodd"/>
            <path id="パス_398" data-name="パス 398" d="M303.755,403.522v2.3l-1.223-.145-1.221-.143v-4.574c0-.649.611-.908,1.221-.842a1.231,1.231,0,0,1,1.223,1.108Z" transform="translate(-234.823 -375.631)" fill="#b49178" fill-rule="evenodd"/>
            <path id="パス_399" data-name="パス 399" d="M306.564,402.968v2.342l-.927-.126-.928-.127v-4.666c0-.5.465-.689.928-.631a.958.958,0,0,1,.927.865Z" transform="translate(-234.462 -374.729)" fill="#b49178" fill-rule="evenodd"/>
            <path id="パス_400" data-name="パス 400" d="M308.857,402.442v2.384l-.641-.087-.641-.087v-4.756c0-.344.321-.476.641-.436a.662.662,0,0,1,.641.6Z" transform="translate(-234.157 -373.916)" fill="#b49178" fill-rule="evenodd"/>
            <path id="パス_401" data-name="パス 401" d="M244.258,407.23v1.876l-.637.157-.636.158v-3.737c0-.27.319-.488.636-.572s.637-.031.637.24Z" transform="translate(-241.029 -384.733)" fill="#b49178" fill-rule="evenodd"/>
            <path id="パス_402" data-name="パス 402" d="M247.18,407.92v1.873l-.928.228-.927.23v-3.724c0-.4.464-.717.927-.839s.928-.042.928.357Z" transform="translate(-240.78 -386.184)" fill="#b49178" fill-rule="evenodd"/>
            <path id="パス_403" data-name="パス 403" d="M250.636,408.736v1.874l-1.221.261-1.223.263v-3.717c0-.527.612-.932,1.223-1.071s1.221-.016,1.221.516Z" transform="translate(-240.475 -387.793)" fill="#b49178" fill-rule="evenodd"/>
            <path id="パス_404" data-name="パス 404" d="M254.61,409.626V411.5l-1.509.277-1.51.274v-3.719c0-.662.756-1.143,1.51-1.292s1.509.034,1.509.7Z" transform="translate(-240.113 -389.49)" fill="#b49178" fill-rule="evenodd"/>
            <path id="パス_405" data-name="パス 405" d="M259.111,410.535v1.887l-1.8.27-1.8.27v-3.731c0-.8.9-1.354,1.8-1.5s1.8.107,1.8.919Z" transform="translate(-239.696 -391.165)" fill="#b49178" fill-rule="evenodd"/>
            <path id="パス_406" data-name="パス 406" d="M264.137,411.354v1.855c-.695.07-1.393.146-2.091.225s-1.394.16-2.091.242v-3.659c0-.926,1.046-1.526,2.091-1.66s2.091.2,2.091,1.138Z" transform="translate(-239.223 -392.587)" fill="#b49178" fill-rule="evenodd"/>
            <path id="パス_407" data-name="パス 407" d="M269.7,412.042v1.793q-1.195.061-2.383.144t-2.382.185v-3.536c0-1.031,1.19-1.65,2.382-1.749s2.383.322,2.383,1.37Z" transform="translate(-238.694 -393.668)" fill="#b49178" fill-rule="evenodd"/>
            <path id="パス_408" data-name="パス 408" d="M275.775,412.6v1.727q-1.336.025-2.673.056t-2.673.077v-3.408c0-1.133,1.337-1.751,2.673-1.8s2.673.471,2.673,1.62Z" transform="translate(-238.109 -394.387)" fill="#b49178" fill-rule="evenodd"/>
            <path id="パス_409" data-name="パス 409" d="M281.8,412.773v1.748c-.891-.041-1.781-.069-2.673-.09s-1.781-.034-2.673-.048v-3.469c0-1.152,1.337-1.706,2.673-1.682s2.673.627,2.673,1.789Z" transform="translate(-237.468 -394.432)" fill="#b49178" fill-rule="evenodd"/>
            <path id="パス_410" data-name="パス 410" d="M287.238,412.5v1.857c-.793-.062-1.588-.124-2.382-.181s-1.587-.11-2.382-.152v-3.7c0-1.08,1.19-1.542,2.382-1.463s2.382.7,2.382,1.782Z" transform="translate(-236.828 -393.844)" fill="#b49178" fill-rule="evenodd"/>
            <path id="パス_411" data-name="パス 411" d="M292.16,412.017v1.957l-2.1-.235-2.094-.233v-3.922c0-.992,1.047-1.37,2.094-1.25s2.1.735,2.1,1.725Z" transform="translate(-236.243 -392.866)" fill="#b49178" fill-rule="evenodd"/>
            <path id="パス_412" data-name="パス 412" d="M296.548,411.3v2.021q-.9-.133-1.8-.262l-1.8-.26v-4.063c0-.874.9-1.174,1.8-1.037s1.8.708,1.8,1.578Z" transform="translate(-235.713 -391.503)" fill="#b49178" fill-rule="evenodd"/>
            <path id="パス_413" data-name="パス 413" d="M300.411,410.417v2.029l-1.51-.268-1.509-.267v-4.089c0-.727.755-.947,1.509-.8s1.51.647,1.51,1.37Z" transform="translate(-235.24 -389.861)" fill="#b49178" fill-rule="evenodd"/>
            <path id="パス_414" data-name="パス 414" d="M303.755,409.5v2.03l-1.223-.257-1.221-.254v-4.1c0-.582.611-.732,1.221-.6s1.223.566,1.223,1.143Z" transform="translate(-234.823 -388.176)" fill="#b49178" fill-rule="evenodd"/>
            <path id="パス_415" data-name="パス 415" d="M306.564,408.607v2.029l-.927-.225-.928-.226v-4.094c0-.438.465-.533.928-.412s.927.462.927.9Z" transform="translate(-234.462 -386.563)" fill="#b49178" fill-rule="evenodd"/>
            <path id="パス_416" data-name="パス 416" d="M308.857,407.756v2.03l-.641-.155-.641-.156v-4.087c0-.294.321-.357.641-.273s.641.315.641.609Z" transform="translate(-234.157 -385.104)" fill="#b49178" fill-rule="evenodd"/>
            <path id="パス_417" data-name="パス 417" d="M244.258,396.1v2.192h-1.273v-4.335c0-.313.319-.485.636-.5s.637.129.637.447Z" transform="translate(-241.029 -360.744)" fill="#b49178" fill-rule="evenodd"/>
            <path id="パス_418" data-name="パス 418" d="M247.18,396.337v2.228h-1.855v-4.383c0-.467.464-.724.927-.744s.928.195.928.669Z" transform="translate(-240.78 -361)" fill="#b49178" fill-rule="evenodd"/>
            <path id="パス_419" data-name="パス 419" d="M250.636,396.6v2.265h-2.444v-4.447c0-.631.612-.971,1.223-1s1.221.271,1.221.914Z" transform="translate(-240.475 -361.282)" fill="#b49178" fill-rule="evenodd"/>
            <path id="パス_420" data-name="パス 420" d="M254.61,396.884v2.3h-3.019v-4.513a1.394,1.394,0,0,1,1.51-1.258c.755-.024,1.509.356,1.509,1.174Z" transform="translate(-240.113 -361.587)" fill="#b49178" fill-rule="evenodd"/>
            <path id="パス_421" data-name="パス 421" d="M259.111,397.181v2.327h-3.6v-4.574a1.662,1.662,0,0,1,1.8-1.527c.9-.024,1.8.447,1.8,1.447Z" transform="translate(-239.696 -361.908)" fill="#b49178" fill-rule="evenodd"/>
            <path id="パス_422" data-name="パス 422" d="M264.137,397.391v2.289h-4.182v-4.51a1.913,1.913,0,0,1,2.091-1.759c1.046-.021,2.091.532,2.091,1.691Z" transform="translate(-239.223 -362.086)" fill="#b49178" fill-rule="evenodd"/>
            <path id="パス_423" data-name="パス 423" d="M269.7,397.524v2.2h-4.765v-4.355c0-1.271,1.19-1.925,2.382-1.941s2.383.611,2.383,1.9Z" transform="translate(-238.694 -362.148)" fill="#b49178" fill-rule="evenodd"/>
            <path id="パス_424" data-name="パス 424" d="M275.775,397.63v2.1h-5.346V395.55c0-1.386,1.337-2.087,2.673-2.092s2.673.685,2.673,2.078Z" transform="translate(-238.109 -362.184)" fill="#b49178" fill-rule="evenodd"/>
            <path id="パス_425" data-name="パス 425" d="M281.8,397.636v2.084h-5.346v-4.19c0-1.392,1.337-2.079,2.673-2.072s2.673.708,2.673,2.093Z" transform="translate(-237.468 -362.178)" fill="#b49178" fill-rule="evenodd"/>
            <path id="パス_426" data-name="パス 426" d="M287.238,397.539v2.171h-4.764v-4.392c0-1.282,1.19-1.905,2.382-1.889s2.382.669,2.382,1.937Z" transform="translate(-236.828 -362.134)" fill="#b49178" fill-rule="evenodd"/>
            <path id="パス_427" data-name="パス 427" d="M292.16,397.414v2.247h-4.19V395.1c0-1.155,1.047-1.706,2.094-1.684a1.916,1.916,0,0,1,2.1,1.755Z" transform="translate(-236.243 -362.067)" fill="#b49178" fill-rule="evenodd"/>
            <path id="パス_428" data-name="パス 428" d="M296.548,397.206v2.279h-3.6v-4.637c0-1,.9-1.467,1.8-1.442a1.659,1.659,0,0,1,1.8,1.522Z" transform="translate(-235.713 -361.886)" fill="#b49178" fill-rule="evenodd"/>
            <path id="パス_429" data-name="パス 429" d="M300.411,396.912v2.249h-3.019v-4.58c0-.815.755-1.194,1.509-1.169a1.391,1.391,0,0,1,1.51,1.252Z" transform="translate(-235.24 -361.566)" fill="#b49178" fill-rule="evenodd"/>
            <path id="パス_430" data-name="パス 430" d="M303.755,396.632v2.217h-2.444v-4.515c0-.639.611-.934,1.221-.912s1.223.363,1.223.991Z" transform="translate(-234.823 -361.266)" fill="#b49178" fill-rule="evenodd"/>
            <path id="パス_431" data-name="パス 431" d="M306.564,396.367v2.19h-1.855v-4.448c0-.474.465-.689.928-.67s.927.274.927.741Z" transform="translate(-234.462 -360.99)" fill="#b49178" fill-rule="evenodd"/>
            <path id="パス_432" data-name="パス 432" d="M308.857,396.121v2.167h-1.281V393.9c0-.316.321-.461.641-.448s.641.185.641.5Z" transform="translate(-234.157 -360.743)" fill="#b49178" fill-rule="evenodd"/>
          </g>
          <g id="グループ_657" data-name="グループ 657" transform="translate(221.556 2086.017)">
            <path id="パス_361" data-name="パス 361" d="M523.58,412.8h-2.732c.683-1.633,10.245-5.365,10.245-5.365C517.6,405.8,511.287,409.3,511.287,409.3c-.684-.7-7.684-1.749-7.684-1.749l4.268-4.9a44.5,44.5,0,0,0-23.562,2.566c-6.66-11.2-26.3-13.763-26.3-13.763.683.933,3.073,9.1,3.073,9.1-4.61-3.383-13.831-3.033-13.831-3.033l1.537,4.666c-4.1-1.283-14.855-.584-14.855-.584,1.2.817,4.781,11.2,4.781,11.2H432.4v2.216h-6.318v3.966H531.093v-3.966H523.58Z" transform="translate(-426.084 -391.457)" fill="#b49178"/>
            <path id="パス_362" data-name="パス 362" d="M523.58,412.8h-2.732c.683-1.633,10.245-5.365,10.245-5.365C517.6,405.8,511.287,409.3,511.287,409.3c-.684-.7-7.684-1.749-7.684-1.749l4.268-4.9a44.5,44.5,0,0,0-23.562,2.566c-6.66-11.2-26.3-13.763-26.3-13.763.683.933,3.073,9.1,3.073,9.1-4.61-3.383-13.831-3.033-13.831-3.033l1.537,4.666c-4.1-1.283-14.855-.584-14.855-.584a13.252,13.252,0,0,1,2,3.815c11.793-4.183,28.011-4.366,42.546.327,9.717,3.137,16.986,7.91,21.122,13.237h31.485v-3.966H523.58Z" transform="translate(-426.084 -391.457)" fill="#b49178" opacity="0.42" style="mix-blend-mode: multiply;isolation: isolate"/>
          </g>
        </g>
        <path id="パス_378" data-name="パス 378" d="M270.534,468.32l-2.734-2.831-.02-.019L265.3,462.9a.242.242,0,0,0-.022-.024l-3.246-3.359a.074.074,0,0,0,0-.021c0-.071-.072-.132-.173-.156l-.561-.582a.269.269,0,0,0-.024-.024l-1.8-1.862v-3.748c0-.093-.122-.167-.27-.167h-1.43a34.712,34.712,0,0,1-6.52-11.311l1.238-2.611v0h0v0h0v0h0v0h0v-.006h0v0h0v0h0v0h0v-.008h0v0h0v0h0v0h0v-.352c0-.093-.12-.168-.269-.168h-1.977q-.279-1.012-.544-2.12v0l0-.02,0,0q-.329-1.383-.64-2.933v-.018q-.258-1.287-.5-2.7v0l0-.016v0q-.21-1.211-.412-2.521l0-.018v0q-.138-.9-.274-1.847a.145.145,0,0,0,.071-.113.161.161,0,0,0-.106-.133q-.12-.848-.239-1.736v-.005l0-.015v0c-.09-.68-.18-1.381-.268-2.1a.151.151,0,0,0,0-.021q-.125-1-.245-2.049h0v-.021q-.081-.7-.161-1.427a.116.116,0,0,0-.009-.075v-.012a.075.075,0,0,0,0-.021v0c-.052-.475-.1-.959-.157-1.449v0a.082.082,0,0,0,0-.022q-.079-.746-.157-1.514v0a.082.082,0,0,0,0-.022v0q-.1-.948-.191-1.931v0l0-.019v0c-.058-.611-.118-1.233-.176-1.866v0l0-.021q-.076-.823-.152-1.673a.114.114,0,0,0-.006-.063q-.074-.823-.147-1.671v0l0-.021c-.049-.575-.1-1.157-.149-1.75v0l0-.022q-.069-.837-.139-1.7h0v-.01l0,0-.1-1.221v-.005l0-.02h0q-.067-.858-.136-1.742l.072-.238c.834-.331,1.41-.865,1.41-1.6v-.7c0-.213-.363-.373-.93-.485v-1.069h.864c.149,0,.269-.074.269-.167v-.78c0-.092-.12-.167-.269-.167a2.758,2.758,0,0,1-2.143-.959,4.078,4.078,0,0,1-.812-2.705v0a.776.776,0,0,0-.164-.476.749.749,0,0,0-1.135,0,.765.765,0,0,0-.166.476v0a4.067,4.067,0,0,1-.812,2.705,2.758,2.758,0,0,1-2.143.959c-.149,0-.269.075-.269.167v.78c0,.093.12.167.269.167h.864v1.067c-.567.112-.929.273-.929.487v.7c0,.742.576,1.277,1.411,1.607l.069.23q-.119,1.524-.236,2.979a.1.1,0,0,0-.005.03l0,.014q-.22,2.7-.441,5.17a.085.085,0,0,0,0,.023v0c-.57,6.378-1.155,11.664-1.788,16.111a.117.117,0,0,0-.02.062.1.1,0,0,0,.006.033,99.635,99.635,0,0,1-2.406,12.286h-1.976c-.149,0-.27.075-.27.168v.352h0v0h0v0h0v0h0V439h0v0h0v0h0v0h0v.006h0v0h0v0h0l0,0h0v0l1.239,2.611c-.17.482-.343.946-.519,1.4a.109.109,0,0,0-.01.025,33.317,33.317,0,0,1-4.969,8.606l0,0-.01.012q-.489.633-1.012,1.269h-1.429c-.149,0-.27.074-.27.167v1.894h0v1.852l-1.8,1.861a.161.161,0,0,0-.025.027l-.617.639a.181.181,0,0,0-.024.024l-3.334,3.451a.217.217,0,0,0-.026.027l-2.476,2.563a.157.157,0,0,0-.022.023l-2.732,2.828a.129.129,0,0,0-.051.1v3.32h54.9V469.3c.031-.463.049-.853.049-.889A.128.128,0,0,0,270.534,468.32Zm-32.1-16.514.008-.023v0c.349-.958.668-1.918.959-2.927h0l0,0,0-.009v0c.276-.957.527-1.958.757-3.042v0l0-.017q.07-.332.138-.674h5.6c.045.227.09.45.137.67a.157.157,0,0,0,0,.027c.23,1.082.48,2.081.756,3.037v0l.007.021c.291,1.007.609,1.965.957,2.922a.121.121,0,0,0,.011.03c.14.383.285.766.435,1.152H238C238.15,452.574,238.294,452.19,238.435,451.806Zm4.672,16.443H228.148a6.741,6.741,0,0,1,.356-.778l0,0,0,0a10.327,10.327,0,0,1,5.456-4.33l.006,0,.006,0c.359-.144.728-.277,1.107-.4.169-.055.34-.109.512-.16h.006l.007,0,.006,0a26.494,26.494,0,0,1,7.45-1.021h.042a26.465,26.465,0,0,1,7.409,1.021l.006,0,.006,0h.006c.173.052.343.105.512.16.379.125.748.258,1.108.4l.006,0,.006,0a10.336,10.336,0,0,1,5.456,4.33l0,0,0,0a6.418,6.418,0,0,1,.356.778Z" transform="translate(-212.528 1642.127)" fill="#b49178"/>
      </g>
    </g>
    <g id="リピートグリッド_36" data-name="リピートグリッド 36" transform="translate(96.416 1947)" clip-path="url(#clip-path-2)">
      <g id="グループ_630" data-name="グループ 630" transform="translate(1208.584 2770)">
        <path id="パス_274" data-name="パス 274" d="M1314.624,293.371s26.742,8.461,35.872,8.461,21.384-16.878,21.384-16.878l8.293,2.485s-15.322,25.7-29.677,28.6-34.571-5.8-34.571-5.8Z" transform="translate(-2442.888 -2986.129)" fill="#fc7575"/>
        <path id="パス_275" data-name="パス 275" d="M1313.432,314.087c-2.452-9.805-13.238-17.159-28.436-17.159-.152,0-.3,0-.454,0-12,.138-19.381,12.562-18.359,24.522l12.043,60.077s5.677,4.7,24.141,6.662C1296.631,354.051,1314.934,320.1,1313.432,314.087Z" transform="translate(-2423.488 -2990.915)" fill="#ffda88"/>
        <path id="パス_277" data-name="パス 277" d="M1305.335,723.189c0-3.09,3.764-35.219,6.508-58.229-5.974-.536-12.915-.891-17.643.36q-.492.13-1.048.229c1.737,16.132,6.976,55.85,6.976,55.85l-3.261,9.979,25.494,3.07S1305.335,728.051,1305.335,723.189Z" transform="translate(-2434.305 -3137.831)" fill="#fd5e5a"/>
        <path id="パス_278" data-name="パス 278" d="M1330.475,778.169a87.234,87.234,0,0,1-9.484-4.321l-7.544,2.27Z" transform="translate(-2442.417 -3181.552)" fill="#2e56af"/>
        <path id="パス_279" data-name="パス 279" d="M1299.343,775.931l25.494,3.07-.319.3-25.175-1.984Z" transform="translate(-2436.779 -3182.385)" fill="#2e56af"/>
        <path id="パス_280" data-name="パス 280" d="M1257.049,718.655l-3.225,10.746s4.448,6.141,10.673,6.141l-2.372-16.887s2.751-34.443,4.157-55.223c-6.47-.586-13.9-2.333-18.516-4.545C1250.406,674.24,1258.918,717.042,1257.049,718.655Z" transform="translate(-2416.163 -3135.599)" fill="#fd5e5a"/>
        <path id="パス_281" data-name="パス 281" d="M1292.235,651.213c0,.848.206,3.121.551,6.325.37-.067.72-.142,1.047-.229,4.728-1.25,11.669-.9,17.643-.36.433-3.635.84-7.027,1.2-10.056q-9.387-.929-18.662-2.462A17.169,17.169,0,0,0,1292.235,651.213Z" transform="translate(-2433.938 -3129.821)" fill="#e24242"/>
        <path id="パス_282" data-name="パス 282" d="M1249.465,635.81s-2.964,4.606-2.964,8.444c0,.585.285,2.459.76,5.222,4.619,2.213,12.046,3.959,18.515,4.545.484-7.14.809-12.666.809-14.629,0-.07,0-.158.008-.246q-8.645-1.687-17.128-3.8Z" transform="translate(-2415.657 -3126.188)" fill="#e24242"/>
        <path id="パス_283" data-name="パス 283" d="M1243.405,431.751s-45.986,58.2-62.587,112.7c0,0,21.641,13.049,26.977,13.049s6.818-2.047,8.894,2.815,24.308,9.211,32.609,7.164,23.419.519,28.162.519-8.772-129.632-10.058-133.259Z" transform="translate(-2389.402 -3044.807)" fill="#ffcb57"/>
        <path id="パス_284" data-name="パス 284" d="M1268.531,780.6l-.756-5.385-1.986,1.516-7.077-5.114-.854,2.843S1262.305,780.6,1268.531,780.6Z" transform="translate(-2420.197 -3180.662)" fill="#2e56af"/>
        <path id="パス_285" data-name="パス 285" d="M1325.684,358.217c-.5-.176-.058-.281-.058-.281s8.735,3.664,9.04,2.124c.225-1.138-5.531-2.394-9.376-4.68-.335-.2-.429-.69-.071-.754,2.065-.37,5.092-1.057,3.528-1.694-2.283-.932-7.478,1.9-9.207,1.193-1.253-.512-30.727-7.847-32.629-9.748-6.463-6.464-.184-40.589-4.716-45.121s-20.912,1.812-18.667,15.028c1.607,9.459,12.671,36.223,12.671,36.223,1.934,5.527,39.643,11.183,39.643,11.183s15.775,5.841,15.963,4.886c.121-.615-4.514-2.127-5.765-3.131-.235-.188-.109-.558.157-.467,2.517.86,7.639,2.5,8.578,2,1.051-.565-7.407-3.335-9.286-4.146-.366-.158-.143-.534-.143-.534s10.288,3.77,11.08,3.135C1337.671,362.435,1328.309,359.136,1325.684,358.217Z" transform="translate(-2422.38 -2991.264)" fill="#e18767"/>
        <path id="パス_286" data-name="パス 286" d="M1283.382,302.1a5.583,5.583,0,0,0-1.186-2.722l-.008-.008c-2.1-2.083-7.256-1.487-12.189,1.068-3.922,2.515-7.074,6.833-6.64,12.585a34.547,34.547,0,0,0,6.683-4.384l.307,2.148c3.263-.086-.216,1.247,8.332-2.138C1280.621,307.884,1283.556,303.074,1283.382,302.1Z" transform="translate(-2422.38 -2991.387)" fill="#e18767"/>
        <path id="パス_287" data-name="パス 287" d="M1279.661,232.484s-.017-.3-.035-.821c-.1-2.855-.215-12.316,2.336-14.868,3.016-3.016,11.59-4.9,14.367-4.9s11.492,8.143,11.492,8.143Z" transform="translate(-2428.882 -2956.924)" fill="#f9b406"/>
        <path id="パス_288" data-name="パス 288" d="M1276.29,244.982s-.372.2-1.026.514c-3.751,1.826-16.765,7.681-21.887,3.7-6.014-4.671-2.486-17.326,22.066-27.571s45.576-13.86,49.386-8.437-3.324,11.368-12.185,16.216S1276.29,244.982,1276.29,244.982Z" transform="translate(-2417.383 -2956.44)" fill="#fb8603"/>
        <path id="パス_289" data-name="パス 289" d="M1300.324,244.145s-.137.072-.377.189c-1.378.67-5.482,3.155-7.364,1.694-2.208-1.714.7-9.87,7.429-12.747,9.824-4.2,16.753-.669,17.653,1.592.43,1.082-.737,3.536-3.991,5.317S1300.324,244.145,1300.324,244.145Z" transform="translate(-2433.786 -2964.691)" fill="#f57408"/>
        <path id="パス_291" data-name="パス 291" d="M1276.338,267.7s-7.126-6.152-10.307-4.259-.322,4.313-2.515,5.18-3.118-3.711-5.311-2.844-.211,3.952-4.925,5.818-6.4-3.362-6.4-3.362l-1.387,8.031s5.966,3.218,10.463.8c0,0-5.923,2.979-10.038,2.832s-3.263-.23-3.263-.23,2.094,5.449,5.538,6.939.913,1.668,2.633,4.411,5.491,1.377,5.192,5.427c0,0,6.376-4.236,9.059-10.434,0,0,1.134,7.033-.907,8.6l5.372-2.127c6.468-2.56,8.923-8.858,7.2-15.783S1276.338,267.7,1276.338,267.7Z" transform="translate(-2414.089 -2977.385)" fill="#111f59"/>
        <path id="パス_292" data-name="パス 292" d="M1293.073,263.694c-.062,1.081.472,3.767,2.594,3.767s2.118-.966,1.589-3.187S1293.244,260.741,1293.073,263.694Z" transform="translate(-2434.271 -2976.945)" fill="#f9b406"/>
        <path id="パス_293" data-name="パス 293" d="M1298.428,264.751s-2.878,13.308-1.2,20.021,9.652,6.775,11.51,4.916-1.079-8.633,0-15.586S1298.428,264.751,1298.428,264.751Z" transform="translate(-2435.724 -2978.053)" fill="#e18767"/>
        <path id="パス_294" data-name="パス 294" d="M1299.418,264.75s-.095.438-.239,1.194c1,3.342,4.037,8.777,7.273,10.8.847.529,1.946-.58,3.112-1.247.039-.462.093-.926.165-1.39C1310.808,267.148,1299.418,264.75,1299.418,264.75Z" transform="translate(-2436.714 -2978.052)" fill="#e18767"/>
        <path id="パス_295" data-name="パス 295" d="M1313.912,231.521s-7.533-.806-10.258,1.918-2.81,6.354-4.369,9.831a11.263,11.263,0,0,0,0,9.442,18.29,18.29,0,0,0,6.794,8.063c3.086,1.816,9.512-5.635,10.35-9.352s-.839-2.878.959-8.153S1318.348,233.8,1313.912,231.521Z" transform="translate(-2436.341 -2964.725)" fill="#fc7575"/>
        <path id="パス_296" data-name="パス 296" d="M1313.912,231.521s-7.533-.806-10.258,1.918-2.81,6.354-4.369,9.831a11.263,11.263,0,0,0,0,9.442,18.29,18.29,0,0,0,6.794,8.063c3.086,1.816,9.512-5.635,10.35-9.352s-.839-2.878.959-8.153S1318.348,233.8,1313.912,231.521Z" transform="translate(-2436.341 -2964.725)" fill="#e18767"/>
        <path id="パス_300" data-name="パス 300" d="M1312.86,267.547a8.031,8.031,0,0,0,4.721,1.184l-1.214,1.573S1313.264,270.14,1312.86,267.547Z" transform="translate(-2442.182 -2979.17)" fill="#fff"/>
        <path id="パス_303" data-name="パス 303" d="M1311.231,231.392s-6.511,6.766-9.8,8.7-3.933.061-5.87.061,1.471,7.183,1.276,9.476-.716,2.856-.716,2.856-4.585-4.164-4.585-8.4,2.982-7.885,5.76-9.617C1305.023,229.656,1311.231,231.392,1311.231,231.392Z" transform="translate(-2433.66 -2964.596)" fill="#111f59"/>
        <path id="パス_304" data-name="パス 304" d="M1294.776,246.081s-.3,6.474,2.339,6.474,2.833-6.114,1.746-8.332S1294.654,243.264,1294.776,246.081Z" transform="translate(-2434.95 -2969.394)" fill="#e18767"/>
        <path id="パス_305" data-name="パス 305" d="M1299.292,248.977s.125-2.635-1.354-1.87-1.472,4.735-.219,5.665S1299.292,248.977,1299.292,248.977Z" transform="translate(-2435.764 -2970.944)" fill="#e18767"/>
        <path id="パス_306" data-name="パス 306" d="M1333.65,455s-7.776-1.121-8.74-2.268c-1.113-1.324-2.736-3.321-4.557-5.76a15.557,15.557,0,0,0-7.011,5.491l.257.269c5.219,5.422,9.169,9.178,9.169,9.178l12.766,5.35Z" transform="translate(-2442.375 -3050.892)" fill="#fc7575"/>
        <path id="パス_307" data-name="パス 307" d="M1336.731,648.734c11.872,0,13.376-14.107,13.376-14.107l-10.278-69.859-11.094-83.49,3.133-24.709h61.057l.435,21.773.869,84.834-12.8,69.859s1.5,14.107,13.376,14.107,11.581,4.343,11.581,4.343h-34.744s2.027-15.635,2.027-17.083,2.172-76.872,2.172-76.872l-13.174-68.765-5.153,72.178s.351,73.6.351,75.051,2.027,17.083,2.027,17.083H1325.15S1324.86,648.734,1336.731,648.734Z" transform="translate(-2447.095 -3054.727)" fill="#363a68"/>
        <path id="パス_308" data-name="パス 308" d="M1496.559,199.848a51.724,51.724,0,0,1,.324,5.8c0,9.346-6.331,29.847-26.53,40.7s-50.9,6.38-50.9,6.38l12.78,26.7s54.088-15.625,70.978-43.082c6.2-10.074,5.787-25.885,4.426-37.088C1503.947,198.944,1500.253,198.345,1496.559,199.848Z" transform="translate(-2484.792 -2951.719)" fill="#9b3a6f"/>
        <path id="パス_309" data-name="パス 309" d="M1544.424,182.03a36.856,36.856,0,0,1,2.088,9.278c3.694-1.5,7.388-.9,11.081-.591a119.638,119.638,0,0,0-2.315-13.21Z" transform="translate(-2534.745 -2943.179)" fill="#e24242"/>
        <path id="パス_310" data-name="パス 310" d="M1525.345,173.769l-3.166,22.158,25.776-1.131,1.583-14.923Z" transform="translate(-2525.853 -2941.684)" fill="#1b1464"/>
        <path id="パス_311" data-name="パス 311" d="M1545.18,170.823c-.344.212-8.294,5.991-7.507,8.28s7.361-3.556,7.361-3.556-5.988,5.2-5.559,6.272,4.989-.842,6.42-2.273a37.273,37.273,0,0,1,3.575-3s-6.082,5.153-5.332,5.9,4.153-1.15,6.762-3.76c0,0-3.235,3.524-1.787,3.933s4.933-5.434,4.933-5.434.751-1.323-1-3.075-.428-1.716-2.86-2.931S1546.248,170.163,1545.18,170.823Z" transform="translate(-2532.024 -2940.297)" fill="#e18767"/>
        <path id="パス_312" data-name="パス 312" d="M1370.137,293.525c-6.639-6.639-15.75-11.964-32.688-9.408,0,0-17.047-.809-36.047,18.191s-28.447,38-29.533,49.294c-.717,7.459,14.482,27.114,24.884,37.943,1.807-2.449,4.131-6.847,7.011-7.931-4.887-6.547-11.21-16.308-13-25.017-3.04-14.767,19.109-31.487,19.109-31.487l.019,64.759,63.106.645,1.031-58.067S1376.776,300.163,1370.137,293.525Z" transform="translate(-2425.788 -2985.533)" fill="#d15097"/>
        <g id="グループ_628" data-name="グループ 628" transform="translate(-1100.905 -2765.152)">
          <path id="パス_313" data-name="パス 313" d="M1392.282,252.935s.175,12.66,1.533,19.107a5.2,5.2,0,0,1-3.138,5.966,13.064,13.064,0,0,1-6.99.582c-7.568-1.282-7.825-8.851-7.825-8.851l2.552-23.085Z" transform="translate(-1366.461 -205.667)" fill="#e18767"/>
          <path id="パス_314" data-name="パス 314" d="M1379.639,246.654l13.867,6.281s.064,4.673.42,9.787c-3.619.159-8.165-1.667-12.991-7.176q-1.075-1.228-2.01-2.434Z" transform="translate(-1367.686 -205.667)" fill="#e18767"/>
          <path id="パス_315" data-name="パス 315" d="M1388.2,227.446c2.645.936,6.348.573,8.378.263-.261-2.058-.595-3.675-.595-3.675l2.181-1.282s-1.795-4.362-3.848-10.391a22.228,22.228,0,0,0-6.8-9.621c-3.848-2.181-18.985,3.72-20.652,7.953s-.834,12.891,8.98,22.705,18.472,6.285,20.524,1.924c.58-1.234.589-3.487.413-5.659C1391.229,229.912,1388.2,227.446,1388.2,227.446Z" transform="translate(-1362.592 -187.926)" fill="#e18767"/>
          <path id="パス_316" data-name="パス 316" d="M1370.372,202.68a12.806,12.806,0,0,1,10.647-2.052c6.286,1.54,8.4-.833,7.183-2.052,0,0,5.516.128,7.568-4.361s1.54-18.087-8.209-15.522-7.781,8.723-7.781,8.723-3.123-2.95-6.073-1.411-2.565,3.72-2.565,3.72-2.694,5-6.414,5.644-3.335,8.081-3.335,8.081-2.18,1.54-.642,6.928,10.6,13.725,10.6,16.291c0,0,2.232-3.336.436-8.594s-1.8-8.338.128-8.338S1370.372,202.68,1370.372,202.68Z" transform="translate(-1360.201 -178.373)" fill="#0b1742"/>
          <path id="パス_317" data-name="パス 317" d="M1378.816,233.469s-.626-4.425-2.021-4.425-2.693.481-2.357,2.983,1.78,5.291,3.607,4.136A1.85,1.85,0,0,0,1378.816,233.469Z" transform="translate(-1365.871 -198.627)" fill="#e18767"/>
          <g id="グループ_626" data-name="グループ 626" transform="translate(25.605 39.52)">
            <path id="パス_320" data-name="パス 320" d="M1402.857,244.21c2.7,1.013,6.6.5,8.368.187.082.642.159,1.328.214,2.024C1405.88,246.861,1402.857,244.21,1402.857,244.21Z" transform="translate(-1402.857 -244.21)" fill="#fff"/>
          </g>
        </g>
        <g id="グループ_629" data-name="グループ 629" transform="translate(-1174.319 -2585.499)">
          <path id="パス_323" data-name="パス 323" d="M1298.436,508.449c-.115.651-10.759,62.791,4.961,88.9Z" transform="translate(-1260.647 -489.967)" fill="#ffdb92"/>
          <path id="パス_324" data-name="パス 324" d="M1238.2,576.393l27.3-98.734C1265.2,478.019,1234.563,514.194,1238.2,576.393Z" transform="translate(-1237.9 -477.659)" fill="#ffdb92"/>
        </g>
        <path id="パス_325" data-name="パス 325" d="M1407.259,283.6s5.672-3.142,10.1.148c2.2,1.636,2.109,9.47,1.1,10.218s-1.526-6.439-1.526-6.439.418,5.741-.593,6.494-.932-1.959-1.525-4.667l-.594-2.708s.508,9.133-.762,9.133-1.695-8.313-1.695-8.313-.373,7.494-1.5,7.494-1.68-9.2-1.68-10.162C1408.584,284.3,1407.259,283.6,1407.259,283.6Z" transform="translate(-2479.916 -2985.046)" fill="#e18767"/>
        <path id="パス_326" data-name="パス 326" d="M1343,390.987c-.5-.176-.057-.281-.057-.281s8.734,3.663,9.039,2.124c.225-1.138-5.531-2.395-9.376-4.68-.336-.2-.429-.69-.071-.754,2.065-.37,5.092-1.057,3.528-1.694-2.283-.932-7.478,1.9-9.207,1.193-.9-.367-16.332-4.248-25.679-7.113-1.373,3.43-3.186,6.36-4.534,9.392,11.557,3.042,26.515,5.287,26.515,5.287s15.775,5.841,15.963,4.886c.121-.615-4.514-2.127-5.765-3.131-.235-.188-.109-.558.157-.467,2.517.86,7.639,2.5,8.578,2,1.051-.565-7.407-3.335-9.286-4.146-.366-.158-.143-.534-.143-.534s10.288,3.77,11.08,3.135C1354.991,395.205,1345.629,391.906,1343,390.987Z" transform="translate(-2439.699 -3024.034)" fill="#e18767"/>
      </g>
    </g>
  </g>
</svg>
