<svg xmlns="http://www.w3.org/2000/svg" xmlns:xlink="http://www.w3.org/1999/xlink" width="351" height="150.148" viewBox="0 0 351 150.148">
  <defs>
    <clipPath id="clip-path">
      <rect width="120.5" height="137.402" fill="none"/>
    </clipPath>
    <filter id="長方形_133" x="264" y="15" width="80" height="80" filterUnits="userSpaceOnUse">
      <feOffset dx="5" dy="5" input="SourceAlpha"/>
      <feGaussianBlur result="blur"/>
      <feFlood flood-opacity="0.161"/>
      <feComposite operator="in" in2="blur"/>
      <feComposite in="SourceGraphic"/>
    </filter>
    <clipPath id="clip-path-2">
      <rect width="49.622" height="70.942" fill="none"/>
    </clipPath>
    <filter id="長方形_134" x="191" y="105" width="154" height="32" filterUnits="userSpaceOnUse">
      <feOffset dx="5" dy="5" input="SourceAlpha"/>
      <feGaussianBlur result="blur-2"/>
      <feFlood flood-opacity="0.161"/>
      <feComposite operator="in" in2="blur-2"/>
      <feComposite in="SourceGraphic"/>
    </filter>
  </defs>
  <g id="グループ_621" data-name="グループ 621" transform="translate(-12 -1598)">
    <rect id="長方形_44" data-name="長方形 44" width="351" height="150" transform="translate(12 1598)" fill="#efefef"/>
    <g id="リピートグリッド_34" data-name="リピートグリッド 34" transform="translate(34 1610.745)" clip-path="url(#clip-path)">
      <g id="グループ_592" data-name="グループ 592" transform="translate(-272.383 -68.755)">
        <g id="グループ_569" data-name="グループ 569" transform="translate(312.79 68.755)">
          <path id="パス_234" data-name="パス 234" d="M330.027,111.152c8.675-3.183,15.389-10.484,14.653-19.916-.664-8.53-5.623-16.665-13.524-20.277a22.728,22.728,0,0,0-8.92-2.2c-12.97-.263-19.809,14.479-21.179,25.647-.725,5.9,3.876,8.559,8.075,11.706C315.279,110.718,322.319,113.982,330.027,111.152Z" transform="translate(-300.981 -68.755)" fill="#393762"/>
        </g>
        <g id="グループ_571" data-name="グループ 571" transform="translate(324.947 72.517)">
          <g id="グループ_570" data-name="グループ 570">
            <path id="パス_235" data-name="パス 235" d="M321.866,109.068l4.343-9.451s3.562,1.026,5.16-.469c.6-.561,1.248-3.6,1.608-7.391.044-.454.082-.917.116-1.387.037-.489,1.979.866,2,.365.051-1.027-1.835-3.926-1.837-4.968-.007-4.8-.629-9.457-2.395-11.237-4.031-4.065-18.364-4.883-20.432,2.05a20.133,20.133,0,0,0,5.317,20.327l-4.039,9.808Z" transform="translate(-309.585 -71.417)" fill="#e48868"/>
          </g>
        </g>
        <g id="グループ_572" data-name="グループ 572" transform="translate(321.781 70.263)">
          <path id="パス_236" data-name="パス 236" d="M336.464,78.083c-7.406,7.825-12.274,18.674-22.581,21.811-1.036-3.9-6.677-12.859-6.535-16.89S308.992,74.8,312.2,72.35a14.1,14.1,0,0,1,8.559-2.528C326.948,69.814,333.293,72.769,336.464,78.083Z" transform="translate(-307.345 -69.822)" fill="#393762"/>
        </g>
        <g id="グループ_591" data-name="グループ 591" transform="translate(272.383 98.495)">
          <g id="グループ_573" data-name="グループ 573" transform="translate(99.4 192.239)">
            <path id="パス_237" data-name="パス 237" d="M348.1,225.863l3.772,11.364s11.628.7,11.957,1.5L347.1,243.308l-4.369-15.976Z" transform="translate(-342.734 -225.863)" fill="#393762"/>
          </g>
          <g id="グループ_574" data-name="グループ 574" transform="translate(0 191.15)">
            <path id="パス_238" data-name="パス 238" d="M288.918,244.6h-9.584l-6.951-5.371,8.623-14.141,4.755,2.9-5.678,10.543,1.768,4.216Z" transform="translate(-272.383 -225.092)" fill="#393762"/>
          </g>
          <g id="グループ_575" data-name="グループ 575" transform="translate(4.593 87.403)">
            <path id="パス_239" data-name="パス 239" d="M351.819,209.428l20.814,56.563,5.939-1.171L368.32,204.857h0L351.3,151.664H307.912l-7.685,54.075h0l-24.594,56.28,4.978,3.358,32.536-49.923,2.469-5.879,15.374-34.209Z" transform="translate(-275.633 -151.664)" fill="#393762"/>
          </g>
          <g id="グループ_576" data-name="グループ 576" transform="translate(33.705 1.594)">
            <path id="パス_240" data-name="パス 240" d="M316.688,90.932s8.894,2.792,13.363,7.928,11.679,20,11.839,21.665-5.24,19.744-5.24,19.744L347.658,182.3s-34.28,5.307-51.42,0l8.971-33.315s-2.2-13.659-2.724-15.8c-1.529-6.2,1.122-15.695,2.244-22.215s6.246-13.95,8.008-15.466A32.791,32.791,0,0,0,316.688,90.932Z" transform="translate(-296.238 -90.932)" fill="#efc33b"/>
          </g>
          <g id="グループ_577" data-name="グループ 577" transform="translate(27.829 61.221)">
            <path id="パス_241" data-name="パス 241" d="M292.079,143.655l59.334-10.521,5.146,32.9-60.228,9.1Z" transform="translate(-292.079 -133.133)" fill="#ece0d3"/>
          </g>
          <g id="グループ_582" data-name="グループ 582" transform="translate(69.604 23.296)">
            <g id="グループ_578" data-name="グループ 578" transform="translate(1.717 7.277)">
              <path id="パス_242" data-name="パス 242" d="M322.861,125.82l2.224,8.784s19.481-7.289,20.651-7.713c0,0,3.45-2.723,4.145-3.245s2.87-5.913,3.043-6.436-4-.783-4-.783a28.665,28.665,0,0,0-.336-3.414c-.117-.451-1.071-2.471-1.5-1.1l-.928,3.986-1.324,1.313c-.685.948-1.478,4.958-1.478,4.958Z" transform="translate(-322.861 -111.442)" fill="#e48868"/>
            </g>
            <g id="グループ_579" data-name="グループ 579" transform="translate(26.373)">
              <path id="パス_243" data-name="パス 243" d="M340.312,123.738l2.625-9.707,2.174-7.74,2.783,1.044-5.146,16.653Z" transform="translate(-340.312 -106.292)" fill="#2183d6"/>
            </g>
            <g id="グループ_580" data-name="グループ 580" transform="translate(0 16.803)">
              <path id="パス_244" data-name="パス 244" d="M321.646,122.776s2.353-6.645,6.778-3.948a6.658,6.658,0,0,0,7.959-.644l7.479,1.2,2.377,4.723-22.7,9.571Z" transform="translate(-321.646 -118.184)" fill="#efc33b"/>
            </g>
            <g id="グループ_581" data-name="グループ 581" transform="translate(29.436 8.828)">
              <path id="パス_245" data-name="パス 245" d="M344.824,116.756c.482-1.1-.589-4.509-1.017-4.2s-.6,2.088-.6,2.088l.41,1.05s-.7-.254-.739-.006-.285,1.428-.285,1.428l-.113,2.258Z" transform="translate(-342.48 -112.54)" fill="#e48868"/>
            </g>
          </g>
          <g id="グループ_583" data-name="グループ 583" transform="translate(32.081)">
            <path id="パス_246" data-name="パス 246" d="M320.076,92.5c-4.124-2.751-18.544-3.251-20.258-2.145s2.285,4.6,1.857,6.925-8.853,5.339-6,10.4,11.279,11.055,11.279,11.055Z" transform="translate(-295.088 -89.803)" fill="#efc33b"/>
          </g>
          <g id="グループ_584" data-name="グループ 584" transform="translate(60.796 98.54)">
            <path id="パス_247" data-name="パス 247" d="M315.84,167.862a.428.428,0,0,1-.36-.66l4.8-7.46a.429.429,0,0,1,.721.466l-4.8,7.459A.426.426,0,0,1,315.84,167.862Z" transform="translate(-315.412 -159.546)" fill="#49478a"/>
          </g>
          <g id="グループ_586" data-name="グループ 586" transform="translate(68.946 80.127)">
            <g id="グループ_585" data-name="グループ 585">
              <path id="パス_248" data-name="パス 248" d="M330.134,155.429c-1.419-.28-2.335-3.476-2.621-5.451-1.862-.408-4.507-2.9-6.333-3.464,3.1,10.183,3.3,15.519,3.907,16.685,1.347,2.584,2.2,3.946,3.876,2.417s3.026,1.522,4.184,0,3.192,1.7,3.726-.381-2.82-4.962-2.82-4.962S335.58,156.5,330.134,155.429Z" transform="translate(-321.18 -146.514)" fill="#e48868"/>
            </g>
          </g>
          <g id="グループ_587" data-name="グループ 587" transform="translate(48.239 20.653)">
            <path id="パス_249" data-name="パス 249" d="M306.623,106.294c-1.77,6.306,21.059,66.342,21.059,66.342l9.783-2.463s-3.72-13.755-3.128-18.785.535-6.889-3.5-11.244-1.927-21.079-4.661-27.752S307.85,101.92,306.623,106.294Z" transform="translate(-306.525 -104.421)" fill="#efc33b"/>
          </g>
          <g id="グループ_588" data-name="グループ 588" transform="translate(59.973 15.692)">
            <path id="パス_250" data-name="パス 250" d="M324.461,142.452a.427.427,0,0,1-.4-.276c-1.663-4.357-1.361-9.116-1.067-13.716.078-1.225.155-2.444.2-3.657a58.037,58.037,0,0,0-2.167-17.834A9.538,9.538,0,0,0,319.137,103a3.367,3.367,0,0,0-3.695-1,.428.428,0,0,1-.369-.773,4.187,4.187,0,0,1,4.691,1.19,10.257,10.257,0,0,1,2.084,4.316,58.92,58.92,0,0,1,2.2,18.1c-.041,1.218-.12,2.447-.2,3.679-.287,4.51-.583,9.174,1.013,13.358a.427.427,0,0,1-.247.552A.417.417,0,0,1,324.461,142.452Z" transform="translate(-314.829 -100.91)" fill="#e8a12b"/>
          </g>
          <g id="グループ_589" data-name="グループ 589" transform="translate(51.102 35.916)">
            <path id="パス_251" data-name="パス 251" d="M319.813,146.721a.429.429,0,0,1-.4-.277c-1.4-3.7-2.685-6.737-3.927-9.68-2.744-6.494-5.112-12.1-6.927-21.027a.429.429,0,0,1,.841-.171c1.8,8.841,4.038,14.146,6.875,20.864,1.246,2.95,2.533,6,3.939,9.709a.429.429,0,0,1-.25.552A.4.4,0,0,1,319.813,146.721Z" transform="translate(-308.551 -115.224)" fill="#e8a12b"/>
          </g>
          <g id="グループ_590" data-name="グループ 590" transform="translate(40.989 5.683)">
            <path id="パス_252" data-name="パス 252" d="M301.823,112.349a.429.429,0,0,1-.421-.513,31.781,31.781,0,0,1,10.576-17.91.428.428,0,1,1,.552.654,30.925,30.925,0,0,0-10.287,17.425A.429.429,0,0,1,301.823,112.349Z" transform="translate(-301.393 -93.826)" fill="#e8a12b"/>
          </g>
        </g>
      </g>
    </g>
    <path id="合体_6" data-name="合体 6" d="M1659.254,4949v-64.5L1627,4875.512l32.254-12.32V4799h176v150Z" transform="translate(-1472.254 -3201)" fill="#2183d6"/>
    <g id="グループ_617" data-name="グループ 617" transform="translate(4 20)">
      <g transform="matrix(1, 0, 0, 1, 8, 1578)" filter="url(#長方形_133)">
        <rect id="長方形_133-2" data-name="長方形 133" width="75" height="75" rx="11" transform="translate(264 15)" fill="#fff"/>
      </g>
      <g id="リピートグリッド_35" data-name="リピートグリッド 35" transform="translate(285 1597)" clip-path="url(#clip-path-2)">
        <g id="グループ_616" data-name="グループ 616" transform="translate(-204.336 -61.478)">
          <g id="グループ_610" data-name="グループ 610" transform="translate(204.336 61.478)">
            <g id="グループ_609" data-name="グループ 609">
              <g id="グループ_593" data-name="グループ 593" transform="translate(9.218 73.825)">
                <path id="パス_254" data-name="パス 254" d="M227.011,172.468l3.445-16.673,2.183.041,1.467,16.632h13.448c.2-7.381.235-21.361-.025-28.243l-31.891-.853c-.328,5.5-.495,20.676-1.076,29.1Z" transform="translate(-214.562 -143.372)" fill="#393762"/>
              </g>
              <g id="グループ_597" data-name="グループ 597" transform="translate(2.004 97.455)">
                <g id="グループ_596" data-name="グループ 596">
                  <g id="グループ_594" data-name="グループ 594" transform="translate(0 4.372)">
                    <path id="パス_255" data-name="パス 255" d="M213.773,175.528c-1.27,23.542-2.465,53.5-2.465,53.5l-4.75,3.517h7.415l12.249-57.021-6.884-1.094Z" transform="translate(-206.559 -174.435)" fill="#393762"/>
                  </g>
                  <g id="グループ_595" data-name="グループ 595" transform="translate(26.759)">
                    <path id="パス_256" data-name="パス 256" d="M249.691,175.051l-9.937-5.466-3.511,5.466,5.892,57.021h7.414l-4.219-3.207A525.513,525.513,0,0,0,249.691,175.051Z" transform="translate(-236.243 -169.585)" fill="#393762"/>
                  </g>
                </g>
              </g>
              <g id="グループ_598" data-name="グループ 598" transform="translate(24.192 76.812)">
                <path id="パス_257" data-name="パス 257" d="M233.3,154.147a.274.274,0,0,1-.264-.2l-1.851-6.915a.273.273,0,0,1,.528-.142l1.851,6.916a.273.273,0,0,1-.264.343Z" transform="translate(-231.173 -146.686)" fill="#49478a"/>
              </g>
              <g id="グループ_599" data-name="グループ 599" transform="translate(0 35.061)">
                <path id="パス_258" data-name="パス 258" d="M211.23,100.371c-2.17,2.55-6.269,13.716-6.269,15.649s-2.093,20.22,1.378,20.569,6-4.451,6-4.451Z" transform="translate(-204.336 -100.371)" fill="#ece0d3"/>
              </g>
              <g id="グループ_600" data-name="グループ 600" transform="translate(4.211 22.253)">
                <path id="パス_259" data-name="パス 259" d="M247.544,100.578l-2.186,39.543-30.267-2.386-4.062,2.594c-1.673-9.684-2.865-21.173-1.271-31.192.506-3.182,2.06-10.775,2.694-13.961.343-1.72,14.268-9.159,16.8-9.009s3.7-.2,7.62.693c4.424,1.012,12.187,5.318,13.826,7.313s4.2,28.483,3.639,31.015c-1.362,6.175-4.808,17.055-4.808,17.055l-4.175-2.12" transform="translate(-209.007 -86.164)" fill="#dc5955"/>
              </g>
              <g id="グループ_601" data-name="グループ 601" transform="translate(15.751 52.592)">
                <path id="パス_260" data-name="パス 260" d="M222.082,131.921a.274.274,0,0,1-.129-.515,42.56,42.56,0,0,0,13.508-11.484.279.279,0,0,1,.384-.05.274.274,0,0,1,.05.384,43.117,43.117,0,0,1-13.684,11.632A.274.274,0,0,1,222.082,131.921Z" transform="translate(-221.809 -119.818)" fill="#c74749"/>
              </g>
              <g id="グループ_602" data-name="グループ 602" transform="translate(24.946 54.29)">
                <path id="パス_261" data-name="パス 261" d="M232.282,135.674a.273.273,0,0,1-.215-.441c3.524-4.524,6.041-8.334,7.7-13.343a.274.274,0,0,1,.519.172c-1.688,5.083-4.232,8.938-7.792,13.507A.271.271,0,0,1,232.282,135.674Z" transform="translate(-232.009 -121.702)" fill="#c74749"/>
              </g>
              <g id="グループ_603" data-name="グループ 603" transform="translate(10.9 30.192)">
                <path id="パス_262" data-name="パス 262" d="M216.7,136.329h-.022a.274.274,0,0,1-.252-.293c.365-4.875.8-9.538,1.229-14.047.318-3.379.648-6.873.95-10.491.364-4.364.436-12.67-1.608-16.115a.273.273,0,0,1,.47-.279c2.115,3.563,2.053,12.009,1.683,16.439-.3,3.621-.632,7.116-.95,10.5-.425,4.507-.864,9.167-1.227,14.037A.275.275,0,0,1,216.7,136.329Z" transform="translate(-216.427 -94.97)" fill="#c74749"/>
              </g>
              <g id="グループ_604" data-name="グループ 604" transform="translate(22.189 16.441)">
                <path id="パス_263" data-name="パス 263" d="M228.95,79.716V86.1s5.155,5.463,9.89.127l-.414-6.508Z" transform="translate(-228.95 -79.716)" fill="#e48868"/>
              </g>
              <g id="グループ_605" data-name="グループ 605" transform="translate(19.094 1.607)">
                <path id="パス_264" data-name="パス 264" d="M241.224,73.622a1.768,1.768,0,0,0-.524-.15c.73-4.652.417-10.433-7.2-10.206-4.545.135-5.9,4.3-6.189,8.663a1.338,1.338,0,0,0-1.032-.033c-1.569.471-.48,4.429,1.147,5.036.6,3.984,2.708,6.537,5.722,6.762,2.786.209,4.963-1.956,6.276-5.223C241.119,78.094,242.723,74.294,241.224,73.622Z" transform="translate(-225.517 -63.26)" fill="#e48868"/>
              </g>
              <g id="グループ_606" data-name="グループ 606" transform="translate(22.61 19.711)">
                <path id="パス_265" data-name="パス 265" d="M233.894,85.961c-.126,0-.255,0-.383-.014a5.655,5.655,0,0,1-4.031-2.157.273.273,0,1,1,.424-.345,5.119,5.119,0,0,0,3.648,1.957,4.856,4.856,0,0,0,4.034-1.769.273.273,0,0,1,.4.37A5.518,5.518,0,0,1,233.894,85.961Z" transform="translate(-229.418 -83.343)" fill="#ba745d"/>
              </g>
              <g id="グループ_607" data-name="グループ 607" transform="translate(6.233 73.825)">
                <path id="パス_266" data-name="パス 266" d="M211.25,145.966s4.147,8.084,5.583,4.4-1.521-6.993-1.521-6.993h0Z" transform="translate(-211.25 -143.372)" fill="#e48868"/>
              </g>
              <g id="グループ_608" data-name="グループ 608" transform="translate(19.822)">
                <path id="パス_267" data-name="パス 267" d="M227.391,71.754l.968,1.555h1.028V70.64a5.423,5.423,0,0,0,1.432-2.809l7.763.554s-.248,1.913.367,2.665v3.075h.956l.875-.828s1.883-6.824,1.119-8.532a1.814,1.814,0,0,0-2.336-1.093s-2.557-3.006-6.129-1.981-6.442,3.211-6.989,4.714S227.391,71.754,227.391,71.754Z" transform="translate(-226.325 -61.478)" fill="#464473"/>
              </g>
            </g>
          </g>
          <g id="グループ_611" data-name="グループ 611" transform="translate(242.295 137.689)">
            <path id="パス_268" data-name="パス 268" d="M249.046,146.019s-4.052,4.533-2.044,7.334,6.219-5.214,6.219-5.214A33.736,33.736,0,0,0,249.046,146.019Z" transform="translate(-246.444 -146.019)" fill="#e48868"/>
          </g>
          <g id="グループ_612" data-name="グループ 612" transform="translate(244.214 92.349)">
            <path id="パス_269" data-name="パス 269" d="M249.326,140.52a.273.273,0,0,1-.081-.534c.022-.009.646-.239.816-1.4a3.86,3.86,0,0,0-.527-1.572c-.755-1.621-1.9-4.068.4-6.243,1.845-1.751,1.322-3.943.861-5.878a4.66,4.66,0,0,1-.167-2.86c.473-.984.535-10.088.58-16.736.036-5.381.066-8.712.209-9.357a.273.273,0,0,1,.534.118c-.138.622-.166,4.809-.2,9.243-.06,8.995-.146,15.956-.635,16.969a4.459,4.459,0,0,0,.207,2.5c.471,1.975,1.057,4.435-1.017,6.4-2.007,1.9-1.048,3.96-.277,5.613a3.861,3.861,0,0,1,.573,1.883c-.223,1.525-1.155,1.834-1.194,1.845A.294.294,0,0,1,249.326,140.52Z" transform="translate(-248.572 -95.723)" fill="#c74749"/>
          </g>
          <g id="グループ_613" data-name="グループ 613" transform="translate(216.6 137.104)">
            <path id="パス_270" data-name="パス 270" d="M219.086,153.309a.274.274,0,0,1-.213-.445,4.922,4.922,0,0,0-.827-7,.274.274,0,0,1,.334-.434,5.471,5.471,0,0,1,.918,7.78A.268.268,0,0,1,219.086,153.309Z" transform="translate(-217.94 -145.37)" fill="#49478a"/>
          </g>
          <g id="グループ_614" data-name="グループ 614" transform="translate(240.677 146.295)">
            <path id="パス_271" data-name="パス 271" d="M244.923,158.31a.273.273,0,0,1-.06-.54,7.3,7.3,0,0,0,3.7-2.118.273.273,0,1,1,.4.373,7.848,7.848,0,0,1-3.978,2.279A.266.266,0,0,1,244.923,158.31Z" transform="translate(-244.65 -155.566)" fill="#49478a"/>
          </g>
          <g id="グループ_615" data-name="グループ 615" transform="translate(216.873 86.228)">
            <path id="パス_272" data-name="パス 272" d="M218.243,91.754c1.388,2.571,1.014,13.411,1.014,13.411v4.391s5.822-11.166,4.237-20.623Z" transform="translate(-218.243 -88.933)" fill="#ece0d3"/>
          </g>
        </g>
      </g>
    </g>
    <path id="check-circle-regular_4_" data-name="check-circle-regular (4)" d="M17.97,8a9.97,9.97,0,1,0,9.97,9.97A9.97,9.97,0,0,0,17.97,8Zm0,1.93a8.04,8.04,0,1,1-8.04,8.04,8.036,8.036,0,0,1,8.04-8.04m5.636,5.237-.906-.913a.482.482,0,0,0-.682,0l-5.682,5.637-2.4-2.423a.482.482,0,0,0-.682,0l-.913.906a.482.482,0,0,0,0,.682l3.649,3.679a.482.482,0,0,0,.682,0L23.6,15.849a.482.482,0,0,0,0-.682Z" transform="translate(194 1608)" fill="#fff"/>
    <g id="グループ_618" data-name="グループ 618" transform="translate(1 23)">
      <line id="線_81" data-name="線 81" x2="57" transform="translate(201.5 1624.5)" fill="none" stroke="#fff" stroke-linecap="round" stroke-width="3"/>
      <line id="線_81-2" data-name="線 81" x2="57" transform="translate(201.5 1637.5)" fill="none" stroke="#fff" stroke-linecap="round" stroke-width="3"/>
      <path id="パス_273" data-name="パス 273" d="M0,0H27.176" transform="translate(201.5 1650.5)" fill="none" stroke="#fff" stroke-linecap="round" stroke-width="3"/>
    </g>
    <g id="グループ_619" data-name="グループ 619" transform="translate(0 20)">
      <g transform="matrix(1, 0, 0, 1, 12, 1578)" filter="url(#長方形_134)">
        <rect id="長方形_134-2" data-name="長方形 134" width="149" height="27" rx="4" transform="translate(191 105)" fill="#fff"/>
      </g>
      <text id="FOLLOW" transform="translate(242 1703)" fill="#2183d6" font-size="16" font-family="Asap-Bold, Asap" font-weight="700" letter-spacing="0.12em"><tspan x="0" y="0">FOLLOW</tspan></text>
    </g>
  </g>
</svg>
