<svg xmlns="http://www.w3.org/2000/svg" xmlns:xlink="http://www.w3.org/1999/xlink" width="351" height="164.065" viewBox="0 0 351 164.065">
  <defs>
    <filter id="合体_5" x="129" y="79.065" width="97.059" height="58" filterUnits="userSpaceOnUse">
      <feOffset dx="5" dy="5" input="SourceAlpha"/>
      <feGaussianBlur result="blur"/>
      <feFlood flood-opacity="0.098"/>
      <feComposite operator="in" in2="blur"/>
      <feComposite in="SourceGraphic"/>
    </filter>
    <filter id="合体_4" x="17" y="93.065" width="97.059" height="58" filterUnits="userSpaceOnUse">
      <feOffset dx="5" dy="5" input="SourceAlpha"/>
      <feGaussianBlur result="blur-2"/>
      <feFlood flood-opacity="0.098"/>
      <feComposite operator="in" in2="blur-2"/>
      <feComposite in="SourceGraphic"/>
    </filter>
    <filter id="合体_3" x="59" y="29.064" width="145.145" height="85" filterUnits="userSpaceOnUse">
      <feOffset dx="5" dy="5" input="SourceAlpha"/>
      <feGaussianBlur result="blur-3"/>
      <feFlood flood-opacity="0.098"/>
      <feComposite operator="in" in2="blur-3"/>
      <feComposite in="SourceGraphic"/>
    </filter>
  </defs>
  <g id="グループ_568" data-name="グループ 568" transform="translate(-12 -1195.935)">
    <rect id="長方形_43" data-name="長方形 43" width="351" height="150" transform="translate(12 1210)" fill="#fff7ba"/>
    <g id="グループ_524" data-name="グループ 524" transform="translate(-5.433 924.633)">
      <g id="グループ_523" data-name="グループ 523" transform="translate(266.409 271.302)">
        <path id="パス_169" data-name="パス 169" d="M277.358,305.42c-1.782,4.442-3.519,7.928-5.375,12.286-4.872,11.426-9.29,16.165-10.251,23.034-.969,6.923,3.626,15.5,5.831,25.541,1.452,6.609.486,20.839.764,27.794l38.009,3.648c.052-7.205,1.285-10.419,3.213-12.452,2.509-2.647,6.194-3.291,9.968-8.143,3.854-4.955,9.12-13.242,12.28-18.459,1.677-2.77,5.192-11.268,5.977-13.376.753-2.021-3.3,2.088-5.078-1.113,2.8-9.674,2.861-7.934.235-17.651,4.019-11.054,4.729-8.315-.235-18.828l-.471-13.65L293.156,300.4Z" transform="translate(-261.599 -265.278)" fill="#ffdba7" fill-rule="evenodd"/>
        <path id="パス_170" data-name="パス 170" d="M325.76,364c1.228-1.939,2.363-3.775,3.309-5.336,1.677-2.77,5.192-11.268,5.977-13.376.753-2.021-3.3,2.088-5.078-1.113,2.8-9.674,2.861-7.934.235-17.651,4.019-11.054,4.729-8.315-.235-18.828l-.471-13.65L290.429,300.4l-12.084,3.837,2.475,3.545c.134,13.278-5.611,19.767-7.656,27.916A54.648,54.648,0,0,0,271.91,348.8c-.124,6.66.7,11.473,3.005,13.906,1.485,1.563,3.488,1.274,5.908,1.326C300.259,364.455,316.868,366,325.76,364Z" transform="translate(-258.872 -265.278)" fill="#eebe69" fill-rule="evenodd"/>
        <g id="グループ_519" data-name="グループ 519" transform="translate(16.306)">
          <path id="パス_171" data-name="パス 171" d="M280.237,271.3l43.707.158a5.435,5.435,0,0,1,5.4,5.44l-.306,84.79a5.434,5.434,0,0,1-5.44,5.4l-43.706-.157a5.436,5.436,0,0,1-5.4-5.441l.3-84.788A5.438,5.438,0,0,1,280.237,271.3Z" transform="translate(-274.492 -271.302)" fill="#8cd8d8" fill-rule="evenodd"/>
          <rect id="長方形_126" data-name="長方形 126" width="68.358" height="45.226" transform="matrix(0.004, -1, 1, 0.004, 4.703, 78.365)" fill="#62aaaa"/>
          <path id="パス_172" data-name="パス 172" d="M279.752,275.262l41.9.151a1.017,1.017,0,0,1,1.011,1.018h0a1.017,1.017,0,0,1-1.018,1.011l-41.9-.15a1.018,1.018,0,0,1-1.011-1.019h0A1.016,1.016,0,0,1,279.752,275.262Z" transform="translate(-273.369 -270.253)" fill="#62aaaa" fill-rule="evenodd"/>
          <path id="長方形_127" data-name="長方形 127" d="M2.134,0h8.145a2.133,2.133,0,0,1,2.133,2.133v10.38a2.134,2.134,0,0,1-2.134,2.134H2.133A2.133,2.133,0,0,1,0,12.513V2.134A2.134,2.134,0,0,1,2.134,0Z" transform="translate(19.939 93.302) rotate(-89.793)" fill="#62aaaa"/>
          <path id="パス_173" data-name="パス 173" d="M296.665,337.953a2.823,2.823,0,1,1-2.833,2.813A2.824,2.824,0,0,1,296.665,337.953Z" transform="translate(-269.371 -253.654)" fill="#d6fbff" fill-rule="evenodd"/>
          <g id="グループ_518" data-name="グループ 518" transform="translate(27.255 0.078)">
            <rect id="長方形_128" data-name="長方形 128" width="68.358" height="22.612" transform="translate(0.062 78.369) rotate(-89.793)" fill="#519898"/>
            <path id="パス_175" data-name="パス 175" d="M296.3,275.322l20.7.075a1.017,1.017,0,0,1,1.011,1.018h0A1.016,1.016,0,0,1,317,277.425l-20.7-.073Z" transform="translate(-295.974 -270.316)" fill="#519898" fill-rule="evenodd"/>
            <path id="パス_176" data-name="パス 176" d="M296.092,335.278l4.624.018A2.706,2.706,0,0,1,303.405,338l-.025,7.014a2.706,2.706,0,0,1-2.709,2.689l-4.624-.016.014-3.736,2.368-2.4-2.35-2.468Z" transform="translate(-296.039 -254.441)" fill="#519898" fill-rule="evenodd"/>
            <path id="パス_177" data-name="パス 177" d="M296.077,337.953a2.823,2.823,0,0,1-.02,5.646Z" transform="translate(-296.037 -253.733)" fill="#ade9f0" fill-rule="evenodd"/>
          </g>
        </g>
        <g id="グループ_520" data-name="グループ 520" transform="translate(41.306 28.712)">
          <path id="パス_178" data-name="パス 178" d="M324.828,352.33a16.683,16.683,0,0,0,4.886-7.211c1.086-3.216,1.236-7.6-1.346-9.639-6.324,1.494-12.592,3.095-18.888,4.7-2.485.635-3.93,4.422-2.073,6.719,1.621,2.007,8.208,1.659,12.674,1.158,2.679-.3,3.369-.224,3.617.983a10.545,10.545,0,0,0,1.129,3.29Zm3.755-17.249-1.232.128-2.076.44-13.5,3.392c-4.346,1.317-10.374,3.319-13.19,1.879-1.638-.837-2.91-1.967-2.627-5.016.219-2.344,1.054-3.946,3.338-4.362,9.922-1.8,18.557-4.421,28.158-7.366,2.578.383,2.745,2.579,3.009,4.577.25,1.89.875,4.9-1.883,6.328Zm-1.625-11.3c1.963-1.454,2.474-2.745,2.223-4.833-.231-1.921-1.024-5.014-2.614-5.965a7.163,7.163,0,0,0-3.1-.734c-2.237.544-5.234,1.606-8.975,2.8-6.616,2.115-14.558,4.767-17.382,6.569-4.471,2.851-3.587,10.034,1.957,9.615,10.45-2.423,18.71-4.685,27.891-7.456Zm-4.229-14.717c-4.881,1.625-7.749,2.1-13.259,3.486-3.95.992-5.729-1.482-6.2-3.7-1.06-5,4.161-7.572,10.007-10.049,3.87-1.639,7.981-3.406,10.985-4.573,4.241-1.649,7.006,6.153,5.6,9.443C328.878,305.956,325.362,307.435,322.728,309.068Z" transform="translate(-294.258 -294.003)" fill="#ffdba7" fill-rule="evenodd"/>
          <path id="パス_179" data-name="パス 179" d="M304.936,336.556c2.072,1.618,8.129,1.281,12.318.812,2.679-.3,3.369-.224,3.617.983a10.934,10.934,0,0,0,1.017,3.084,23.131,23.131,0,0,1,1.773-7.062C317.122,336.379,311.419,337.265,304.936,336.556Z" transform="translate(-291.43 -283.314)" fill="#eebe69" fill-rule="evenodd"/>
          <path id="パス_180" data-name="パス 180" d="M326.647,318.178a4.868,4.868,0,0,0,2.2-3c-2.974,1.491-8.111,2.442-11.259,3.258-4.82,1.25-9.434,2.691-14.933,4.644a24.837,24.837,0,0,1-7.226,1.584,4.424,4.424,0,0,0,3.326.97C309.206,323.211,317.466,320.949,326.647,318.178Z" transform="translate(-293.947 -288.397)" fill="#eebe69" fill-rule="evenodd"/>
          <path id="パス_181" data-name="パス 181" d="M320.674,307.2c2.633-1.633,6.149-3.111,7.128-5.4a4.217,4.217,0,0,0,.237-.755c-6.975,3.861-20.658,10.142-26.024,7.6l.292.7c.979,1.205,2.611,1.965,5.108,1.338C312.925,309.3,315.794,308.827,320.674,307.2Z" transform="translate(-292.204 -292.137)" fill="#eebe69" fill-rule="evenodd"/>
          <path id="パス_182" data-name="パス 182" d="M311.27,307.643c-1.013.527-3.993,2-5.69,1.719-2.447-.41-3.9-4.054-2.312-6a9.545,9.545,0,0,1,5.762-2.772c1.012.029,2.227,1.5,2.776,3.39C312.248,305.5,312.283,307.117,311.27,307.643Z" transform="translate(-292.048 -292.259)" fill="#ffefd9" fill-rule="evenodd"/>
          <path id="パス_183" data-name="パス 183" d="M303.763,322.805c-1.012.526-3.992,2-5.69,1.72-2.446-.412-3.9-4.055-2.311-6a9.531,9.531,0,0,1,5.761-2.771c1.012.028,2.227,1.5,2.776,3.388C304.742,320.664,304.776,322.278,303.763,322.805Z" transform="translate(-294.035 -288.244)" fill="#ffefd9" fill-rule="evenodd"/>
          <path id="パス_184" data-name="パス 184" d="M310.464,331.166c-.884.024-3.457.14-4.5.97a3.1,3.1,0,0,0,.684,4.93,7.379,7.379,0,0,0,4.942-.283c.675-.4.947-1.852.611-3.335C311.93,332.25,311.347,331.143,310.464,331.166Z" transform="translate(-291.404 -284.163)" fill="#ffefd9" fill-rule="evenodd"/>
          <path id="パス_185" data-name="パス 185" d="M329.875,323.759c-3.535,1.853-16.2,4.991-24.009,7.14a51.879,51.879,0,0,1-8.51,1.92c.134.076.271.15.412.223,2.817,1.439,8.845-.563,13.19-1.879l11.073-2.783.694-.176,1.729-.434,2.076-.44,1.232-.128A3.827,3.827,0,0,0,329.875,323.759Z" transform="translate(-293.437 -286.124)" fill="#eebe69" fill-rule="evenodd"/>
          <path id="パス_186" data-name="パス 186" d="M303.157,324.047c-1.132.133-4.428.591-5.67,1.782-1.791,1.719-.938,5.546,1.467,6.258a9.531,9.531,0,0,0,6.321-.952c.822-.593,1-2.5.388-4.365C305.172,325.265,304.292,323.912,303.157,324.047Z" transform="translate(-293.656 -286.051)" fill="#ffefd9" fill-rule="evenodd"/>
        </g>
        <path id="パス_187" data-name="パス 187" d="M277.21,302.331c-1.781,4.442-3.371,8.824-5.227,13.183-4.872,11.426-9.29,16.165-10.251,23.034-.524,3.746.581,7.976,2.054,12.662l14.072-9.987a27.894,27.894,0,0,1,2.164-13.1C283.8,318.52,288.493,305.494,277.21,302.331Z" transform="translate(-261.599 -263.086)" fill="#ffdba7" fill-rule="evenodd"/>
        <path id="パス_188" data-name="パス 188" d="M271.952,342.38l3.164-2.245a27.894,27.894,0,0,1,2.164-13.1c2.641-6.706,5.722-15.076,3.5-20.6-.407,11.994-5.69,18.239-7.633,25.982A44.528,44.528,0,0,0,271.952,342.38Z" transform="translate(-258.858 -261.998)" fill="#eebe69" fill-rule="evenodd"/>
        <path id="パス_189" data-name="パス 189" d="M274.692,302.331c-1.233,3.08-2.378,6.13-3.582,9.165,2.9,2.088,4.143.863,5.106-1.434.785-1.868,1.453-4,2.113-6.017A10.972,10.972,0,0,0,274.692,302.331Z" transform="translate(-259.081 -263.086)" fill="#ffefd9" fill-rule="evenodd"/>
      </g>
      <path id="パス_192" data-name="パス 192" d="M267.2,361.2c13.991,3.049,27.293,5.8,41.423,8.12l-6.734,17.158-40.353.5Z" transform="translate(4.794 23.803)" fill="#fff" fill-rule="evenodd"/>
      <path id="パス_194" data-name="パス 194" d="M265.645,368.772c12.209,2.315,34.012,8.057,48.527,7.981L298.5,408.212H243.433Z" transform="translate(0 25.808)" fill="#f2784a" fill-rule="evenodd"/>
      <path id="パス_196" data-name="パス 196" d="M269.542,364.307a2.172,2.172,0,1,1-2.173,2.172A2.172,2.172,0,0,1,269.542,364.307Z" transform="translate(6.338 24.626)" fill="#f2784a" fill-rule="evenodd"/>
    </g>
    <g transform="matrix(1, 0, 0, 1, 12, 1195.94)" filter="url(#合体_5)">
      <path id="合体_5-2" data-name="合体 5" d="M1635,4852a8,8,0,0,1-8-8v-37a8,8,0,0,1,8-8h65a8,8,0,0,1,8,8v2.114l11.058-1.668L1708,4819.732V4844a8,8,0,0,1-8,8Z" transform="translate(-1498 -4719.94)" fill="#fff"/>
    </g>
    <g id="グループ_567" data-name="グループ 567">
      <g transform="matrix(1, 0, 0, 1, 12, 1195.94)" filter="url(#合体_4)">
        <path id="合体_4-2" data-name="合体 4" d="M1635,4852a8,8,0,0,1-8-8v-37a8,8,0,0,1,8-8h65a8,8,0,0,1,8,8v20.114l11.058-1.668L1708,4837.732V4844a8,8,0,0,1-8,8Z" transform="translate(-1610 -4705.94)" fill="#b7ebb7"/>
      </g>
      <path id="biking-mountain-regular" d="M31.452,7.549a3.774,3.774,0,1,0-3.774-3.774,3.774,3.774,0,0,0,3.774,3.774ZM49.066,27.678h-.409a8.665,8.665,0,0,0-.68-1.643l.289-.289a1.258,1.258,0,0,0,0-1.779l-1.779-1.779a1.258,1.258,0,0,0-1.779,0l-.288.289a8.706,8.706,0,0,0-1.643-.68v-.409a1.258,1.258,0,0,0-1.258-1.258H39a1.258,1.258,0,0,0-1.258,1.258V21.8a8.664,8.664,0,0,0-1.643.68l-.289-.289a1.258,1.258,0,0,0-1.779,0l-1.779,1.779a1.258,1.258,0,0,0,0,1.779l.289.289a8.684,8.684,0,0,0-.681,1.643h-.409a1.258,1.258,0,0,0-1.258,1.258v2.516a1.258,1.258,0,0,0,1.258,1.258h.409a8.665,8.665,0,0,0,.68,1.643l-.289.289a1.258,1.258,0,0,0,0,1.779L34.031,38.2a1.258,1.258,0,0,0,1.779,0l.289-.289a8.723,8.723,0,0,0,1.643.68V39A1.258,1.258,0,0,0,39,40.259h2.516A1.258,1.258,0,0,0,42.775,39v-.409a8.693,8.693,0,0,0,1.643-.68l.289.289a1.258,1.258,0,0,0,1.779,0l1.779-1.779a1.258,1.258,0,0,0,0-1.779l-.289-.289a8.685,8.685,0,0,0,.68-1.643h.409a1.258,1.258,0,0,0,1.258-1.258V28.936A1.258,1.258,0,0,0,49.066,27.678Zm-8.807,7.549a5.032,5.032,0,1,1,5.032-5.032A5.032,5.032,0,0,1,40.259,35.227ZM18.871,27.678h-.409a8.665,8.665,0,0,0-.68-1.643l.289-.289a1.258,1.258,0,0,0,0-1.779l-1.779-1.779a1.258,1.258,0,0,0-1.779,0l-.288.289a8.706,8.706,0,0,0-1.643-.68v-.409a1.258,1.258,0,0,0-1.258-1.258H8.807a1.258,1.258,0,0,0-1.258,1.258V21.8a8.664,8.664,0,0,0-1.643.68l-.289-.289a1.258,1.258,0,0,0-1.779,0L2.059,23.967a1.258,1.258,0,0,0,0,1.779l.289.289a8.685,8.685,0,0,0-.68,1.643H1.258A1.258,1.258,0,0,0,0,28.936v2.516A1.258,1.258,0,0,0,1.258,32.71h.409a8.665,8.665,0,0,0,.68,1.643l-.289.289a1.258,1.258,0,0,0,0,1.779L3.837,38.2a1.258,1.258,0,0,0,1.779,0l.289-.289a8.723,8.723,0,0,0,1.643.68V39a1.258,1.258,0,0,0,1.258,1.258h2.516A1.258,1.258,0,0,0,12.581,39v-.409a8.693,8.693,0,0,0,1.643-.68l.289.289a1.258,1.258,0,0,0,1.779,0l1.779-1.779a1.258,1.258,0,0,0,0-1.779l-.289-.289a8.685,8.685,0,0,0,.68-1.643h.409a1.258,1.258,0,0,0,1.258-1.258V28.936A1.258,1.258,0,0,0,18.871,27.678Zm-8.807,7.549A5.032,5.032,0,1,1,15.1,30.194,5.032,5.032,0,0,1,10.065,35.227ZM31.531,16.57a1.887,1.887,0,0,0,1.179.414h5.032a1.887,1.887,0,1,0,0-3.774H33.372L27.6,8.592a1.887,1.887,0,0,0-2.408.04l-8.807,7.549a1.887,1.887,0,0,0,.182,3.005l6.708,4.469V32.71a1.887,1.887,0,0,0,3.774,0V22.646a1.887,1.887,0,0,0-.841-1.573l-3.4-2.266,5.562-4.767ZM12.517,13.524a2.794,2.794,0,0,0,3.888.3L23.27,7.967a2.747,2.747,0,0,0,.257-3.919A6.432,6.432,0,0,0,14.62,3.3l-4.225,3.61a2.744,2.744,0,0,0-.256,3.92Zm4.551-7.352a2.541,2.541,0,0,1,2.8-.27l-5.161,4.4L13.646,9.1Z" transform="translate(46 1295)" fill="#91ce90"/>
    </g>
    <g id="グループ_566" data-name="グループ 566" transform="translate(21 -20)">
      <g transform="matrix(1, 0, 0, 1, -9, 1215.94)" filter="url(#合体_3)">
        <path id="合体_3-2" data-name="合体 3" d="M1635,4879a8,8,0,0,1-8-8v-64a8,8,0,0,1,8-8h107a8,8,0,0,1,8,8v21.146l17.145-2.587L1750,4844.609V4871a8,8,0,0,1-8,8Z" transform="translate(-1568 -4769.94)" fill="#79cb7c"/>
      </g>
      <g id="グループ_565" data-name="グループ 565" transform="matrix(0.998, -0.07, 0.07, 0.998, -306.909, 757.973)">
        <g id="グループ_553" data-name="グループ 553" transform="translate(405.448 527.592)">
          <g id="グループ_547" data-name="グループ 547" transform="translate(0 0)">
            <g id="グループ_546" data-name="グループ 546">
              <path id="パス_216" data-name="パス 216" d="M520.342,556.377l-1.794-.349,2.439-12.3c.162-1.035,1.283-2.969,4.417-3.067l7.791-.537.14,1.778-7.846.54c-2.454.071-2.694,1.554-2.7,1.569l-.008.046Z" transform="translate(-518.548 -540.123)" fill="#f2784a"/>
            </g>
          </g>
          <g id="グループ_548" data-name="グループ 548" transform="translate(2.339 3.751)">
            <path id="パス_217" data-name="パス 217" d="M539.163,573.082l-.069.35,1.811.264.069-.35Z" transform="translate(-539.094 -573.082)" fill="#ee3e51"/>
          </g>
          <g id="グループ_549" data-name="グループ 549" transform="translate(2.625 2.653)">
            <path id="パス_218" data-name="パス 218" d="M543.374,564.279l-1.608-.849a3.321,3.321,0,0,0-.158.321l1.63.861A1.439,1.439,0,0,1,543.374,564.279Z" transform="translate(-541.607 -563.43)" fill="#ee3e51"/>
          </g>
          <g id="グループ_550" data-name="グループ 550" transform="translate(3.271 1.724)">
            <path id="パス_219" data-name="パス 219" d="M548.757,556.6l-1.215-1.331c-.092.083-.177.168-.255.255l1.231,1.349A1.9,1.9,0,0,1,548.757,556.6Z" transform="translate(-547.286 -555.267)" fill="#ee3e51"/>
          </g>
          <g id="グループ_551" data-name="グループ 551" transform="translate(4.232 1.045)">
            <path id="パス_220" data-name="パス 220" d="M556.734,550.966l-.681-1.661q-.17.08-.324.168l.692,1.689A2.378,2.378,0,0,1,556.734,550.966Z" transform="translate(-555.729 -549.305)" fill="#ee3e51"/>
          </g>
          <g id="グループ_552" data-name="グループ 552" transform="translate(5.437 0.649)">
            <path id="パス_221" data-name="パス 221" d="M566.319,545.909l.061,1.854a3.294,3.294,0,0,1,.362-.119l-.06-1.817C566.557,545.852,566.436,545.879,566.319,545.909Z" transform="translate(-566.319 -545.828)" fill="#ee3e51"/>
          </g>
        </g>
        <g id="グループ_554" data-name="グループ 554" transform="translate(390.921 542.35)">
          <path id="パス_222" data-name="パス 222" d="M408.694,708.106l8.934-34.007-22.154-4.311-4.552,34.86A36.673,36.673,0,0,0,408.694,708.106Z" transform="translate(-390.921 -669.788)" fill="#f2784a"/>
        </g>
        <g id="グループ_555" data-name="グループ 555" transform="translate(393.973 539.712)">
          <path id="パス_223" data-name="パス 223" d="M443.355,651.5,418.2,646.607l-.465,2.346,25.155,4.895Z" transform="translate(-417.734 -646.607)" fill="#e1e0df"/>
        </g>
        <g id="グループ_556" data-name="グループ 556" transform="translate(395.349 538.387)">
          <path id="パス_224" data-name="パス 224" d="M453.452,639.507l-23.335-4.54-.3,1.5,23.335,4.54Z" transform="translate(-429.82 -634.967)" fill="#f1f0f0"/>
        </g>
        <g id="グループ_559" data-name="グループ 559" transform="translate(391.912 551.605)">
          <path id="パス_227" data-name="パス 227" d="M419.56,769.686l3.812-14.332L401.5,751.1l-1.872,14.709Z" transform="translate(-399.625 -751.099)" fill="#2183d6"/>
        </g>
        <g id="グループ_564" data-name="グループ 564" transform="translate(410.812 525.982)">
          <g id="グループ_563" data-name="グループ 563" transform="translate(0 0)">
            <path id="パス_231" data-name="パス 231" d="M566.7,532.349h-.029l.017-.023.011.007v0l.013.008,0,.008Zm-1.021-6.34h0l0-.013Zm0,0,0-.011,0-.014Z" transform="translate(-565.671 -525.982)" fill="#737374"/>
          </g>
        </g>
      </g>
      <g id="グループ_545" data-name="グループ 545" transform="matrix(0.995, 0.105, -0.105, 0.995, 42.869, 953.38)">
        <g id="グループ_527" data-name="グループ 527" transform="translate(67.626 324.227)">
          <g id="グループ_525" data-name="グループ 525" transform="translate(0 0)">
            <path id="パス_198" data-name="パス 198" d="M182.193,511.317,138.15,532.836a3.481,3.481,0,0,1-4.643-1.595l-3.022-6.184a.143.143,0,0,1,.065-.19l50.025-24.442a.142.142,0,0,1,.19.065l3.022,6.184A3.481,3.481,0,0,1,182.193,511.317Z" transform="translate(-130.471 -500.41)" fill="#f9a41a"/>
          </g>
        </g>
        <g id="グループ_528" data-name="グループ 528" transform="translate(63.639 314.049)">
          <path id="パス_200" data-name="パス 200" d="M150.575,430.522l-47.388,23.154a.177.177,0,0,0-.081.237l1.654,3.385a.177.177,0,0,0,.237.081l47.388-23.154a.177.177,0,0,0,.081-.237l-1.654-3.385A.177.177,0,0,0,150.575,430.522Z" transform="translate(-103.087 -430.505)" fill="#f2784a"/>
        </g>
        <g id="グループ_529" data-name="グループ 529" transform="translate(109.116 318.88)">
          <path id="パス_201" data-name="パス 201" d="M415.432,473.257l4.415-2.157a3.315,3.315,0,0,0,1.476-4.434l-.548-1.121a3.354,3.354,0,0,0-2.609-1.858C418.756,467.216,416.915,470.939,415.432,473.257Z" transform="translate(-415.432 -463.686)" fill="#8c401f"/>
        </g>
        <g id="グループ_530" data-name="グループ 530" transform="translate(60.221 306.647)">
          <path id="パス_202" data-name="パス 202" d="M129.806,387.587,84.435,409.755c-1.193-.22-1.98-.5-2.3-1.153l-2.383-4.876a1.316,1.316,0,0,1,.586-1.76L125.709,379.8a1.316,1.316,0,0,1,1.749.62l2.382,4.876A4.362,4.362,0,0,1,129.806,387.587Z" transform="translate(-79.616 -379.668)" fill="#b85f28"/>
        </g>
        <g id="グループ_531" data-name="グループ 531" transform="translate(59.089 304.761)">
          <path id="パス_203" data-name="パス 203" d="M123.521,369.851l-4.064-3.136L97.019,377.678,94.3,379.007,71.862,389.97s-.023,5.117-.023,5.133c-.012,2.631,3.65,1.458,4.411.232.311-.5.429-1.115.72-1.624.942-1.653,2.791-1.859,4.528-1.352,0,0,6.05,2.378,7.776-3.38.576-1.922,1.718-3.362,3.81-3.27,1.894.083,3.808,1.125,5.692.949a3.6,3.6,0,0,0,2.864-2.294,21.5,21.5,0,0,1,.737-2.553,4.464,4.464,0,0,1,5.6-1.97c5.6,2.176,7.445-4.057,7.445-4.057.667-1.682,1.966-3.014,3.849-2.741.58.084,1.137.368,1.723.43C122.428,373.627,125.6,371.458,123.521,369.851Z" transform="translate(-71.839 -366.715)" fill="#347137"/>
        </g>
        <g id="グループ_532" data-name="グループ 532" transform="translate(56.916 294.203)">
          <path id="パス_204" data-name="パス 204" d="M58.53,329.191h0c-4.626-9.469.848-25.321,14.428-31.956h0c13.579-6.635,30.326-1.639,34.952,7.829h0Z" transform="translate(-56.916 -294.203)" fill="#f9a41a"/>
        </g>
        <g id="グループ_539" data-name="グループ 539" transform="translate(66.107 298.173)">
          <g id="グループ_534" data-name="グループ 534" transform="translate(0 8.605)">
            <path id="パス_206" data-name="パス 206" d="M121.5,382.273c-.2.84-.67,1.442-1.048,1.344s-.521-.858-.319-1.7.67-1.442,1.048-1.344S121.7,381.433,121.5,382.273Z" transform="translate(-120.041 -380.564)" fill="#fff"/>
          </g>
          <g id="グループ_535" data-name="グループ 535" transform="translate(17.704 0)">
            <path id="パス_207" data-name="パス 207" d="M243.26,323.223c-.473.716-1.12,1.116-1.443.894s-.2-.982.271-1.7,1.12-1.116,1.443-.894S243.734,322.508,243.26,323.223Z" transform="translate(-241.635 -321.464)" fill="#fff"/>
          </g>
          <g id="グループ_536" data-name="グループ 536" transform="translate(9.055 4.521)">
            <path id="パス_208" data-name="パス 208" d="M183.7,353.886c.214.843.083,1.6-.294,1.694s-.854-.516-1.068-1.359-.082-1.6.294-1.694S183.486,353.043,183.7,353.886Z" transform="translate(-182.236 -352.517)" fill="#fff"/>
          </g>
          <g id="グループ_537" data-name="グループ 537" transform="translate(3.253 4.8)">
            <path id="パス_209" data-name="パス 209" d="M144.113,354.676c.794.34,1.318.908,1.172,1.27s-.909.379-1.7.04-1.318-.908-1.171-1.27S143.32,354.337,144.113,354.676Z" transform="translate(-142.386 -354.433)" fill="#fff"/>
          </g>
          <g id="グループ_538" data-name="グループ 538" transform="translate(12.231 0.986)">
            <path id="パス_210" data-name="パス 210" d="M205.536,328.247c.854-.06,1.573.21,1.606.6s-.633.758-1.488.818-1.573-.21-1.606-.6S204.682,328.307,205.536,328.247Z" transform="translate(-204.047 -328.239)" fill="#fff"/>
          </g>
        </g>
        <g id="グループ_541" data-name="グループ 541" transform="translate(65.131 317.617)">
          <path id="パス_212" data-name="パス 212" d="M164.871,462.157l-47.893,23.4a.293.293,0,0,1-.391-.134l-3.22-6.591a.293.293,0,0,1,.134-.391l47.893-23.4a.293.293,0,0,1,.391.134l3.22,6.591A.293.293,0,0,1,164.871,462.157Z" transform="translate(-113.338 -455.012)" fill="#954b22"/>
        </g>
        <g id="グループ_543" data-name="グループ 543" transform="translate(70.549 316.372)">
          <path id="パス_214" data-name="パス 214" d="M183.164,457.964l3.594-11.5-36.207,17.67S167.6,457.241,183.164,457.964Z" transform="translate(-150.55 -446.461)" fill="#ffc20d"/>
        </g>
      </g>
    </g>
  </g>
</svg>
