<svg xmlns="http://www.w3.org/2000/svg" width="18.669" height="14" viewBox="0 0 18.669 14">
  <g id="check-duotone" transform="translate(0.002 -64.048)">
    <path id="パス_27" data-name="パス 27" d="M203.395,66.979l-8.742,8.79L192,73.111l8.755-8.788a.929.929,0,0,1,1.315-.005l.005.005,1.32,1.328A.943.943,0,0,1,203.395,66.979Z" transform="translate(-185.001)" fill="rgba(124,208,159,0.4)"/>
    <path id="パス_28" data-name="パス 28" d="M9.649,199.784l-1.99,2a.93.93,0,0,1-1.315.005l-.005-.005-6.067-6.1a.942.942,0,0,1,0-1.328l1.32-1.328a.929.929,0,0,1,1.313-.006l.006.006Z" transform="translate(0 -124.012)" fill="#7cd09f"/>
  </g>
</svg>
