<svg xmlns="http://www.w3.org/2000/svg" width="41.334" height="72.334" viewBox="0 0 41.334 72.334">
  <g id="グループ_715" data-name="グループ 715" transform="translate(1437 -3078)">
    <text id="_3.0" data-name="3.0" transform="translate(-1434 3100)" fill="#f2784a" font-size="24" font-family="Asap-Bold, Asap" font-weight="700" letter-spacing="0.1em"><tspan x="0" y="0">3.0</tspan></text>
    <g id="グループ_703" data-name="グループ 703" transform="translate(-1566.264 3061.758)">
      <circle id="楕円形_21" data-name="楕円形 21" cx="20.667" cy="20.667" r="20.667" transform="translate(129.264 47.242)" fill="#f2784a"/>
      <g id="グループ_702" data-name="グループ 702">
        <g id="グループ_701" data-name="グループ 701">
          <circle id="楕円形_22" data-name="楕円形 22" cx="2.355" cy="2.355" r="2.355" transform="translate(141.729 61.95)" fill="#fff"/>
          <circle id="楕円形_23" data-name="楕円形 23" cx="2.355" cy="2.355" r="2.355" transform="translate(153.424 61.95)" fill="#fff"/>
        </g>
        <path id="パス_453" data-name="パス 453" d="M149.955,78.284a8.517,8.517,0,0,1-6.04-2.5l-.375-.375A1,1,0,1,1,144.954,74l.375.375a6.552,6.552,0,0,0,9.253,0A1,1,0,0,1,156,75.786,8.519,8.519,0,0,1,149.955,78.284Z" fill="#fff"/>
      </g>
    </g>
  </g>
</svg>
