<svg xmlns="http://www.w3.org/2000/svg" width="34.393" height="27.5" viewBox="0 0 34.393 27.5">
  <g id="crown-duotone" transform="translate(0.622 0.228)">
    <path id="パス_13" data-name="パス 13" d="M120.052,448.859v1.718a.859.859,0,0,1-.859.859H96.859a.859.859,0,0,1-.859-.859v-1.718a.859.859,0,0,1,.859-.859h22.334A.859.859,0,0,1,120.052,448.859Z" transform="translate(-91.434 -424.164)" fill="#f2784a" opacity="0.4"/>
    <path id="パス_14" data-name="パス 14" d="M33.771,9.233a2.577,2.577,0,0,1-2.577,2.577,2.631,2.631,0,0,1-.413-.043L26.9,22.118H6.283L2.4,11.767a2.631,2.631,0,0,1-.413.043A2.6,2.6,0,1,1,4.335,10.3l3.882,2.33A1.718,1.718,0,0,0,10.589,12l4.375-7.656a2.577,2.577,0,1,1,3.253,0L22.594,12a1.718,1.718,0,0,0,2.373.623l3.887-2.33a2.523,2.523,0,0,1-.236-1.063,2.577,2.577,0,0,1,5.154,0Z" transform="translate(0)" fill="#f2784a"/>
  </g>
</svg>
