<svg xmlns="http://www.w3.org/2000/svg" width="41.334" height="72.334" viewBox="0 0 41.334 72.334">
  <g id="グループ_713" data-name="グループ 713" transform="translate(1295 -3078)">
    <text id="_5.0" data-name="5.0" transform="translate(-1292 3100)" fill="#f2784a" font-size="24" font-family="Asap-Bold, Asap" font-weight="700" letter-spacing="0.1em"><tspan x="0" y="0">5.0</tspan></text>
    <g id="グループ_712" data-name="グループ 712" transform="translate(-1513.276 3061.758)">
      <circle id="楕円形_27" data-name="楕円形 27" cx="20.667" cy="20.667" r="20.667" transform="translate(218.276 47.242)" fill="#f2784a"/>
      <g id="グループ_711" data-name="グループ 711">
        <g id="グループ_707" data-name="グループ 707">
          <path id="パス_456" data-name="パス 456" d="M232.034,73.938h13.881c2.483,6.142-16.7,5.515-13.881,0h0" fill="#fff"/>
          <path id="パス_457" data-name="パス 457" d="M239.159,78.817c-2.73,0-5.5-.628-6.913-1.843a2.506,2.506,0,0,1-.657-3.265.5.5,0,0,1,.445-.271h13.881a.5.5,0,0,1,.463.312,2.822,2.822,0,0,1-1.078,3.592A11.214,11.214,0,0,1,239.159,78.817Zm-6.8-4.379a1.483,1.483,0,0,0,.539,1.778c2.29,1.971,9.249,2.156,11.819.313a1.81,1.81,0,0,0,.841-2.091Z" fill="#fff"/>
        </g>
        <g id="グループ_710" data-name="グループ 710">
          <g id="グループ_708" data-name="グループ 708">
            <path id="パス_458" data-name="パス 458" d="M232.042,68.909a1,1,0,0,1-.708-1.707l3.374-3.372-3.1-3.1a1,1,0,0,1,1.414-1.415l3.809,3.809v1.414l-4.08,4.079A1,1,0,0,1,232.042,68.909Z" fill="#fff"/>
            <path id="パス_459" data-name="パス 459" d="M236.122,64.83H230.4a1,1,0,0,1,0-2h5.726a1,1,0,0,1,0,2Z" fill="#fff"/>
          </g>
          <g id="グループ_709" data-name="グループ 709">
            <path id="パス_460" data-name="パス 460" d="M245.845,68.909a.993.993,0,0,1-.707-.293l-4.079-4.079V63.123l3.808-3.809a1,1,0,0,1,1.414,1.415l-3.1,3.1,3.372,3.372a1,1,0,0,1-.707,1.707Z" fill="#fff"/>
            <path id="パス_461" data-name="パス 461" d="M247.49,64.83h-5.724a1,1,0,1,1,0-2h5.724a1,1,0,0,1,0,2Z" fill="#fff"/>
          </g>
        </g>
      </g>
    </g>
  </g>
</svg>
