<svg xmlns="http://www.w3.org/2000/svg" width="39.248" height="15.424" viewBox="0 0 39.248 15.424">
  <path id="パス_140" data-name="パス 140" d="M7.6-8.4a.467.467,0,0,1,.312.08A.331.331,0,0,1,8-8.064l-.688,6.48A10.1,10.1,0,0,1,6.64,1.392,3.2,3.2,0,0,1,5.376,2.936a3.866,3.866,0,0,1-1.968.456,5.212,5.212,0,0,1-1.4-.176,2.968,2.968,0,0,1-.992-.448Q.656,2.5.656,2.256q0-.88.224-.88a1.76,1.76,0,0,1,.392.24,3.792,3.792,0,0,0,.872.432,3.707,3.707,0,0,0,1.264.192,2.044,2.044,0,0,0,1.808-.928A6.535,6.535,0,0,0,6-1.728,3.377,3.377,0,0,1,4.856-.416,2.648,2.648,0,0,1,3.424,0,2.878,2.878,0,0,1,2.168-.3,2.5,2.5,0,0,1,1.1-1.36a4,4,0,0,1-.432-2,6.68,6.68,0,0,1,.5-2.648,4.185,4.185,0,0,1,1.4-1.808,3.517,3.517,0,0,1,2.1-.648A3.052,3.052,0,0,1,6.784-7.6a2.345,2.345,0,0,1,.28-.616A.511.511,0,0,1,7.5-8.4ZM6.416-5.872q.032-.288.128-.8A2.865,2.865,0,0,0,4.8-7.3a2.237,2.237,0,0,0-2.12,1.08,5.521,5.521,0,0,0-.616,2.76A2.7,2.7,0,0,0,2.52-1.7a1.507,1.507,0,0,0,1.208.536,1.988,1.988,0,0,0,1.336-.64A4.905,4.905,0,0,0,6.208-3.9ZM12.768.1A3.26,3.26,0,0,1,10.3-.784a3.568,3.568,0,0,1-.84-2.56A7.028,7.028,0,0,1,9.9-5.9,4.12,4.12,0,0,1,11.3-7.76a3.879,3.879,0,0,1,2.384-.7,3.1,3.1,0,0,1,2.392.888A3.667,3.667,0,0,1,16.9-4.992a5.75,5.75,0,0,1-1.1,3.768A3.727,3.727,0,0,1,12.768.1Zm.08-1.152a2.245,2.245,0,0,0,1.968-1,5.112,5.112,0,0,0,.688-2.9,2.706,2.706,0,0,0-.488-1.776A1.873,1.873,0,0,0,13.5-7.312a2.235,2.235,0,0,0-1.984,1.04,5.18,5.18,0,0,0-.688,2.88,2.646,2.646,0,0,0,.5,1.76A1.9,1.9,0,0,0,12.848-1.056ZM21.872.1A3.26,3.26,0,0,1,19.4-.784a3.568,3.568,0,0,1-.84-2.56A7.028,7.028,0,0,1,19.008-5.9,4.12,4.12,0,0,1,20.4-7.76a3.879,3.879,0,0,1,2.384-.7,3.1,3.1,0,0,1,2.392.888A3.667,3.667,0,0,1,26-4.992a5.75,5.75,0,0,1-1.1,3.768A3.727,3.727,0,0,1,21.872.1Zm.08-1.152a2.245,2.245,0,0,0,1.968-1,5.112,5.112,0,0,0,.688-2.9,2.706,2.706,0,0,0-.488-1.776,1.873,1.873,0,0,0-1.512-.576,2.235,2.235,0,0,0-1.984,1.04,5.18,5.18,0,0,0-.688,2.88,2.646,2.646,0,0,0,.5,1.76A1.9,1.9,0,0,0,21.952-1.056Zm13.6-.08q.1,0,.1.112a3.409,3.409,0,0,1-.064.592.53.53,0,0,1-.36.4,1.578,1.578,0,0,1-.6.128q-1.44,0-1.44-1.568v-.16A3.377,3.377,0,0,1,32.04-.32,2.648,2.648,0,0,1,30.608.1,3.254,3.254,0,0,1,29.24-.216,2.724,2.724,0,0,1,28.08-1.3,3.864,3.864,0,0,1,27.6-3.36,6.7,6.7,0,0,1,28.1-6,4.155,4.155,0,0,1,29.5-7.816a3.553,3.553,0,0,1,2.112-.648,3.284,3.284,0,0,1,2.176.72l.432-3.936a.309.309,0,0,1,.184-.272,1.172,1.172,0,0,1,.488-.08h.064a.919.919,0,0,1,.472.088.294.294,0,0,1,.136.264q-.16,1.488-.592,5.576t-.432,4.392q0,.432.152.544a.7.7,0,0,0,.424.112.807.807,0,0,0,.24-.04A.716.716,0,0,1,35.552-1.136ZM33.68-6.688A2.922,2.922,0,0,0,31.808-7.3a2.3,2.3,0,0,0-2.16,1.088,5.362,5.362,0,0,0-.64,2.752,2.775,2.775,0,0,0,.48,1.848,1.813,1.813,0,0,0,1.424.536A1.983,1.983,0,0,0,32.24-1.7a4.807,4.807,0,0,0,1.136-2.048ZM38-3.232a.529.529,0,0,1-.352-.088.341.341,0,0,1-.1-.264l.768-7.3q.048-.352.672-.352h.32a.872.872,0,0,1,.464.088.3.3,0,0,1,.128.264q0,.144-.7,4.368-.272,1.472-.5,2.928-.048.352-.528.352ZM37.632.032a.919.919,0,0,1-.472-.088.294.294,0,0,1-.136-.264l.112-1.056q.032-.352.672-.352h.272a.919.919,0,0,1,.472.088.294.294,0,0,1,.136.264L38.576-.32q-.048.352-.672.352Z" transform="translate(-0.656 12.032)" fill="#f2784a"/>
</svg>
