<svg xmlns="http://www.w3.org/2000/svg" width="50" height="50" viewBox="0 0 50 50">
  <g id="グループ_29" data-name="グループ 29" transform="translate(-84 -360)">
    <rect id="RED19716033_TP_V4" width="50" height="50" transform="translate(84 360)" fill="#e0e0e0"/>
    <g id="images-duotone" transform="translate(93 341)">
      <path id="パス_61" data-name="パス 61" d="M23.631,117.147a.668.668,0,0,0-.946,0l-7.543,7.544-2.2-2.2a.668.668,0,0,0-.946,0l-3.089,3.091v2.672H28.5v-6.235Zm-20.068,12V117.566H2.672A2.672,2.672,0,0,0,0,120.238v14.251a2.672,2.672,0,0,0,2.672,2.672H24.049a2.672,2.672,0,0,0,2.672-2.672V133.6H8.016a4.459,4.459,0,0,1-4.454-4.454Z" transform="translate(0 -80.221)" fill="#fff" opacity="0.4"/>
      <path id="パス_62" data-name="パス 62" d="M120.049,32H98.672A2.672,2.672,0,0,0,96,34.672V48.923A2.672,2.672,0,0,0,98.672,51.6h21.377a2.672,2.672,0,0,0,2.672-2.672V34.672A2.672,2.672,0,0,0,120.049,32Zm-17.814,2.672a2.672,2.672,0,1,1-2.672,2.672A2.672,2.672,0,0,1,102.235,34.672Zm16.923,13.361h-19.6V45.361l3.091-3.091a.668.668,0,0,1,.946,0l2.2,2.2,7.544-7.544a.668.668,0,0,1,.946,0l4.87,4.872Z" transform="translate(-90.656)" fill="#fff"/>
    </g>
  </g>
</svg>
