<svg xmlns="http://www.w3.org/2000/svg" width="24.102" height="24.106" viewBox="0 0 24.102 24.106">
  <g id="search-duotone" transform="translate(0)">
    <path id="パス_11" data-name="パス 11" d="M9.792,3.766A6.026,6.026,0,1,1,5.531,5.531,6.026,6.026,0,0,1,9.792,3.766M9.792,0a9.792,9.792,0,1,0,9.792,9.792A9.792,9.792,0,0,0,9.792,0Z" fill="#f2784a" opacity="0.4"/>
    <path id="パス_12" data-name="パス 12" d="M343.951,342.624l-1.332,1.332a1.125,1.125,0,0,1-1.6,0l-4.694-4.694a1.13,1.13,0,0,1-.33-.8v-.767L337.695,336h.767a1.13,1.13,0,0,1,.8.33l4.694,4.694A1.135,1.135,0,0,1,343.951,342.624Z" transform="translate(-320.182 -320.182)" fill="#f2784a"/>
  </g>
</svg>
