<svg xmlns="http://www.w3.org/2000/svg" width="19.235" height="21.982" viewBox="0 0 19.235 21.982">
  <path id="bell-light_1_" data-name="bell-light (1)" d="M9.613,20.608a1.376,1.376,0,0,1-1.374-1.375H6.865a2.748,2.748,0,1,0,5.5,0H10.986A1.376,1.376,0,0,1,9.613,20.608ZM18.6,14.375c-1.2-1.143-2.118-2.339-2.118-6.393A6.7,6.7,0,0,0,10.3,1.44V.687a.687.687,0,0,0-1.374,0v.754a6.7,6.7,0,0,0-6.184,6.54c0,4.054-.918,5.25-2.119,6.393a2,2,0,0,0-.483,2.2A2.049,2.049,0,0,0,2.056,17.86H17.169a2.049,2.049,0,0,0,1.917-1.287A2,2,0,0,0,18.6,14.375Zm-1.433,2.112H2.056A.652.652,0,0,1,1.57,15.37c1.5-1.425,2.545-3.02,2.545-7.388a5.368,5.368,0,0,1,5.5-5.234,5.367,5.367,0,0,1,5.5,5.234c0,4.351,1.039,5.955,2.545,7.388A.652.652,0,0,1,17.169,16.486Z" transform="translate(0.005)" fill="#a2a2a2"/>
</svg>
