<svg xmlns="http://www.w3.org/2000/svg" width="32.949" height="24.712" viewBox="0 0 32.949 24.712">
  <path id="crown-light" d="M27.6,55.065H5.354a.413.413,0,0,0-.412.412V56.3a.413.413,0,0,0,.412.412H27.6a.413.413,0,0,0,.412-.412v-.824A.413.413,0,0,0,27.6,55.065ZM30.066,38.59a2.885,2.885,0,0,0-2.883,2.883,2.807,2.807,0,0,0,.221,1.1l-2.9,1.74a1.641,1.641,0,0,1-2.276-.592l-3.83-6.7a2.886,2.886,0,1,0-3.851-.005l-3.83,6.7a1.641,1.641,0,0,1-2.276.592l-2.9-1.74a2.88,2.88,0,1,0-2.662,1.786,2.791,2.791,0,0,0,.3-.031L6.59,53.417h19.77l3.408-9.092a2.791,2.791,0,0,0,.3.031,2.883,2.883,0,0,0,0-5.766ZM16.475,33.647a1.236,1.236,0,1,1-1.236,1.236A1.239,1.239,0,0,1,16.475,33.647ZM2.883,42.709a1.236,1.236,0,1,1,1.236-1.236A1.239,1.239,0,0,1,2.883,42.709ZM25.217,51.77H7.733L4.85,44.078,7.6,45.725a3.3,3.3,0,0,0,4.556-1.194l3.892-6.811a2.291,2.291,0,0,0,.865,0L20.8,44.536a3.3,3.3,0,0,0,4.556,1.189L28.1,44.078Zm4.85-9.061A1.236,1.236,0,1,1,31.3,41.473,1.239,1.239,0,0,1,30.066,42.709Z" transform="translate(0 -32)" fill="#f2784a"/>
</svg>
