<svg xmlns="http://www.w3.org/2000/svg" width="26.557" height="26.977" viewBox="0 0 26.557 26.977">
  <g id="flag-duotone" transform="translate(-7.995 -0.038)">
    <path id="パス_9" data-name="パス 9" d="M117.92,64.506V79.1a1.518,1.518,0,0,1-.975,1.395c-9.263,3.7-11.16-3.349-20.945,1.117V65.068a2.981,2.981,0,0,0,.771-.79c10.232-3.925,9.735,3.069,18.548-1.058A1.719,1.719,0,0,1,117.92,64.506Z" transform="translate(-83.368 -59.657)" fill="#f2784a" opacity="0.4"/>
    <path id="パス_10" data-name="パス 10" d="M13.9,2.987a2.947,2.947,0,0,1-1.265,2.424V25.855a1.159,1.159,0,0,1-1.159,1.159H10.419A1.159,1.159,0,0,1,9.26,25.855V5.411A2.951,2.951,0,1,1,13.9,2.987Z" transform="translate(0)" fill="#f2784a"/>
  </g>
</svg>
