<svg xmlns="http://www.w3.org/2000/svg" width="20.741" height="18.148" viewBox="0 0 20.741 18.148">
  <g id="sort-amount-up-duotone" transform="translate(0.006 -32)">
    <path id="パス_142" data-name="パス 142" d="M227.241,47.556h-2.593A.648.648,0,0,0,224,48.2v1.3a.648.648,0,0,0,.648.648h2.593a.648.648,0,0,0,.648-.648V48.2A.648.648,0,0,0,227.241,47.556Zm5.185-10.371h-7.778a.648.648,0,0,0-.648.648v1.3a.648.648,0,0,0,.648.648h7.778a.648.648,0,0,0,.648-.648v-1.3A.648.648,0,0,0,232.426,37.185Zm-2.593,5.185h-5.185a.648.648,0,0,0-.648.648v1.3a.648.648,0,0,0,.648.648h5.185a.648.648,0,0,0,.648-.648v-1.3A.648.648,0,0,0,229.833,42.371ZM235.019,32H224.648a.648.648,0,0,0-.648.648v1.3a.648.648,0,0,0,.648.648h10.371a.648.648,0,0,0,.648-.648v-1.3A.648.648,0,0,0,235.019,32Z" transform="translate(-214.932)" fill="#f2784a" opacity="0.4"/>
    <path id="パス_143" data-name="パス 143" d="M.642,37.192H2.586V49.507a.648.648,0,0,0,.648.648h1.3a.648.648,0,0,0,.648-.648V37.192H7.123a.649.649,0,0,0,.458-1.106L4.341,32.2a.648.648,0,0,0-.916,0L.184,36.086A.649.649,0,0,0,.642,37.192Z" transform="translate(0 -0.007)" fill="#f2784a"/>
  </g>
</svg>
