<svg xmlns="http://www.w3.org/2000/svg" width="30.96" height="27.092" viewBox="0 0 30.96 27.092">
  <path id="home-alt-light" d="M62.833,43.954,48.751,32.464a1.945,1.945,0,0,0-2.442,0L32.232,43.954a.484.484,0,0,0-.07.68l.611.751a.484.484,0,0,0,.677.072l2.471-2.019v14.7a.968.968,0,0,0,.968.968H44.63a.968.968,0,0,0,.968-.968V50.393l3.871.018v7.746a.968.968,0,0,0,.968.968l7.741-.02a.968.968,0,0,0,.968-.968v-14.7l2.471,2.019a.484.484,0,0,0,.68-.07l.611-.751a.484.484,0,0,0-.073-.682ZM57.2,57.174h.006l-5.806.018V49.441a.971.971,0,0,0-.965-.968l-5.806-.016a.968.968,0,0,0-.971.968v7.75H37.856V41.859l9.676-7.9,9.676,7.9Z" transform="translate(-32.054 -32.032)" fill="#a2a2a2"/>
</svg>
