<svg xmlns="http://www.w3.org/2000/svg" width="25" height="25" viewBox="0 0 25 25">
  <path id="location-light" d="M24.609,11.719H21.835a9.367,9.367,0,0,0-8.554-8.554V.391A.391.391,0,0,0,12.891,0h-.781a.391.391,0,0,0-.391.391V3.165a9.367,9.367,0,0,0-8.554,8.554H.391A.391.391,0,0,0,0,12.109v.781a.391.391,0,0,0,.391.391H3.165a9.367,9.367,0,0,0,8.554,8.554v2.774a.391.391,0,0,0,.391.391h.781a.391.391,0,0,0,.391-.391V21.835a9.367,9.367,0,0,0,8.554-8.554h2.774A.391.391,0,0,0,25,12.891v-.781A.391.391,0,0,0,24.609,11.719ZM12.5,20.313A7.813,7.813,0,1,1,20.313,12.5,7.822,7.822,0,0,1,12.5,20.313Zm0-12.5A4.688,4.688,0,1,0,17.188,12.5,4.687,4.687,0,0,0,12.5,7.813Zm0,7.813A3.125,3.125,0,1,1,15.625,12.5,3.129,3.129,0,0,1,12.5,15.625Z" fill="#a2a2a2"/>
</svg>
