<svg xmlns="http://www.w3.org/2000/svg" width="9.6" height="8.871" viewBox="0 0 9.6 8.871">
  <path id="パス_464" data-name="パス 464" d="M6-.609c.816-.774,1.6-1.579,2.2-2.236A21.5,21.5,0,0,0,9.852-4.87,3.839,3.839,0,0,0,10.8-7.339,2.191,2.191,0,0,0,8.484-9.48,2.466,2.466,0,0,0,6.216-8.208c-.072.159-.1.233-.216.233s-.144-.074-.216-.233A2.466,2.466,0,0,0,3.516-9.48,2.191,2.191,0,0,0,1.2-7.339,3.839,3.839,0,0,0,2.148-4.87,20.3,20.3,0,0,0,3.816-2.846C4.4-2.188,5.184-1.383,6-.609Z" transform="translate(-1.2 9.48)" fill="#fff"/>
</svg>
