<svg xmlns="http://www.w3.org/2000/svg" width="240.4" height="57.12" viewBox="0 0 240.4 57.12">
  <path id="パス_139" data-name="パス 139" d="M-87.28,0h-33.68V-56h11.12v44.88h22.56Zm31.44.56a28.573,28.573,0,0,1-10.48-2,28.966,28.966,0,0,1-9.16-5.72,28.1,28.1,0,0,1-6.48-9A27.7,27.7,0,0,1-84.4-27.92a27.888,27.888,0,0,1,2.16-10.8,29.371,29.371,0,0,1,5.96-9.16,28.737,28.737,0,0,1,9.04-6.32,27.436,27.436,0,0,1,11.4-2.36,27.846,27.846,0,0,1,10.68,2.12,28.917,28.917,0,0,1,9.12,5.92,29.152,29.152,0,0,1,6.36,9.08,27.509,27.509,0,0,1,2.4,11.52A27.846,27.846,0,0,1-29.4-17.24a28.917,28.917,0,0,1-5.92,9.12A28.737,28.737,0,0,1-44.36-1.8,27.631,27.631,0,0,1-55.84.56Zm0-46a16.916,16.916,0,0,0-6.76,1.36,17.66,17.66,0,0,0-5.56,3.76,17.537,17.537,0,0,0-3.76,5.6,17.2,17.2,0,0,0-1.36,6.8,16.5,16.5,0,0,0,1.4,6.76,18.086,18.086,0,0,0,3.76,5.52,17.516,17.516,0,0,0,5.52,3.72,16.916,16.916,0,0,0,6.76,1.36,16.916,16.916,0,0,0,6.76-1.36,17.516,17.516,0,0,0,5.52-3.72,17.516,17.516,0,0,0,3.72-5.52,16.916,16.916,0,0,0,1.36-6.76,16.779,16.779,0,0,0-1.4-6.8,18.456,18.456,0,0,0-3.76-5.6,17.19,17.19,0,0,0-5.52-3.76A16.719,16.719,0,0,0-55.84-45.44ZM9.12-31.68H31.04V-7.84A35.933,35.933,0,0,1,21.56-1.6,26.674,26.674,0,0,1,10.72.56,27.7,27.7,0,0,1-1.04-1.88a28.717,28.717,0,0,1-9-6.4,28.028,28.028,0,0,1-5.72-9.08,28.78,28.78,0,0,1-2-10.56,27.972,27.972,0,0,1,2.44-11.8,28.592,28.592,0,0,1,6.4-9.04A28.594,28.594,0,0,1,.16-54.52a28.284,28.284,0,0,1,10.56-2.04,27.528,27.528,0,0,1,11.04,2.32,31.372,31.372,0,0,1,9.76,6.72l-7.6,8a23.529,23.529,0,0,0-6.36-4.36,16.27,16.27,0,0,0-6.84-1.56,16.916,16.916,0,0,0-6.76,1.36,17.19,17.19,0,0,0-5.52,3.76,17.874,17.874,0,0,0-3.72,5.6,17.2,17.2,0,0,0-1.36,6.8,16.916,16.916,0,0,0,1.36,6.76,17.516,17.516,0,0,0,3.72,5.52,17.516,17.516,0,0,0,5.52,3.72,16.916,16.916,0,0,0,6.76,1.36,17.536,17.536,0,0,0,4.8-.68A19.636,19.636,0,0,0,20-13.12v-7.44H9.12ZM46.24,0V-56H57.28V0ZM73.28-56.56h4.88l30.24,33.6V-56h11.04V.56h-4.96L84.32-32.96V0H73.28Z" transform="translate(120.96 56.56)" fill="#fff"/>
</svg>
