<svg xmlns="http://www.w3.org/2000/svg" viewBox="0 0 166.48767 51.36006"><defs><style>.cls-1{fill:#fff;stroke:#fff;stroke-miterlimit:10;}</style></defs><title>アセット 3</title><g id="レイヤー_2" data-name="レイヤー 2"><g id="白抜き"><polygon class="cls-1" points="40.788 7.215 40.788 0.5 13.929 0.5 7.215 0.5 0.5 0.5 0.5 50.86 13.929 50.86 13.929 32.395 34.073 32.395 34.073 25.68 13.929 25.68 13.929 7.215 40.788 7.215"/><polygon class="cls-1" points="64.507 44.145 64.507 0.5 51.078 0.5 51.078 50.86 57.793 50.86 64.507 50.86 91.366 50.86 91.366 44.145 64.507 44.145"/><rect class="cls-1" x="98.69737" y="0.50002" width="13.42935" height="50.36005"/><path class="cls-1" d="M151.72778.5h-25.5177V50.86H139.6394V32.39469h12.08838c7.87555,0,14.25989-7.13983,14.25989-15.94732S159.60333.5,151.72778.5Zm-3.637,25.18H139.6394V7.2147h8.45136c2.60834,0,4.72278,4.13361,4.72278,9.23267S150.6991,25.68,148.09076,25.68Z"/></g></g></svg>