<svg xmlns="http://www.w3.org/2000/svg" width="33.5" height="33.5" viewBox="0 0 33.5 33.5">
  <path id="smile-solid_2_" data-name="smile-solid (2)" d="M16.75,8A16.75,16.75,0,1,0,33.5,24.75,16.747,16.747,0,0,0,16.75,8Zm5.4,11.347a2.161,2.161,0,1,1-2.161,2.161A2.159,2.159,0,0,1,22.153,19.347Zm-10.806,0a2.161,2.161,0,1,1-2.161,2.161A2.159,2.159,0,0,1,11.347,19.347ZM24.5,30.842A10.089,10.089,0,0,1,9,30.842a1.081,1.081,0,0,1,1.661-1.385,7.936,7.936,0,0,0,12.184,0A1.081,1.081,0,0,1,24.5,30.842Z" transform="translate(0 -8)" fill="#f2784a"/>
</svg>
