<svg xmlns="http://www.w3.org/2000/svg" width="15.48" height="15.48" viewBox="0 0 15.48 15.48">
  <g id="times-duotone" transform="translate(-0.001 -80.001)">
    <path id="パス_158" data-name="パス 158" d="M.406,92.142a1.384,1.384,0,0,0,0,1.956l.978.978a1.384,1.384,0,0,0,1.956,0l4.4-4.4L4.807,87.741Zm14.67-10.758-.978-.978a1.384,1.384,0,0,0-1.956,0l-4.4,4.4,2.934,2.934,4.4-4.4A1.384,1.384,0,0,0,15.076,81.384Z" transform="translate(0)" fill="#f24a4a" opacity="0.4"/>
    <path id="パス_159" data-name="パス 159" d="M15.076,92.142a1.384,1.384,0,0,1,0,1.956l-.978.978a1.384,1.384,0,0,1-1.956,0L.406,83.34a1.384,1.384,0,0,1,0-1.956l.978-.978a1.384,1.384,0,0,1,1.956,0Z" transform="translate(0 0)" fill="#f24a4a"/>
  </g>
</svg>
