<svg xmlns="http://www.w3.org/2000/svg" xmlns:xlink="http://www.w3.org/1999/xlink" width="534.354" height="267.945" viewBox="0 0 534.354 267.945">
  <defs>
    <linearGradient id="linear-gradient" x1="1.558" y1="-4.602" x2="-6.578" y2="1" gradientUnits="objectBoundingBox">
      <stop offset="0" stop-color="#aaa"/>
      <stop offset="0.956" stop-color="#dedede"/>
      <stop offset="1" stop-color="#4d4d4d"/>
    </linearGradient>
  </defs>
  <g id="グループ_176" data-name="グループ 176" transform="translate(43.755 -80.263)" opacity="0.22">
    <g id="グループ_175" data-name="グループ 175" transform="translate(-43.755 80.263)">
      <path id="パス_63" data-name="パス 63" d="M448.619,322.257a25.537,25.537,0,0,1,2.822.745,27.874,27.874,0,0,1,2.2,2.591,9.251,9.251,0,0,0,.8,1.258c.168.134.08.884.257.976s1.788,1.729,1.987,1.8,2.048-.207,2.489-.216a6.069,6.069,0,0,1,1.938.907c.151.136.881,2.8,1,2.961s4.036,1.3,4.194,1.328,3.2-.777,3.477-.605,2.609,1.41,2.791,1.436a22.807,22.807,0,0,0,2.06-1.9c.185-.132,2.567-2.033,2.624-2.126s.9-3.649.99-4.2,2.28-3.8,2.465-4.249.576-4.293.726-4.444a12.671,12.671,0,0,0,.457-3.119,43.864,43.864,0,0,0-1.21-4.7c-.238-.343-2.183-1.346-2.348-1.582s-1.194-2.224-1.617-2.356-.7-.684-.958-.937a28.467,28.467,0,0,0-1.95-2.764c-.449-.291-2.115-2.115-2.326-2.247s-1.48-5.418-1.956-5.722a11.674,11.674,0,0,1-2.282-1.944c-.2-.4-1.023-4.256-1.287-4.335s-1.454,1.375-1.48,1.506-.211,5.366-.265,5.869a33.849,33.849,0,0,1-1.956,3.833s-1.707-1.236-2.1-1.49a36.451,36.451,0,0,0-3.64-1.1s-1.247-2.134-1.457-2.323a4.188,4.188,0,0,1,.188-2.251c.211-.264,1.893-1.11,1.528-1.454s-4.067-.4-4.251-.529a19.989,19.989,0,0,0-3.6-1.136,13.464,13.464,0,0,0-3.7.848c-.211.288.4,2.959.4,3.223s-2.075,1.824-2.075,1.824-1.387-2.009-2.049-2.061-2.686,2.326-2.955,2.643-3.627,1.375-3.732,1.8a44.264,44.264,0,0,1-3.357,4.838,15.274,15.274,0,0,1-3.145,1.136c-.608-.026-5.314.767-5.314.767a27.75,27.75,0,0,0-1.189,4.414c.117.53.423,3.384.423,3.384a18.873,18.873,0,0,0-.306,2.3,19.838,19.838,0,0,0,1.126,2.379c.158.37,1.872,5.467,1.872,5.467s-.324,1.85-.366,2.173-1,1.209-.872,1.49,2.094,1.13,2.263,1.393,2.6.21,3.156.078,2.98-1.448,3.223-1.473a14.608,14.608,0,0,1,2.038,0,21.653,21.653,0,0,0,3.463-1.014c.29-.133,1.986-1.2,2.3-1.348s4.785-1.031,5.208-1.084,1.885-.827,2.009-.793S448.619,322.257,448.619,322.257Z" transform="translate(-1.072 -100.342)" fill-rule="evenodd" fill="url(#linear-gradient)"/>
      <path id="パス_64" data-name="パス 64" d="M473.5,342.977c.169-.276,2.855.431,3.1.431a8.436,8.436,0,0,0,2.009-.881c.053-.124-.1-1.228,0-1.2a1.551,1.551,0,0,1,.671.408c.264.277.158,1.423.14,1.67a14.7,14.7,0,0,1-.3,1.791,21.243,21.243,0,0,1-2.083,3.319,8.627,8.627,0,0,1-2.115-1.163c.017-.141-1.188-3.067-1.188-3.067S473.24,343.409,473.5,342.977Z" transform="translate(-6.041 -105.399)" fill-rule="evenodd" fill="url(#linear-gradient)"/>
      <path id="パス_65" data-name="パス 65" d="M442.985,276.963c-.425-.479.937-1.654,1.209-1.769a26.9,26.9,0,0,1,3.938.088,28.019,28.019,0,0,0,3.4-.626s-.558-1.216-.584-1.3-2.723-1.242-2.856-1.321-2.4-.218-2.508-.281a11.382,11.382,0,0,1-.717-1.728c-.026-.132.82-1.613,1.057-1.613a8.071,8.071,0,0,1,1.322.476s-.265,1.516-.239,1.749a12.2,12.2,0,0,0,2.309,1.291s3.645-.6,4.141-.347,1.613.082,1.8.77a18.178,18.178,0,0,0,.714,2.484c.159.159.892.759.892.759l1.374-1.329s1.825-1.214,2.023-1.324,2.347.79,3.034.933a10.568,10.568,0,0,0,1.521.143c.2.026,1.7,1.11,2.656,1.691a9.227,9.227,0,0,0,2.538,1.057c.724.193,3.6,2.908,4.164,3.067s1.7-.285,1.942.2-.239,2.168.184,2.847a15.244,15.244,0,0,0,3.146,2.874c.5.211.774-.133.756.423s-.095,1.48-.571,1.375-2.765-.9-3.074-.952a26.446,26.446,0,0,1-2.383-1.169s-.9-2.409-1.71-2.75a14.632,14.632,0,0,0-1.794-.708c-.158,0-4.256,2.934-4.784,2.829s-3.6-2.067-3.747-1.922-2.651.406-2.623,0,1.58-1.207,1.57-1.453a5.752,5.752,0,0,0-.751-2.651c-.555-.557-3.965-.953-4.1-1.006s-1.96-1.386-2.342-1.685-3.4,0-3.844,0-2.432.766-3.172.617a12.869,12.869,0,0,0-2.458-.324C444.369,276.48,443.532,277.58,442.985,276.963Z" transform="translate(-3.102 -98.379)" fill-rule="evenodd" fill="url(#linear-gradient)"/>
      <path id="パス_66" data-name="パス 66" d="M432.48,268.649c.4-.382,3.877.31,4.053.31s2.256.028,2.4-.215,1.2-1.182,1.339-1.1-.423,1.563-.475,1.862-2.079.984-2.185.96-3.024-.33-3.153-.328a6.03,6.03,0,0,0-1.658.32,2.948,2.948,0,0,0,.23,1.78,10.939,10.939,0,0,0,3.126-.222,4,4,0,0,1,1.738-.332c.158.113-.153.812-.529.783a7.752,7.752,0,0,0-2.681,1.02,9.945,9.945,0,0,0,1.272,2.047c.158.123,1.339.881,1.11,1.215a2.369,2.369,0,0,1-1.427.884c-.6.085-1.754-1.06-1.832-1.344a13.292,13.292,0,0,0-.23-1.444c-.109-.143-.809-.006-.793.367s.474,2.421.474,2.421-.264,1.76-.616,1.76-.841.211-.836-.652a24.086,24.086,0,0,0-.275-2.667,6.926,6.926,0,0,0-.7-1.122,9.968,9.968,0,0,1,.171-2.1,18.961,18.961,0,0,0,1.063-2.642A3.457,3.457,0,0,1,432.48,268.649Z" transform="translate(-1.937 -98.304)" fill-rule="evenodd" fill="url(#linear-gradient)"/>
      <path id="パス_67" data-name="パス 67" d="M425.539,259.422a3.068,3.068,0,0,1,1.345-.423c.189.017.365,1.744.506,1.815s1.84.9,1.95,1.023-1.021.511-1.083.756.4.723.331.793-1.688.916-1.751.988a3.858,3.858,0,0,0,.324,1.8c.282.371,2.062,2.248,2.062,2.4s-3.278,3.966-3.331,4.122-.652,2.752-.757,2.82a17.67,17.67,0,0,1-2.079.261c-.089-.017-2.736-1.226-2.9-1.169s-1.225.5-1.331.5-2.245-.942-2.55-1.053-.8-2.3-.922-2.419a27.5,27.5,0,0,1-1.568-2.872,9.784,9.784,0,0,1-.159-1.534c.053-.017,2.714.562,2.838.607s1.356-2.211,1.551-2.3a13.607,13.607,0,0,1,1.586-.494,16.35,16.35,0,0,0,1.41-1.833c.123-.106,3.125-1.051,3.2-1.122S425.427,259.516,425.539,259.422Z" transform="translate(-0.282 -97.472)" fill-rule="evenodd" fill="url(#linear-gradient)"/>
      <path id="パス_68" data-name="パス 68" d="M408.4,281.028c.132-.416,2.093-.165,2.377-.192a7.626,7.626,0,0,1,2.83.455c.661.4,3.807.2,4.071.418s3.463.332,3.543.763.74.7,1.269,1.109a12.264,12.264,0,0,0,2.2.968c.338.153-.524.926-.74.923s-3.165-.6-3.421-.644-3.9-.193-4.275-.278-5.536-1.057-5.887-.968S408.214,281.609,408.4,281.028Z" transform="translate(0.221 -99.57)" fill-rule="evenodd" fill="url(#linear-gradient)"/>
      <path id="パス_69" data-name="パス 69" d="M428.718,285.008c.152-.4,1.78-.125,1.992,0s1.11-.176.987.318-1.346.97-1.484,1.023S428.525,285.518,428.718,285.008Z" transform="translate(-1.735 -99.957)" fill-rule="evenodd" fill="url(#linear-gradient)"/>
      <path id="パス_70" data-name="パス 70" d="M435.169,285.2c.08-.2,1.062.092,1.2.111s1.938-.912,2.115-.526-2.1,1.778-2.45,1.813S435.057,285.48,435.169,285.2Z" transform="translate(-2.356 -99.947)" fill-rule="evenodd" fill="url(#linear-gradient)"/>
      <path id="パス_71" data-name="パス 71" d="M438.708,286.3a15.789,15.789,0,0,1,2.962-.934c.346-.053,2.09-.44,2.179.115s-3.12,1.192-3.207,1.42,0,.863-.211.934a9.3,9.3,0,0,1-1.868.363A4.37,4.37,0,0,1,438.708,286.3Z" transform="translate(-2.679 -99.993)" fill-rule="evenodd" fill="url(#linear-gradient)"/>
      <path id="パス_72" data-name="パス 72" d="M402.869,276.616a9.751,9.751,0,0,0,2.367,1.947c.343.089,1.507-3.468,1.507-3.468a10.853,10.853,0,0,0-.463-2.258c-.2-.159-1.788-1.523-2.1-1.806s-.672-1.534-.89-1.781a23.891,23.891,0,0,0-3.226-2.44c-.347-.056-3.918-2.723-3.918-2.723s-1.835-2.3-1.936-2.432a18.852,18.852,0,0,0-2.861-.546,4.14,4.14,0,0,0,.488,2.211c.356.24,2.577,1.844,2.538,2.167s1.56,1.762,1.719,2.164.846,2.331.846,2.331a10.168,10.168,0,0,1,1.533.86c.182.216,1.851,3.581,2.062,3.9S402.749,276.3,402.869,276.616Z" transform="translate(1.865 -97.675)" fill-rule="evenodd" fill="url(#linear-gradient)"/>
      <path id="パス_73" data-name="パス 73" d="M223.454,176.756c-.08.535.682,1.322.682,1.322a7.976,7.976,0,0,1,1.517-.208c.348.049.289-1.023.84-.949s-.055-.165,1.683-.165a8.686,8.686,0,0,0,3.5-.933l2.51-.27a.931.931,0,0,1-.669-.843,10.13,10.13,0,0,1,.258-1.661,6.649,6.649,0,0,0-.582-1.912,8.594,8.594,0,0,1-1.48-1.253c-.264-.423-1.223-1.04-2.039-1.894s-1.5-1.706-1.5-1.706l-.861-.819a15.513,15.513,0,0,0,1.582-2.32c-.019-.275-.827-.82-1.038-.741s-1.684.269-1.684.269.343-.106,0-.478,1.056-.5.64-1.161,0-.662-.64-.662-4.719.588-4.719.588-.316,1.736.136,1.815.951.225,1.1.6.278,1.29.716,1.6.738,1.5.738,1.5-1.321.231-2.687.4-2.267.7-2.123,1.342a3.139,3.139,0,0,1,0,1.248s-2.823-.085-2.595.671.97,1.8.97,2.07-.5,2.229-.5,2.229l2.89,1.394,2.882-2.4,1-2.076,1.969-.5a17.66,17.66,0,0,1-.9,2.991A19.421,19.421,0,0,0,223.454,176.756Z" transform="translate(18.676 -87.976)" fill-rule="evenodd" fill="url(#linear-gradient)"/>
      <path id="パス_74" data-name="パス 74" d="M324.063,125.249a19.583,19.583,0,0,0,3.25.29s-2.093-1.928-2.251-2.087a28.484,28.484,0,0,1-.319-4.229,13.812,13.812,0,0,1,1.45-3.343s4.9-1.838,5.45-1.97a4.672,4.672,0,0,0,1.877-1.031c.227-.328.1-1.162.842-1.255a40.6,40.6,0,0,0,4.233-1.52s6.241-.952,6.161-1.189.636-1.983,0-2.22-2.011-1.031-2.7-.767-5.842,2.52-6.291,2.608-2.723-.247-3.384,0-.723.674-1.523.855a11.752,11.752,0,0,0-1.887.688s-3.86,1.187-4.706,2.1a4.485,4.485,0,0,0-.9,1.124s-3.082,6.113-3.249,6.291.045.886-.824,1.408a11.409,11.409,0,0,0-1.16.76,7.828,7.828,0,0,0,1.038,1.56,13.1,13.1,0,0,0,1.948.4s.528,1.488.753,1.532S323.914,125.18,324.063,125.249Z" transform="translate(8.911 -82.729)" fill-rule="evenodd" fill="url(#linear-gradient)"/>
      <path id="パス_75" data-name="パス 75" d="M449.658,210.459c-.226-.185-1.163-1-1.118-1.269s1.582-.962,1.766-1.063a4.731,4.731,0,0,0,.633-1.055,10.039,10.039,0,0,1,2.557-1.459c.563.008,1.276-.494,2.016-.442s1.881.367,2.228.064a16.048,16.048,0,0,0,1.341-2.576c.159-.317.915-.552.915-.552s2.292-.079,2.579-.6a35.507,35.507,0,0,0,1.555-3.531c0-.211-.291-2.987,0-3.252a13.694,13.694,0,0,0,1.057-2.979c.026-.246.142-1.065.142-1.065s1.206-.185,1.312-.793.74-2.406.793-2.776.792-2.749.555-3.2a8.886,8.886,0,0,1-.435-1.824v-2.089s.445-2.005.521-2.339a9.587,9.587,0,0,0-.521-2.736c-.173-.185-.89-1.133-.511-1.854s.274-2.8.98-2.825,1.553,0,1.658.37a26.493,26.493,0,0,1,.106,2.916,16.944,16.944,0,0,0-.092,3.288c.2.907,1.757,3.237,1.625,3.645s-.295.513-.61.513a8.461,8.461,0,0,0-2.106,1.189c-.033.107.733,2.176.786,2.9s-1.367,2.963-1.367,2.963,1.858,1.989,2.6,2.015,1.3-.183,1.539-.135.4.346.556,1.166-3.093,1.745-3.242,2.016a2.367,2.367,0,0,1-1.49.512c-.184-.1-1.612-.756-1.9-.6s-.915.714-.63,1.111a5.531,5.531,0,0,1,1.343,2.088,5.092,5.092,0,0,0,.556,1.507,20.142,20.142,0,0,0-1.3,3.965c-.079,1.137-1.206,2.013-.88,2.54a1.133,1.133,0,0,1,.14,1.266,6.312,6.312,0,0,1-1.824,1.064,6.366,6.366,0,0,0-1.057.725,13.829,13.829,0,0,1-2.273-.44h-2.01a9.612,9.612,0,0,0-2.925-.285c-.854.205-2.652.716-2.757.725a1.878,1.878,0,0,0-.559,1.622,5.384,5.384,0,0,1-.392,2.484c-.265.9-.4,1.523-.745,1.23A11.591,11.591,0,0,1,449.658,210.459Z" transform="translate(-3.645 -88.927)" fill-rule="evenodd" fill="url(#linear-gradient)"/>
      <path id="パス_76" data-name="パス 76" d="M437.645,258.4c-.119-.205.337-1.4.2-1.982s-.827-1.869-.8-2.15.236-1.51.553-1.5,1.207.487,1.261.878.247,1.379.247,1.379a8.849,8.849,0,0,1,2.107-.464,14.936,14.936,0,0,1,1.366,2.126c.2.343.711,1.776.305,2.4s-.318,1.242-.734,1.165-.548-.581-.641-.31-.474,1.447-.951,1.13-1.736-1.257-1.7-1.646.4-1.024.193-1.235S437.936,258.9,437.645,258.4Z" transform="translate(-2.538 -96.872)" fill-rule="evenodd" fill="url(#linear-gradient)"/>
      <path id="パス_77" data-name="パス 77" d="M436.239,247.788c-.213-.072-.393.78-.6.641s-.5-.718-.608-.165-.367,1.262-.458,1.236-.8-.448-.819-.856-.391-1.375-.335-1.56.444-.909.328-1.094-.782.127-1.072-.088-.869-.6-.869-.838.787-1.48.684-1.851a15.37,15.37,0,0,1-.228-2.8c.072-.344.469-1.031.84-.925a4.768,4.768,0,0,1,1.072.766c.2.13.483,0,.75.793s.465.7.472,1.685a8.824,8.824,0,0,1-.655,2.254c-.026.371-.279.849-.1,1.046a18.43,18.43,0,0,0,2.144.785c.257.126.413.339.7.436S436.554,247.894,436.239,247.788Z" transform="translate(-2.033 -95.593)" fill-rule="evenodd" fill="url(#linear-gradient)"/>
      <path id="パス_78" data-name="パス 78" d="M249.513,96.657a16.753,16.753,0,0,1,4.758-1.155c.529.17,4.7-.329,4.951-.268a18.447,18.447,0,0,0,2.556-.751s3.843-.17,4.565-.336,4.381.166,4.719,0,3.986-.007,4.2.574.581,3.55-.74,3.652a19.618,19.618,0,0,1-4.441,0c-.887-.232-2.326-.654-3.014-.858a24.129,24.129,0,0,1-4.005-.919c-1.176-.553-1.228-.175-.785.389a11.277,11.277,0,0,0,3.189,2.072c1.09.476,3.434,1.011,4.051,1.748s3.419,2.483,3.1,2.8-3.083,2.005-3.754,1.582-1.321-.945-2.432-1.582-2.9-2.56-3.371-2.83-2.081.9-2.157,1.417-1.133,4.463-1.291,4.682a3.829,3.829,0,0,1-2.591-.361c-1-.476-2.961-3.884-2.7-3.951s2.538-.089,2.643-.738.39-1.793-.228-1.655-2.481,1.533-2.924,1.215-2.474-1.889-2.569-1.975S249.354,98.276,249.513,96.657Z" transform="translate(15.519 -81.594)" fill-rule="evenodd" fill="url(#linear-gradient)"/>
      <path id="パス_79" data-name="パス 79" d="M465.315,116.579a20.63,20.63,0,0,0,3.243,1.3c.419,0,1.846.723,1.981,0s-.562-3.206-1.324-3.252a13.028,13.028,0,0,1-3.062-1.208c-.168-.106.873-.811,1.445-.811a16.5,16.5,0,0,0,1.911.222c1.375.024,1.762-.615,2.115-.489s3.245.23,4.406.777,4.452.457,4.581.163,1.413-.96.759-1.469-5.467-1.355-6.321-1.5-4.413-.493-5.576-.846a25.751,25.751,0,0,0-3.556-.621c.067.022-.908.537-1.046.676s-1.495-1.112-2.446-.9-2.855,1.016-2.855,1.513a11.983,11.983,0,0,0,1.621,3.262c.282.23,3.578,1.428,3.727,1.463A7.452,7.452,0,0,1,465.315,116.579Z" transform="translate(-4.707 -82.992)" fill-rule="evenodd" fill="url(#linear-gradient)"/>
      <path id="パス_80" data-name="パス 80" d="M305.671,298.443c-.049-.665,4.5-1.769,4.5-1.769s2.126-1.99,2.514-2.413.423-2.062.6-2.3,2.095,1.807,2,2.159.01,3.127-.166,3.854-1.044,3.584-1.044,3.584-1.917,6.413-2.234,7.576-1.918,3.154-2.245,3.11a17.2,17.2,0,0,1-3.476-.607c-.753-.361-1.631-4.574-1.568-5.054s1.758-2.068,1.792-2.578S305.707,298.925,305.671,298.443Z" transform="translate(10.219 -100.644)" fill-rule="evenodd" fill="url(#linear-gradient)"/>
      <path id="パス_81" data-name="パス 81" d="M140.237,128.537c-.242.384.749,5.35.925,6.443a17.909,17.909,0,0,0,2.92,5.515c.766.649,4.868,7.7,5.785,7.983s2.467-1.733,3.031-.966,1.72.963,2.974,1.81,4.357-2.484,3.934-3.392-.66-6.008-.66-6.008a11.761,11.761,0,0,1,.7-1.981c.242-.319,10.329-2.549,10.322-3.282s2.775-4.322,3.218-4.7,6.513-1.584,7.062-1.663,6.6-1.936,7.291-2.19,1.885-2.513,2.1-3.393-2.294-3.558-2.451-3.558a14.014,14.014,0,0,1-.578-2.475s4.858-2.248,5.636-2.6,2.7-3.953,2.7-4.2a23.76,23.76,0,0,0-2.7-2.41s-3.452-1.285-2.606-2.06,4.256-.794,4.876-.855-.807-2.07-2.56-3.569-2.147-1.259-2.316-1.92,4.591-6.344,6.313-6.062,7.291-2.89,7.291-3.454-2.63-2.819-3.712-2.995-4.2,1.546-4.582,1.495-6.3.584-6.3.584-1.476-1.755-2.042-1.9-3.86.068-3.341-.461,5.242-1.628,5.312-1.89-2.529-.9-3.8-.9-5.926-3.031-7.124-3.172a68.649,68.649,0,0,0-9.274.338c-2.263.314-5.631,1.4-6.574,1.41s-10.3-.747-11.291.233a22.86,22.86,0,0,1-3.257,2.276c-.338.254-5.134,2.66-6.917,2.033s-3.642-1.233-3.642-1.233-7.162,2.914-7.281,2.876-4.657,2.782-5.08,2.9a36.227,36.227,0,0,0-4.133,2.188c-.249.249.661,1.289,1.114,1.6s1.848.792-.336,1.713-5.968,1.593-6.242,2.009-2.7,1.5-2.406,1.873,2.736,1.788,2.852,2.5.233,2.684.528,2.736,2.5.857,3.5,1.127a39.184,39.184,0,0,0,6.825.478,45.951,45.951,0,0,1,5.146.286,16.577,16.577,0,0,1,3.384,1.97c1.281,1.067,4.071,7.368,4.071,7.49a26.421,26.421,0,0,1-.518,2.837c-.222.774,1.92,5.553,1.92,5.553A12.75,12.75,0,0,1,140.237,128.537Z" transform="translate(28.71 -80.263)" fill-rule="evenodd" fill="url(#linear-gradient)"/>
      <path id="パス_82" data-name="パス 82" d="M194.275,140.723c0-.17,3.024-.639,3.21-.32a5.324,5.324,0,0,0,2.619.636c.247-.141,4.124-1.128,4.124-1.128a10.955,10.955,0,0,1,2.185.652c.6.335,2.43,1.145,2.149,2.062a5.176,5.176,0,0,1-2.538,2.961,11.5,11.5,0,0,1-4.591.911,20.282,20.282,0,0,1-5.206-1.335,13.123,13.123,0,0,0-.24-2.459A6.831,6.831,0,0,1,194.275,140.723Z" transform="translate(20.837 -86.006)" fill-rule="evenodd" fill="url(#linear-gradient)"/>
      <path id="パス_83" data-name="パス 83" d="M125.009,86.358c-.25-.586-4.293-2.436-4.819-2.47a49.712,49.712,0,0,1-7.288-.379c-2.257-.471-3.215.442-3.545.773s-3.806-.135-4.96-.543-2.816-.148-4.191-.148-3.489.9-5.1,1.016a3.443,3.443,0,0,0-2.418,1.454c-.173.089-2.682-.09-3.728,0s-1.666,1.111-2.167,1.284a27.634,27.634,0,0,1-4.073-.211s-4.6,2.14-3.764,2.2a9.063,9.063,0,0,1,2.206.769c.25.172,1.019,1.732,1.163,1.845a6.555,6.555,0,0,0,2.41.811,3.268,3.268,0,0,0,2.711-.811c.389-.417,1.819,1.156,1.974,1.382s-1.212,2.278-1.212,2.278a10.133,10.133,0,0,1-2.614-1.237,8.3,8.3,0,0,1-1.3-.957s-2.813-.434-3.186-.522-1.1-1.956-1.255-2.115-3.674-.823-3.674-.823L75.658,91.1s-.746.7-.652.849,1.321,1.19,1.321,1.19l-2.748-.38-.895,2.308,1.855,1.935s1.612.755,2.148,1.055a9.258,9.258,0,0,1,1.572,1.659c.244.264,1.857,1.53,2.424,1.381s4.72-.485,5.074.307.862,2.168,1.638,2.055-1.474,1.582-2.662,1.382a2.261,2.261,0,0,0-2.023,1.119H80.683s-3-.273-3.439-.422a29.92,29.92,0,0,0-3.956-1.394c-.484.043-1.219.921-1.219.921l1.535,1.294s2.67.709,3.641.849,1.18,1.228,1.392,1.638,1.057,3.29,1.779,3.428a6.674,6.674,0,0,0,2.51-.73,15.268,15.268,0,0,1,1.231,1.127c.655.667,4.791.576,5.627.822a39.118,39.118,0,0,0,6.129,0,3.881,3.881,0,0,0,3.159-2.153c.133-.586-1.975-2.168-1.975-2.168s-4.326.022-5.877-.075-4.643.79-5.461.7a32.951,32.951,0,0,1-3.475-.95,10.36,10.36,0,0,1,1.584-1.086c.209-.073.341-.418.421-.748.263.011.554.028.877.053,2.67.216,5.631.948,7.778.869s2.717.184,4.024.014,2.129-1.186,2.78-2.5-.281-.926-.064-1.306,4.707-2.2,4.707-2.2a8.624,8.624,0,0,1-.633-2.8c.115-.878,3.956-.76,4.644-1.291s2.991-3.4,3.411-3.832a9.022,9.022,0,0,1,4.81-3.187c3.41-1.1,2.511-.751,2.524-1.124s-1.089-.768-1.089-.768a45.765,45.765,0,0,0,6.415-.925C126.111,87.494,125.258,86.943,125.009,86.358Z" transform="translate(32.603 -80.563)" fill-rule="evenodd" fill="url(#linear-gradient)"/>
      <path id="パス_84" data-name="パス 84" d="M72.538,119.347c.6.006,2.627-1.634,2.886-1.654a11.709,11.709,0,0,1,2.336.558c.341.171-1.6,2.741-1.314,3.138s1.84,1.084,2.123.5-.676-.922-.534-1.741.056-1.946.6-2.005a26.757,26.757,0,0,1,3.234-.451,9.283,9.283,0,0,0,2.689,1.651c1.751.749.344-1.651.344-1.651s1.75-.211,1.92-.02,4.953,2.736,5.075,2.764.252.811.742,1.027a20.4,20.4,0,0,1,2.662,1.328c.259.262,1.586,1.2,1.586,1.2a36.067,36.067,0,0,1,4.307,1.383c.393.324,2.287,1.721,2.287,1.721s.8.967,1.172,1.424,1.214.686,1.413,1.085-.237,1.6-.187,1.96,2.824,1.883,2.95,2.173.582,1.876.582,1.876,2.092-.189,2.553-.268,3.58.82,3.368,1.665-.317,1.8-1.216,1.721-1.787.2-1.769.452-1.866,1.866-1.866,1.866a6.478,6.478,0,0,1-2.469-1.253c-1.35-1.041-2.819-2.188-2.819-2.188l-.117,1.574s1.136,2.417,1.579,2.5,3.02.732,3.02.732l.433,2.79s-.75,1.79-1.807,1.61a34.557,34.557,0,0,1-4.33-1.61s3.618,2.386,3.128,2.966-.655,1.167-1.6.847a20.155,20.155,0,0,1-3.063-1.755c-.159-.1-3.346-.953-3.346-.953s.6-.261-.725-1.1-3.489-2.448-3.489-2.448a17.9,17.9,0,0,1-2.508.231c-1.14,0-4.14.33-4.041-.231s-.981-1.785.378-2.086l3.937-.871s.147.512,1.3.324,1.685-1.873,2.207-2.28a1.859,1.859,0,0,0,.688-2.459,6.074,6.074,0,0,0-1.192-2.1c-.3-.234-4-1.453-4.261-1.716s-.973-1.6-1.359-1.829-1.252-.67-1.426-.424-.491,2.467-.677,2.44a5.886,5.886,0,0,1-1.9-.6,16.542,16.542,0,0,1-1.467-2.893,13.737,13.737,0,0,0-1.417,1.473c-.308.46,1.234,2.638,1.234,2.638a32.62,32.62,0,0,1,1.163,3.241,29.492,29.492,0,0,1-2.064,2.11s-2.533.478-2.533,1.206-.623.844.452,1.739a23.441,23.441,0,0,0,2.982,1.863c.613.4,3.082.543,2.9,1.037a2.206,2.206,0,0,1-1.741,1.635c-1.255.268-3.229.437-3.44,0s-.427-2.075-1.307-1.891-1.726,2.132-2.219,2.145a20.341,20.341,0,0,1-2.117-.255s-1.037-1.283-1.081-1.371.872-1.105.872-1.267-.106-1.355-.529-1.286-2.54,1.584-2.486,1.865-1.567.688-1.567.688.211,1.421-.317,1.371-2.354-.789-2.482-.3A1.272,1.272,0,0,0,69.017,146a23.462,23.462,0,0,1-2.361,2.6,4.708,4.708,0,0,0-1.375,1.75,7.192,7.192,0,0,0-.529,2.063l1.586,3.422s.5,1.234.652,1.7.017,1.535.793,1.994a16.837,16.837,0,0,0,3.56.811c.247.07,4.3,2.036,4.97,2.392a7.1,7.1,0,0,0,2.15.639c.282,0,2.784.07,3.1,0s2.291,2.608,2.291,2.749.223,2.651.223,2.651,1.187,1.191,1.715,1.191,2.952-.058,2.8-.323-.3-2.6-1.074-3.378a3.051,3.051,0,0,1-1.057-1.9c0-.423-.333-1.3.309-1.339s3.19-.6,3.273-1.057.753-.881.436-1.9-.288-3.278-1.308-3.63-2.039-.846-1.9-1.093.528-1.18,1.3-.961,1.6-.724,1.225-1.2-1.459-1.536-1.482-1.818a2.514,2.514,0,0,0,.187-2.089c-.423-1.506-.472-1.932-.588-2.212s1.075-1.215,1.254-1.047a5.834,5.834,0,0,0,1.907.805,13,13,0,0,0,2.82.447s1.482-.036,1.819,0,2.514,2.368,2.868,2.511,1.424.532,1.974.775,1.414.526,1.5,1.1-.511,1.23.335,2.217,1.163,1.281,2.009,1.328a6.7,6.7,0,0,0,2.766-.693c.617-.317.194-2.4,2.062-1.835a7.063,7.063,0,0,1,3.172,2.375l.987,3.473.056,1.576a3.99,3.99,0,0,0,.479.817c.155.122,2.548,3.335,3.544,3.487s1.38-.024,2.087.152,1.189.4,1.213.606-.838.789-.284.937a6.749,6.749,0,0,0,1.4.148l.211,1.09a15.987,15.987,0,0,1,.775,3.061c-.141.29-.388.572-1.727,1.171s-3.234.423-3.2.811-.96,1.621-1.345,1.551a19.966,19.966,0,0,0-2.5.952c-.141-.035-3.9,3.26-3.942,3.956a6.784,6.784,0,0,0,.455,1.97,6.26,6.26,0,0,0,2.137,1.013,9.07,9.07,0,0,0,2.088-.7c.133-.059.5-1.257.745-.821a5.792,5.792,0,0,1,.753,1.831c-.015.4.258,1.075-.9,1.158a18.475,18.475,0,0,0-2.689.479s-2.069,1.9-2.879,1.8-2.344.03-2.379-.174-.209-1.521.159-1.388.745-1.117.745-1.117a5.526,5.526,0,0,0-1.627.4,16.183,16.183,0,0,1-1.634,1.633c-.656.5-2.771,1.613-2.841,1.657s-1.8,3.042-1.8,3.042,1.3-.468.859.576-3.574,2.7-4.1,2.664-2.573.458-2.679,1.445-.647,4.018-.958,4.053-1.187-.005-1.086.562,1.753,1.658,1.635,2.328a11.919,11.919,0,0,1-1.99,2.665s-5.373.384-5.529.824-2.961,2.855-2.909,3.066a55.422,55.422,0,0,0,1.885,5.454,3.051,3.051,0,0,1,1.024,2.71c-.178,1.669,1.3,3.4-.777,2.55s-1.976.458-2.239-.952.228-1.3-.706-2.57a14.029,14.029,0,0,1-1.708-2.54,11.685,11.685,0,0,0-1.375-1.868,18.1,18.1,0,0,1-4.511-.7c-1.234-.565-2.325,1.155-3.137,1.318a30.644,30.644,0,0,1-4.547-.449,6.982,6.982,0,0,0-3.665,1.21,1.348,1.348,0,0,1-.988.916A5.859,5.859,0,0,0,61.158,214c0,.094-.141,4.264-.141,4.264s-.282,4.641-.318,4.747a9.354,9.354,0,0,0,1.583,3.806,6.163,6.163,0,0,0,1.95,1.445h3.834c.211,0,1.375.95,1.868-.971s-.57-2.276.564-2.619,4.845-1.173,4.845-1.173,1.464-.216,1.746,0-1.525,4.038-1.746,4.628a19.023,19.023,0,0,0-.483,2.355s.042,2.046.483,2.238.794.018,1.711,0,3.6,1.022,4.091,1,.656,2.052.767,2.193-1.133,5.062,0,5.457,3.393,1.347,3.393,1.347,1.44-.1,2.55-.316S90.9,244,91.249,243.91s1.171-.472,1.277-.993-1.1-2.76.916-2.919,4.652-1.445,5.111-1.2,1.18,1.751,1.18,1.751-.9,2.127-.408,2.162,1.731.506,1.449-.576-.873-2.1-.62-2.194a5.2,5.2,0,0,0,1.029-.783c.014-.043-.894-1.312,0-1.136s3.573.493,3.573.846a3.889,3.889,0,0,0,1.163,1.838,13.3,13.3,0,0,0,2.185.347c.282,0,2.291-.522,2.291-.522a16.873,16.873,0,0,1,2.445-.016,7.165,7.165,0,0,1,1.608.962,15.184,15.184,0,0,1,2.185,1.974c.176.211,3.543,3.407,3.543,3.407a2.764,2.764,0,0,0,1.9.936c1.047-.043,4.572,0,4.572,0s5.181,2.211,5.216,3.2a19.793,19.793,0,0,0,0,2.079,44.758,44.758,0,0,1-1.022,4.582,3.309,3.309,0,0,0,1.03,2.237,15.88,15.88,0,0,0,2.635-.784c.6-.429,1.516-1.98,2.115-1.7s4.194,2.491,4.194,2.491-1.022.947.352,1.026,1.128-.431,2.5,0a6.165,6.165,0,0,0,1.938.432c.211,0,4.157,0,4.722.986s.671,1.693,1.411,1.763,2.749-.811,2.89,0,.214,2.021.214,2.021l-.214,4.676a28.926,28.926,0,0,0-2.432,2.925c.07.176-2.4,2.538-2.432,2.855a14.759,14.759,0,0,0-.035,2.855c.141.775-2.356,5.277-2.356,5.753a9.093,9.093,0,0,1,0,1.754c-.111.846-1.45,2.552-1.486,2.738s-.352,1.315-.564,1.385a9.02,9.02,0,0,1-2.749.785,23.919,23.919,0,0,1-2.467,0c-.458-.116-5.109,3.515-5.109,3.515s-.777,1.268-.5,2.043a7.386,7.386,0,0,1-.176,2.749s-2.887,1.957-2.749,2.784-.352.6-.352,2.185-2.15,4.973-3.137,6.363-3.419,2.579-3.947,2.849-7.719,7.917-7.719,7.917-5.2,2.991-5.752,3.242a3.193,3.193,0,0,0-1.6,1.974c-.258.987.7,2.592-.38,2.759a5.193,5.193,0,0,0-2.028.485c-.282.245-.634,1.454-.388,1.642s3.054,1.422,2.8,2.586-.435,1.769-1,2.083-2.261.106-2.342,1.284,2.164.737-.433,1.884-2.132,1.633-2.12,2.112a6.952,6.952,0,0,0,.714,1.765,8.011,8.011,0,0,0,1.034,1.8,10.587,10.587,0,0,0,1.949,1.554c.282.279,2.291,1.8,1.833,2.222s-3.806,2.145-4.511,1.864a4.344,4.344,0,0,1-1.3-.881c-.322-.247,1.123-.317-1.027-.811s-4.124-.211-4.159-.846.781-.894-.579-1.663a8.605,8.605,0,0,1-2.135-1.44,11.151,11.151,0,0,1,.811-1.162s.368-2.15-.5-3.1-1.435-.58-1.47-2.422-.247-1.208.106-2.618,1.46-3.524,1.365-3.7-.983-2.237-.734-2.633.99-1.561,1.378-2.089,1.163-.564,1.3-1.234,1.833-3.475,1.022-3.729-1.612.662-2.128-.254a2.7,2.7,0,0,1-.233-2.432c.282-.7.772-.141.738-1.057a10.8,10.8,0,0,0,0-1.555,13.182,13.182,0,0,1,0-3.543c.213-.083,1.13.23,1.694-1.424s1.392-2.183,1.189-2.994.2-3.7,0-4.864-.7-.846-.2-2.467.176-1.8.775-3.031a7.342,7.342,0,0,0,1.022-2.573c0-.634,1.112-6,.916-6.52s.018-.739-.291-1.973.2-1.446-.476-2.186-.96-1.8-1.206-1.833-5.5-2.525-6.274-3.611-1.833-1.64-1.974-2.169-.572-1.671-.572-1.671-2.318-5.484-2.6-5.66a8.6,8.6,0,0,1-1.093-2.01,5.546,5.546,0,0,0-1.163-1.656,8.87,8.87,0,0,1-1.551-2.679c0-.493-.994-1.586.155-2.044a4.308,4.308,0,0,0,1.749-1.269s-1.441-1.368-1.441-1.657-1.017-.14,0-1.268,1.071-3.63,1.071-3.63.572.951.946.581a12.092,12.092,0,0,0,1.141-1.975s2.219-.715,2.159-1.708a10.8,10.8,0,0,1-.035-1.259A8.446,8.446,0,0,1,89.634,248c-.033-1.094.963-1.087-.081-1.973l-1.045-.885s-3.63,1.2-4.159.67-1.128-1.53-1.339-1.628-1.393-.208-1.826-.734-.343-.505-1.436-1.055-2.271-.5-2.271-.776S76,236.967,76,236.967l-1.614-1.406a31.426,31.426,0,0,1-3.884.842c-.141-.141-4.617-2.256-4.652-2.4s.282-.5-1.128-.758a14.666,14.666,0,0,0-2.436-.264,12.889,12.889,0,0,1-3.33-.665,10.579,10.579,0,0,0-1.812-.921,21.988,21.988,0,0,0-2.643-.458,15.78,15.78,0,0,1-3.173-1.7,17.354,17.354,0,0,1-1.974-1.47c-.719-.7-2.784-.564-2.079-1.8a3.771,3.771,0,0,0-.776-4.511c-1.375-1.163-2.5-2.656-2.925-2.614s-1.478-1.474-1.532-.24,0,3,0,3l-2.134-.319A21.8,21.8,0,0,1,37.622,218c-.149-.634.062-1.093-.572-1.551s-1.675-1.445-1.983-1.586a32.9,32.9,0,0,1-2.688-4.754,12.01,12.01,0,0,0-.757-1.911c-.634-1.512.6-.913-1.269-2.358a25.38,25.38,0,0,0-2.784-1.952s-3.522-2.595-3.382-2.806A19.588,19.588,0,0,0,23.049,198c-.134-.421.29-1.5-.2-1.919s-2.972-2.185-2.972-2.185a35.385,35.385,0,0,0,.2-4.3c-.139-.74-.8-1.41-.737-2.608a14.139,14.139,0,0,0,0-1.843s.008-2.07,0-2.281,1.1-3.317.544-4.088,1.653-2.714,1.062-2.714a8.763,8.763,0,0,1-2.53-1.057c-.352-.211-4.159-3.172-4.159-3.172s-2.079-1.656-2.256-1.833a29.746,29.746,0,0,1-2.4-2.749,9.874,9.874,0,0,0-1.09-2.5c-.285-.141-2.012-1.657-2.223-1.833s-1.347-1.674-2.013-1.507-1.618.379-1.688.167a15.838,15.838,0,0,0-.634-2.538c-.371-.84-.812-1.856-.812-1.856S-3.94,155.144-4.786,155s-1.48.2-2.89-.361-3.031-1.246-3.031-1.246-2.554-1.911-3.11-1.919-2.756-.266-2.637.31.6,1.2.213,1.409a17.167,17.167,0,0,1-2.608.437c-.282.057-1.886,2.489-2.53,1.678s-1.1-.624-.713-1.81,1.2-1.5.493-1.855-2.257-1.107-2.186-.007-.508,2.059-.113,3.218.643,1.4.537,1.7-6.373,4.254-6.5,4.322a4.134,4.134,0,0,0-2.14.679c-1.163.766-2.467,1.824-3.137,2.352s-1.154-.371-2.287.387-1.942,1.441-2.682,1.25-2.22.161-1.269-.791.371-.916,1.807-1.375,1.869-.834,3.938-1.48,1.3-.448,2.82-1.6,1.818-1.644,1.826-2.032-.2-2.063-.2-2.063-1.341-.9-2.187-.122-2.762,1.576-3.355.471-.478-2.052-1.509-2.409-3.1-1.1-3.1-1.1l-.751-.947a6.1,6.1,0,0,0-.2-1.411,9.614,9.614,0,0,1,0-2.468c.07-.034.141-1.586,1.234-1.374a7.821,7.821,0,0,0,3.264-.212c.225-.175,1.369-2.22.973-2.5s-1.073-1.046-1.191-1.049-3.117.113-3.117.113a12.756,12.756,0,0,1-2.589-.6c-.019-.194-.086-3.346,0-3.321s1.391-3.111,1.391-3.111,2.316-.356,1-1.165a16.013,16.013,0,0,1-2.233-1.655l.106-2.821a23.332,23.332,0,0,1,3-.458c.176.107,1.983-2.714,2.665-2.749s4.538-.2,5.677-.362a4.333,4.333,0,0,0,2.337-.765c1.269-.7,2.82-1.375,3.172-1.2s.7,1.234,1.234,1.5-.035-.018,1.093.264a15.449,15.449,0,0,0,2.788.407c.455.016,5.978-.136,6.513.58s.321,1.2,1.731,1.3a22.025,22.025,0,0,0,3.63-.247c1.057-.07,3.348-.341,3.348-.341s3.137,1.319,4.194,1.905,2.079,1.31,2.784.948-.572-1.279,1.423-1.384a25.476,25.476,0,0,0,3.581-.446l7.943-1.621s-.295-1.245,1.221-.453,3.806,1.807,3.806,1.807a1.622,1.622,0,0,1,2.538-.9c1.812,1.172,2.467,1,2.467,1A5.075,5.075,0,0,0,26.84,131a25.729,25.729,0,0,0,4.027-.21c.65-.057,3.251,1.237,3.4,1.841s-.907,1.618.5,1.816a7.02,7.02,0,0,0,3.043-.459l3.581.411a4.545,4.545,0,0,0,2.585.034c.869-.458,1.341-1.572.9-1.551s-.805,1-1.339.605-1.41-1.019-1.41-1.235.458-.956-.247-.745a29.439,29.439,0,0,1-5.075.478,4.4,4.4,0,0,1-2.044-.836A15.125,15.125,0,0,1,32,130.363c-.38-.3-1.618-.243-1.86-.821s-.634-.99-.141-1.554,1.163-.54.74-.939-1.994-.408-1.886-.536a9.1,9.1,0,0,0-.508-1.866s.343-.606-.164-.642-1.037-1.109-1.037-1.109-1.727.651-1.868,1-1.388.825-2.37,1.01a19.715,19.715,0,0,1-2.511.22,5.772,5.772,0,0,1-1.462-1.018,15.044,15.044,0,0,0-2.115-1.48,15.3,15.3,0,0,1,.987-2.684,4.395,4.395,0,0,0,.564-1.863c0-.282-.67-1.72.106-2.005s2.6-1.3,3.2-1.145,2.507.729,2.789.794,1.022-.206,1.41,0,3.419.178,3.595.351,2.134.6,2.53,1.124-.39,2.15-.491,2.326a1.24,1.24,0,0,0,0,.62l4.807-.159a13.218,13.218,0,0,1,2.882.5c.106.238-1.022,1.4.634.556s1.762-1.1,1.762-1.1,1.444-.537,1.586-.6,1.523.031,1.66-.246.631-2.744.631-2.744a31.755,31.755,0,0,1,3.454.987c0,.141-.916,2-.916,2a13.945,13.945,0,0,0,.413,3.1,10.66,10.66,0,0,0,2.089,2.473c.248.072.627,1.431,1.072,1.527a14.4,14.4,0,0,1,2.441,1.061,17.125,17.125,0,0,1,.859,2.338s-.6,1.741-1.552,2.145.1.4-1.748.473-3.84,0-3.84,0,1.323,1.494,2.7,1.417a24.261,24.261,0,0,1,3.583.225s2-.136,2.643-.113,2.254-.764,2-1.057-1.174-1.58-1.174-1.58l1.7-2.417s1.011-.948,2.315.373,2.467,1.868,2.079,2.44a12.121,12.121,0,0,0-1.454,2.129c.008.311-.576,1.862,1,.628a19.78,19.78,0,0,0,2.414-2.251c-.023.066-.588-2.218-.588-2.218s-1.586-1.206-2.115-1.541-1.807-.184-1.855-1.4-1.186-1.716,0-2.437.249-2.3,2.145-1.724,3.165-.372,3.588,1.037a20.143,20.143,0,0,1,.846,3.124,10.872,10.872,0,0,0,.69,2.217l1.244.534a9.888,9.888,0,0,0,.784,1.888c.208.132,1.723-1.694,1.723-1.694l1.868,1.048s-.775,1.73.07,2.575,1.41,1.975,1.8,1.164a15.843,15.843,0,0,0,.7-1.832l1.582-1.84-.2-2.217a5.608,5.608,0,0,1-2.229-.676c-.811-.556-.068-1.04-1.5-1.168a12.9,12.9,0,0,1-3.193-.879l.213-1.558-.753-1.4-.622-2.071s1.551-.113,1.727-.391S72.538,119.347,72.538,119.347Z" transform="translate(43.755 -83.6)" fill-rule="evenodd" fill="url(#linear-gradient)"/>
      <path id="パス_85" data-name="パス 85" d="M75.08,116.441a7.051,7.051,0,0,1,1.947-.646,4.092,4.092,0,0,0,2.62,1.275c1.5-.03,2.412-.816,2.412,0s.469,1.366-.295,1.779S79.646,120,79.646,120a1.374,1.374,0,0,1-1.1,1.268,12.471,12.471,0,0,1-1.884.277c-.774.04-1.514,1.156-1.8-.277a11.207,11.207,0,0,1-.391-2.438A10.416,10.416,0,0,1,75.08,116.441Z" transform="translate(32.371 -83.683)" fill-rule="evenodd" fill="url(#linear-gradient)"/>
      <path id="パス_86" data-name="パス 86" d="M63.838,118.64c.176-.46,1.386-.934,1.386-.934a5.4,5.4,0,0,1,2.139-.5c.638.146,2.068.3,2.228.6s.066,1.534.278,1.754,1.345,1.146,1.345,1.146l.47.973s-1.658,1.213-1.93,1.93.253,2.1-.977,1.263-1.81-1.3-1.81-1.3a5.907,5.907,0,0,0-1.474-.861c-.658-.211-2.277-.68-2.3-1.028A15.827,15.827,0,0,1,63.838,118.64Z" transform="translate(33.458 -83.818)" fill-rule="evenodd" fill="url(#linear-gradient)"/>
      <path id="パス_87" data-name="パス 87" d="M36.8,112.879c.127.776.141.338,1.921.338s2.132-.108,2.8-.584.176.982.406,1.259.572,1.2,1.493,1.092a4.953,4.953,0,0,0,2.25-.464c.821-.458.535-1.123,2.106-.984s1.957-.139,3.156,0a15.8,15.8,0,0,0,3.647.08,1.722,1.722,0,0,0,1-2.124c-.311-1.413.85-2.393-1-2.1s-.17,2.265-3.072.329-3.536-2.888-3.994-2.43-1.056.523-1.285,1.3-1.3,1.478-1.929,1.129-1.474-.507-1.65-.658-1.4-1.186-1.983-.478-2.112,1.1-1.947,1.787.313.868.183,1.184S36.629,111.8,36.8,112.879Z" transform="translate(36 -82.855)" fill-rule="evenodd" fill="url(#linear-gradient)"/>
      <path id="パス_88" data-name="パス 88" d="M33.313,110.84c.351.242.892-.067,1.821,0s1,.491,1.527-1.06.423-1.544.634-1.846,1.45-2.23,1.45-2.23.764-1.59-.555-1.206-2.163.135-2.8.77-2.523.887-3.693,1.4a22.52,22.52,0,0,0-3.113,2c-.172.1-.981.753-.4,1.307s.158,1.119,1.427.977,1.777-1,2.087-.853S33.313,110.84,33.313,110.84Z" transform="translate(36.848 -82.59)" fill-rule="evenodd" fill="url(#linear-gradient)"/>
      <path id="パス_89" data-name="パス 89" d="M43.19,104.556c-.549-.558-.91-.91-1.343-.931s-2.531-1.108-.831-1.111a16.309,16.309,0,0,1,2.786.155,6.1,6.1,0,0,0,2.218-1.709c.116-.388,1.6-1.833,2.25-1.2s2.273.317,1.919,1.974-1.788,2.22-2.674,2.679-1.544.471-1.867,1.082S43.476,104.847,43.19,104.556Z" transform="translate(35.656 -82.125)" fill-rule="evenodd" fill="url(#linear-gradient)"/>
      <path id="パス_90" data-name="パス 90" d="M59.17,108.043c.331-1.114,3.084.593,3.084.593l2.849-.466s1.444-.246,1.871.133,2.425-.377,2.395.758-.773,2.532-.613,2.961,1.71,1.492-.511,1.561-3.031.354-3.736,0-1.181-.954-1.771-1.307-1.024.512-1.477-.836a10.331,10.331,0,0,0-.911-2C60.174,109.033,58.94,108.814,59.17,108.043Z" transform="translate(33.848 -82.901)" fill-rule="evenodd" fill="url(#linear-gradient)"/>
      <path id="パス_91" data-name="パス 91" d="M73.689,112.167c.267-.55,1.856-.786,1.95-.667s1.249,1,1.253,1.107a1.817,1.817,0,0,1,0,1.178c-.24.517-.455.139-1.547.468s-1.8.9-2.043,0A2.522,2.522,0,0,1,73.689,112.167Z" transform="translate(32.494 -83.268)" fill-rule="evenodd" fill="url(#linear-gradient)"/>
      <path id="パス_92" data-name="パス 92" d="M69.254,100.657c-.106-.643,1.15-.293,1.15-.293s-.093-1.137,1.9.293,1.843,1.452,2.2,1.476a11.957,11.957,0,0,1,2.68,1.083c.108.174.942,1.434.068,1.619s-1.518.648-2.748.148a10.073,10.073,0,0,0-2.374-.935c-.476.013-2.293-.234-2.213-.692A21.416,21.416,0,0,0,69.254,100.657Z" transform="translate(32.875 -82.157)" fill-rule="evenodd" fill="url(#linear-gradient)"/>
      <path id="パス_93" data-name="パス 93" d="M56.687,99.785C56.2,98.408,57.92,97.9,58.026,97.9a17.314,17.314,0,0,1,1.914,0,18.484,18.484,0,0,0,2.553.862c1.736.477,2.46.09,3.262,1.13s2.1,1.552,1.153,2.476-.537,1.68-1.7,1.038-1.424-1.028-2.226-1.117-1.153.087-2.316-.072-1.415.254-1.924-.427-.326-1.056-.685-1.342S57,100.68,56.687,99.785Z" transform="translate(34.093 -81.958)" fill-rule="evenodd" fill="url(#linear-gradient)"/>
      <path id="パス_94" data-name="パス 94" d="M93.385,234.832c-.365-.1-1.532-.99-.238-1.162s2.118-1.229,2.482-.982,1.9-.359,3.191.153,2.213.136,3.024.889.907,1.3,2.093,1.36a15.746,15.746,0,0,1,2.2.346,7.592,7.592,0,0,1,2.788.984c.034.073.669.985-.248,1.111s-1.375-.126-2.009,0-.121,1.692-2.6-.156a16.819,16.819,0,0,0-3.707-2.285l-2.06-.437s-2.351.062-2.614,0A10.807,10.807,0,0,1,93.385,234.832Z" transform="translate(30.631 -94.933)" fill-rule="evenodd" fill="url(#linear-gradient)"/>
      <path id="パス_95" data-name="パス 95" d="M111.982,238.748c-.106-.437-.805-.341.32-.689s1.795-.811,2.641-.051.1.577,1.458.739a9.251,9.251,0,0,1,2.6.761s1.657,1.217.493,1.366-3.528-.535-3.7-.211-1.161-.095-1.584.45,0,.62-1.694.476-2.512-.637-2.512-.953.857-.633,1.386-.53,2.631.979,1.762.014S111.982,238.748,111.982,238.748Z" transform="translate(28.951 -95.412)" fill-rule="evenodd" fill="url(#linear-gradient)"/>
      <path id="パス_96" data-name="パス 96" d="M520.576,334.031c-.08-.208-1.964-3.277-.418-3.154A3.8,3.8,0,0,1,523,332.051c.18.428.885,2.579,1.449,2.878a15.089,15.089,0,0,1,2.89,1.286c.775.634,1.593,1.76,1.081,2.239s-2.469.389-2.709,1.03,1.4,3.067,0,3.846-1.788,2.682-2.794,1.2-1.256-1.9-1.256-3.454a30.258,30.258,0,0,1,0-3.215C521.772,336.991,520.723,334.415,520.576,334.031Z" transform="translate(-10.482 -104.393)" fill-rule="evenodd" fill="url(#linear-gradient)"/>
      <path id="パス_97" data-name="パス 97" d="M518.587,344.016c.336-.684,1.568.486,1.719.56s1.569,1.542.825,2.57-.882.746-1.518,1.522.066,1.128-1.026,1.269a3.806,3.806,0,0,0-2.761,2.729c-.163,1.218.126,2.916-1.29,2.205s-2.891-1.463-3.454-1.824-2.677-1.972-.7-2.833,1.342-1,2.89-1.546A16.033,16.033,0,0,0,518.587,344.016Z" transform="translate(-9.52 -105.638)" fill-rule="evenodd" fill="url(#linear-gradient)"/>
      <path id="パス_98" data-name="パス 98" d="M387.081,252.543c.285-.41-1.688-4.212-1.683-4.214s.065-1.794,0-2.342-4.074-2.407-4.3-2.735.042-2.53-.609-3.063a2.609,2.609,0,0,1-.781-2.554c.27-.868.491-3.733,1.029-3.59a19.583,19.583,0,0,1,3.815,2.873c.274.431,2.96,2.634,3.2,2.952s-.016,1.49.618,1.942a7.924,7.924,0,0,0,3.877.4c.282-.233.249-3.083.865-3.772a12.783,12.783,0,0,0,1.814-3.257c0-.324-.53-4.475-1.385-4.694a10.614,10.614,0,0,1-3.272-2.679c-.2-.412-1.568-3.172-1.568-3.172l2.839-3.384s3.186.546,3.568,1.471-1.429,2.258-1.087,3.636,2.35-.1,2.614-.636a20.657,20.657,0,0,0,0-4.066,3.13,3.13,0,0,1,2.309-.4c1.128.352,2.3-1.449,2.3-1.449l4.4.737s3.318-1.863,3.633-3.326a13.731,13.731,0,0,1,1.159-4.01,9.873,9.873,0,0,1,2.119-1.751s2.274-4.663,1.258-5.536-2.715-4.219-2.715-4.219-.03-2.087-.662-2.369-1.549-1.25-.421-1.541,4.532-1.809,4.532-1.809l-2.2-1.328a24.176,24.176,0,0,1-2.852.229c-.611-.061-.822-1.867.376-2.586a3.769,3.769,0,0,1,3.665,0c1.269.55,4.893-.315,4.959,0a16.63,16.63,0,0,0,.54,2.839c.211.179.588.08,1.108.617s.483,1.364.867,2.593-.784,2.031-.075,2.6,3.614-.654,3.626-1.474,0-4.338,0-4.338A19.972,19.972,0,0,0,422.4,192.3c-.276-.014-.458-2.128-.458-2.128s5.681-3.822,5.892-3.674a12.492,12.492,0,0,0,3.17,0,35.715,35.715,0,0,0,5.43-2.955,26.466,26.466,0,0,1,2.749-4.844c.775-.722,2.031-2.132,2.031-2.132s-.183-4.018.056-4.3a19.54,19.54,0,0,0,1.052-3.066,3.644,3.644,0,0,0,0-2.737c-.314-1.186-.319-2.721-1.588-2.935a7.5,7.5,0,0,0-3.52.815c-.347.161-2.377-1.246-2.377-1.246a23.449,23.449,0,0,1,2.866-3.452c1.551-1.476,4.266-4.548,5.093-5.162a19.324,19.324,0,0,1,5.474-2.075c1.243-.136,7.055-.835,7.619-.392a17.27,17.27,0,0,0,4.554,1.29c.592,0,3.834-1.488,3.834-1.942s-.395-3.976,1.106-3.943,5.369-1.369,6.077,0,1.259.565,2.113.722,3.111-1.906,3.111-1.906.7,1.712,0,2.557-5.908,1.4-5.7,2.017-2.957,4.243-2.944,4.585-2.758,2.154-2.888,2.366-.321,5.767-.321,5.767,2.442,5.8,2.356,6,2.89-2.111,3.235-2.365,1.173-3.352,1.4-4.068,1.48-1.952,1.551-2.242,1.275-2.343,1.06-3.326S476,152.948,476,152.948s5.029-3.975,5.936-2.921,4.76,1.376,5.465,1.658,5.921-4.653,7.049-4.653,5.885-2.317,5.885-2.317-.528-2.476-1.092-2.757-.9-1.366-.9-1.366,2.866-1.59,2.98-1.673.089-1.788.653-2.051a5.767,5.767,0,0,1,4.285,1.316,37.793,37.793,0,0,0,5.561,3.378l2.713-1.664s.03-2.07,0-2.593a18.614,18.614,0,0,0-2.934-3.94c-.239-.078-4.679-.974-5.525-1.619a53.322,53.322,0,0,0-6.38-3.066c-1.369-.549-4.9-2.223-6.167-2.368s-5.146-.012-6.2.557a25.053,25.053,0,0,1-3.43,1.262l-1.786-1.008-8.529.234-2.6-.912-3.46-3.041s-5.262-.415-5.873-.342a5.585,5.585,0,0,1-3.29-.5c-1.269-.691-3.292-2.409-3.665-2.5s-4.087-1.542-4.914-1.349-7.671-.163-7.9-.018a21.118,21.118,0,0,0-1.331,2.652s.469,1.6-1.011,1.6-6.453-.261-7.527,0-3.329,1.281-3.751,1.405-1.716-.946-1.716-.946a7.122,7.122,0,0,0-1.1-1.467c-.353-.211-2.326-1.431-2.326-1.879s1.036-2.779.61-2.974-8.224-1.786-9.352-1.18a16.908,16.908,0,0,1-4.793,1.541c-1.269.122-5.971-1.03-7.5-.948s-5.192-2.3-5.192-2.3,3.806-2.164,4.159-2.285,2.326-1.488.916-2.567-8.036-1.9-8.036-1.9-2.256.31-2.608,0-.745-2.731-3.544-3.106-3.928-.578-5.337.792-4.335,3.741-4.847,3.754-4.64.154-4.64.154-5.77.1-7.22,1.03-4.748,3.15-5,3.679-.271,1.739-1.2,1.873-3.75-.267-4.942.243-3.654,1.484-3.654,1.484-1.692,3.524-2.181,3.251-4.809.846-4.809.846-1.414-3.031-2.294-3.031-4.542.418-4.542.418-.633-2.159-1.551-1.747-2.059,3.514-2.059,3.514-1.816.427-1.889,1.06a9.806,9.806,0,0,1-2.3,3.594c-.592.28-3.148,2.783-3.306,2.836s-4.84-1.3-4.84-1.3a17.4,17.4,0,0,0-2.975-.848c-.38.08-2.126.292-2.126.292s-.7,2.433-.77,2.459-4.318,2.467-4.318,2.467a8.352,8.352,0,0,0-1.67-.889c-.2.056-4.143,2.364-4.638,2.288s-4.534,1.675-4.851,1.429-1.29-3.649-1.529-3.626-4.639-.884-5.132-.091-.768,2.132-1.319,2.29-7.108-1.975-7.512-2.124-6.5-2.648-7.136-2.72-2.729.005-2.993-.356,1.066-1.691.532-2.114a7.628,7.628,0,0,0-2.118-.775s-.355-.775-.884-.775a24.189,24.189,0,0,0-2.7,1.093,4.97,4.97,0,0,0-1.8-.07c-.334.136-2.453-.071-3.4.175s-2.425,2.129-2.707,2.1-3.056.158-3.313.718a1.735,1.735,0,0,1-.768.793s-1.523-.217-1.417.481.545,1.038-.005,1.155-2.125.582-2.064.8a4.664,4.664,0,0,1,0,1.207c-.043.106-3.356,2.573-3.674,3.1a34.587,34.587,0,0,0-1.516,5.111c0,.423-2.869,2.363-3.172,2.185s-5.555,2.45-5.5,2.926-1.5,1.707-1.5,2.21.414,2.512.414,2.512v3.278s2.106-.282,2.106.141-.326,1.555-.033,1.715,4.033-.4,4.165-.809,1.264-.836,1.667-.836,2.009,2.564,2.009,2.564l.606,2.521.325,1.474s-.352,1.293.282,1.455,2.321-1.573,3.24-1.666a10.14,10.14,0,0,0,2.893-1.378,25.64,25.64,0,0,0-.7-2.944s2.778-1.64,3.046-2.4.508-1.736,0-2.265a22.7,22.7,0,0,1-1.882-2.192c-.106-.247-.582-2.831.167-3.178s6.247-2.849,6.212-3.871-.3-3.125.035-3.276a14.29,14.29,0,0,1,3.909-.461c.356.212,1.822,1.409,1.847,1.744s-1.773,1.075-2.231,1.816a13.823,13.823,0,0,1-2.89,3.1c-.493.141-1.369-.035-1.583.564s-.6,3.735-.356,3.983a13.318,13.318,0,0,0,3.052,1.692,33.992,33.992,0,0,0,4.95.343c.211-.132,1.8-1.824,2.083-1.824s2.989,1.678,2.64,1.824a9.7,9.7,0,0,1-3.279,1.221c-1.62.2-3.112-.689-3.935-.07s-2.031,1.394-2.031,1.394a6.229,6.229,0,0,1,.659,1.559c.127.663-4.984,5.95-5.09,5.985a29.851,29.851,0,0,1-3.447,1.163c-.254-.07-2.807,1.4-3.487,1.492s-1.525.476-1.807.214-.964-1.218-1.516-.884a7.325,7.325,0,0,1-3.166.517,5.02,5.02,0,0,0-1.012-.746s1.625-.931,1.33-1.283-1.15-.8-1.2-1.025.99-.362.878-1.262-.6-2.909-.9-3.015-3.722,1.411-3.758,1.8,1.278,5.081,1.278,5.081.063,1.571-.225,1.724a20.158,20.158,0,0,1-2.251.528c-.625.144-2.43.346-3.013,1.212a36.89,36.89,0,0,1-2.8,3.475c-.282.211-2.467,2.572-2.679,2.572s-3.168,1.057-3.364.74-1.116-1.129-1.59-.265-1.316,2.344-1.582,2.274-2.417-.106-2.417.282,3,2.326,3.348,2.538a17.161,17.161,0,0,1,1.621,1.635,8.878,8.878,0,0,1,.409,2.142c-.092.453-.459,2.446-.828,2.706a12.213,12.213,0,0,1-2.789.461c-.141,0-3.7-.74-4.672-.811s-3.642-.1-3.662.145,0,3.239,0,3.239-.438,4.991,0,5.192,1.158,3.278,1.158,3.278l1.819.205,2.958,1.9a6.762,6.762,0,0,1,2.736-1.057,7.073,7.073,0,0,0,3.011-.841c.211-.216,2.643-3.071,2.608-3.177s-1.234-1.093-.775-2.044,4.4-2.114,4.441-2.757-.846-2.1.388-2.614a9.63,9.63,0,0,1,3.613-.5,6.7,6.7,0,0,0,2.2,0c.388-.152,2.513-1.773,2.649-1.738A5.745,5.745,0,0,1,246,185.2a15.411,15.411,0,0,0,2.16,2.442,37.476,37.476,0,0,1,3.983,2.563c.282.282,1.879,1.925,1.8,2.39s4.2.068,4.371-.051.91-1.705,1.544-1.635,1.983,1.745,2.268,2.185,1.334,2.89,1.577,3.207,1.054.012,1.864-.312,1.868-.625,1.8-1.161a15.52,15.52,0,0,0-1.1-2.285c-.243-.577-.8-1.735-.117-1.738a16.782,16.782,0,0,0,1.777-.143c.74-.071,4.406-2.654,4.406-2.654a32.284,32.284,0,0,0,1.608-3.585,15.673,15.673,0,0,1,.5-2.564s.747-2.277,2.016-1.937,2.9,2.185,3.26,2.21a17.361,17.361,0,0,0,2.417.743c.456-.073,2.536-.708,2.536-.708s4.335,2.575,4.829,2.8,2.474,1.638,2.436,1.991-.074,1.625-.25,1.64-3.159.588-4.347.725a4.686,4.686,0,0,1-2.843-.979,4.619,4.619,0,0,0-1.859-.708,7.389,7.389,0,0,0-3.934.823,8.7,8.7,0,0,1-3.824.933s-1.133-.594-1.133-.07.317,1.124-.6,1.265a17.591,17.591,0,0,0-3.2.634c-.258.211-1.139,1.1-1.033,1.341a6.629,6.629,0,0,1,.49,1.833,38.327,38.327,0,0,0,3.318,3.377l2.325.639s2.215-.817,2.573-.969,2.03.917,2.614.765,1.234-1.475,2.229-1.186,1.5.006,1.642.75,1.119,1.635.172,2.388a6.581,6.581,0,0,0-1.814,2.516c-.12.423-1.207,2.488-1.228,2.707a3.283,3.283,0,0,1-2.381.906c-1.3.052-3.665-.441-4.582,0a3.607,3.607,0,0,1-2.855.6c-1.375-.3-3.768-1.572-4.112-1.489a14.734,14.734,0,0,1-2.807-1.181s-.165-.642-1.328-.58-3.031.414-3.384.907a28.326,28.326,0,0,1-2.115,2.392c-.141.075-3.778-2.193-4.267-2.5a17.882,17.882,0,0,0-2.923-1.09,21.783,21.783,0,0,1-3.043-1.093,26.105,26.105,0,0,1,0-2.714s-.14-1.656-.469-1.8a4.764,4.764,0,0,1-.974-.883l-.942-1.688s-2.644,1.939-3.384,1.885-2.736-.376-3-.332a8.215,8.215,0,0,0-1.48-.205c-.775.06-3.26.537-3.26.537s-3.331.6-3.86,1.047a9.368,9.368,0,0,1-2.15,1.268,21.276,21.276,0,0,1-4.047.128s-2.861.393-3.39.534-2.341.775-2.633,1.692-1.078,4.235-1.032,4.29.1,2.784-.707,3.635a7.693,7.693,0,0,1-3.067,2.289,7.726,7.726,0,0,0-2.388,1.347l-3.989,6.943-1.255,2.227.9,3.518a27.109,27.109,0,0,1,.5,2.792c-.053.258-1.693,3.093-1.728,4.151a5.038,5.038,0,0,0,.331,2.784c.452.7,1.708,2.38,2.01,2.354s3.158,2.383,3.351,3.416a16.741,16.741,0,0,0,1.347,3.429,13.914,13.914,0,0,0,2.877,2.7,11.817,11.817,0,0,1,1.433,0c.232,0,2.538,1.352,3.384,1.422s3.207-1.611,3.877-1.422,3.771.81,3.771.81a20.768,20.768,0,0,0,2.15-.635c.388-.2,5.674-2.03,6.2-1.889a8.172,8.172,0,0,1,1.938,1.234c.573.427,2.009,2.291,2.855,2.361s3.017.141,3.235.211,1.326.814,1.347,1.48-1.2,3.066-1.2,3.7a20.333,20.333,0,0,0,.09,2.883,32.38,32.38,0,0,0,2.264,2.942,41.9,41.9,0,0,1,2.827,4.182c.247.568.952,5.537,1.163,6a19.278,19.278,0,0,1,.987,3.524c0,.564-3.207,4.1-3.313,4.617a44.468,44.468,0,0,0,.317,5.392,18.608,18.608,0,0,0,1.692,2.82,38.885,38.885,0,0,1,2.326,3.172c.106.247.247,5.745.423,5.992a29.341,29.341,0,0,1,1.339,2.982c.176.542,3.731,4.792,3.751,5.381s.182,3.34.277,3.8a3.084,3.084,0,0,0,.624,1.162c.211.277,1.234.382,1.586.453a31.721,31.721,0,0,0,4.476-.844c.493-.178,1.464.108,2.794,0a2.073,2.073,0,0,0,1.712-.8,10.235,10.235,0,0,1,2.4-1.11c.7-.079,4.834-4.368,4.829-4.934a2.377,2.377,0,0,1,.811-2.15c.809-.5,2.784-2.43,2.679-3.136a21.271,21.271,0,0,1,.256-3.235,26.615,26.615,0,0,0,3.445-3.215c.352-.7.352-4.293.352-4.6s6.564-8.049,6.775-8.261.083-.647.14-1.453.919-4.51.9-4.828-2-2.5-2.032-2.82-.833-4.3-.8-4.652.7-3.064.91-2.847,3.1-3.039,3.207-4.309,5.745-4.879,5.745-4.879,4.558-4.958,4.511-5.131,4.309-7.118,4.019-7.753-.389-2.911-.671-3.059-6.8,2.178-7.507,2.389a5.24,5.24,0,0,1-2.961.141c-.846-.352-2.749-4.332-2.749-4.332a15.328,15.328,0,0,0-1.669-2.189,14.424,14.424,0,0,1-2.172-1.057,25.79,25.79,0,0,0-2.408-3.969c-.941-1.025-1.381-1.088-1.689-1.643a28.406,28.406,0,0,1-1.013-3.164c-.141-.458-1.022-5.287-1.269-5.921,0,0-1.676-2.448-1.888-2.847l-1.439-2.712c.119.226,1.485.137,2.6,1.153s4.234,5.843,4.544,6.062a8.716,8.716,0,0,1,1.06,1.47s1.937,5.841,2.564,6.143,2.044,3.665,2.361,4.053,2.729,5.773,3.207,6.062,1.586,1.037,2.361.36,1.057-1.239,1.234-1.275a15.248,15.248,0,0,1,2.185-.353c1.2-.106,3.881-2.079,5.113-2.15s1.214-1.591,1.62-1.866a10.437,10.437,0,0,1,2.642-1.24c.482-.007,4.414-4.323,5.855-5.384s2.533-2.261,2.428-2.929-1.719-1.748-2.68-2.327-1.373-.8-1.619-1.756a7.084,7.084,0,0,0-.727-2.1c-.1.084-1.987,1.355-2.727,1.813s-4.811.211-5-.3-.079-1.6-1.1-2.132-2.925-2.714-1.868-2.643,3.736.149,4.793,1.185a9.026,9.026,0,0,0,2.643,1.6c.142.1,2.826-1.5,2.981-1.123a46.455,46.455,0,0,0,4.314,3.258s4.406-.083,5.711,0,6.45-.128,6.52.436-.564,1.271.247,1.975a14.255,14.255,0,0,0,3.579,1.487s.51,2.924,2.06,2.973,2.374.113,2.332.558.558,8.307,1.227,8.781a6.352,6.352,0,0,1,2.467,2.589c.7,1.48,1.8,7.014,2.538,7.824s1.762,1.974,2.22,1.234,1.346-.88,1.234-2.6.995-1.944,1.59-2.332a1.453,1.453,0,0,0,.243-2.291c-.811-1.093-.2-4.608-.243-4.807s1.691-1.645,1.691-1.645,1.83.481,2.429-.939-.568-1.748,1.8-3.184a22.258,22.258,0,0,0,4.512-4.181,8.147,8.147,0,0,1,1.3-1.1c.285-.107,1.659.6,2.928-.036s-.117-3.712,2.044-1.762,2.534,5.161,3.256,5.4,2.782.629,2.776,1.9,1.459,3.316,1.459,3.316a12.328,12.328,0,0,1,1.955.1c.035.106-.23,4.9.5,5.921a35.963,35.963,0,0,1,2.219,5.484c.135.4.789,4.913,1.449,5.936s1.8,3.112,2.234,3.6S386.432,253.481,387.081,252.543Z" transform="translate(19.798 -82.554)" fill-rule="evenodd" fill="url(#linear-gradient)"/>
    </g>
  </g>
</svg>
